<svg id="Layer_2" data-name="Layer 2" xmlns="http://www.w3.org/2000/svg" viewBox="0 0 1166 413.32">
    <defs><style>.cls-1{fill:#444;}.cls-2{fill:#8cbb00;}</style></defs>
    <path class="cls-1" d="M123.16,325.72a122.91,122.91,0,0,1-28.81-3.23A61,61,0,0,1,71.2,311.86a45,45,0,0,1-14.53-19.52q-4.85-12.1-3.23-29.88h51.68q-.54,10.77,5,16.15T128.54,284q8.61,0,13.33-3.5c3.13-2.33,4.71-5.12,4.71-8.35,0-3.58-1.85-6.59-5.52-9a79.58,79.58,0,0,0-14.4-7.14q-11.85-4.84-21.67-10A70.9,70.9,0,0,1,88.3,234.33a47,47,0,0,1-10.64-15.21q-3.76-8.61-3.76-20.45a61.34,61.34,0,0,1,5.51-26A60.28,60.28,0,0,1,94.89,152.1a74.67,74.67,0,0,1,23.69-13.6,87,87,0,0,1,29.88-5,99,99,0,0,1,29.07,4,62.09,62.09,0,0,1,22.48,12,47.32,47.32,0,0,1,13.73,19.92q4.44,12,2.83,27.59H166.23q1.61-8.88-3.5-14.67t-16.15-5.79q-10.25,0-14.67,3.77a11.59,11.59,0,0,0-4.45,9.15q0,6.74,7.81,11a141.83,141.83,0,0,0,18.57,8.34q8.9,3.24,17.77,7.14a67.11,67.11,0,0,1,15.88,9.69,45.1,45.1,0,0,1,11.31,14q4.3,8.21,4.31,20a60.67,60.67,0,0,1-21.81,47.11A76.41,76.41,0,0,1,156,320.74,102.56,102.56,0,0,1,123.16,325.72Z"/><path class="cls-1" d="M287.36,322.76a59.59,59.59,0,0,1-19.78-3.23,52.49,52.49,0,0,1-17.91-11l-17.49,62.72H184L238.1,182.51h46L282,190.32a45.69,45.69,0,0,1,15.07-6.6,65,65,0,0,1,15.08-2,58.16,58.16,0,0,1,21.53,4,53.75,53.75,0,0,1,18,11.71,56.7,56.7,0,0,1,12.38,18.44,62.15,62.15,0,0,1,4.58,24.5,77.65,77.65,0,0,1-6.46,31.09,85.82,85.82,0,0,1-43.34,44.42A74.11,74.11,0,0,1,287.36,322.76Zm-22.34-67q0,10.77,6.59,17.37t16.83,6.59a29.9,29.9,0,0,0,12.78-2.82,36,36,0,0,0,10.64-7.54,36.84,36.84,0,0,0,7.27-10.77,31.22,31.22,0,0,0,2.69-12.79q0-10.76-6.73-17.49a23,23,0,0,0-17-6.73,28.77,28.77,0,0,0-12.25,2.82,37.16,37.16,0,0,0-10.63,7.41,35.92,35.92,0,0,0-7.41,10.9A31.75,31.75,0,0,0,265,255.73Z"/><path class="cls-1" d="M460.18,179.28a69.4,69.4,0,0,1,26.25,4.85A63.55,63.55,0,0,1,507,197.32a59.54,59.54,0,0,1,13.46,19.79,62.48,62.48,0,0,1,4.84,24.63,80.74,80.74,0,0,1-6.46,31.9,85.88,85.88,0,0,1-17.76,26.78,84.3,84.3,0,0,1-26.52,18.3,79.19,79.19,0,0,1-32.43,6.73,71.08,71.08,0,0,1-26.65-4.84,61.78,61.78,0,0,1-20.73-13.33,58.83,58.83,0,0,1-13.33-20,65,65,0,0,1-4.71-24.77,77.64,77.64,0,0,1,6.73-32,87.77,87.77,0,0,1,18.17-26.52,85.48,85.48,0,0,1,26.65-18A79.29,79.29,0,0,1,460.18,179.28Zm18.57,69.19q0-10.5-6.59-17.5t-17.09-7a29.86,29.86,0,0,0-12.25,2.56,30.75,30.75,0,0,0-10.1,7.13,35.11,35.11,0,0,0-9.42,24.23,25.35,25.35,0,0,0,6.19,17q6.19,7.26,17.5,7.26a29.07,29.07,0,0,0,12.65-2.82,31.54,31.54,0,0,0,10.1-7.54A36.48,36.48,0,0,0,476.33,261,33.31,33.31,0,0,0,478.75,248.47Z"/><path class="cls-1" d="M588.85,263.81q-2.42,8.61,0,13.46c1.62,3.23,5.29,4.84,11,4.84h14.27l-11,39.84H576.47q-12.91,0-21.53-4.17a28.23,28.23,0,0,1-12.79-11.57q-4.18-7.41-4.44-17.9a77,77,0,0,1,3.5-23.42l11.57-40.11H533.67l12.11-42.27h19.11l9.7-34.18H622l-9.69,34.18H643l-12.11,42.27h-31Z"/><path class="cls-1" d="M703.79,322.76A59.59,59.59,0,0,1,684,319.53a52.46,52.46,0,0,1-17.9-11l-17.5,62.72H600.42l54.11-188.71h46l-2.15,7.81a45.69,45.69,0,0,1,15.07-6.6,65,65,0,0,1,15.08-2,58.12,58.12,0,0,1,21.53,4,53.75,53.75,0,0,1,18,11.71,56.7,56.7,0,0,1,12.38,18.44,62.15,62.15,0,0,1,4.58,24.5,77.48,77.48,0,0,1-6.46,31.09,85.82,85.82,0,0,1-43.34,44.42A74.07,74.07,0,0,1,703.79,322.76Zm-22.34-67q0,10.77,6.6,17.37t16.82,6.59a30,30,0,0,0,12.79-2.82,36,36,0,0,0,10.63-7.54,36.84,36.84,0,0,0,7.27-10.77,31.22,31.22,0,0,0,2.69-12.79q0-10.76-6.73-17.49a23,23,0,0,0-17-6.73,28.77,28.77,0,0,0-12.25,2.82,37.3,37.3,0,0,0-10.63,7.41,35.89,35.89,0,0,0-7.4,10.9A31.6,31.6,0,0,0,681.45,255.73Z"/><path class="cls-1" d="M879.84,314.15a45.47,45.47,0,0,1-15.07,6.59,64.5,64.5,0,0,1-15.08,2,58,58,0,0,1-21.53-4,53.44,53.44,0,0,1-18-11.71,56.55,56.55,0,0,1-12.38-18.43,62.15,62.15,0,0,1-4.58-24.5A77.49,77.49,0,0,1,799.63,233,85.75,85.75,0,0,1,843,188.57a73.93,73.93,0,0,1,31.5-6.86,62.29,62.29,0,0,1,19.79,3.09,48.41,48.41,0,0,1,17.63,10.9l3.77-13.19h48.18L923.72,322h-46Zm17-65.42q0-10.75-6.59-17.36t-16.83-6.59a29.9,29.9,0,0,0-12.78,2.82A35.9,35.9,0,0,0,850,235.14a36.62,36.62,0,0,0-7.26,10.77,31.05,31.05,0,0,0-2.7,12.78q0,10.77,6.73,17.5a23,23,0,0,0,17,6.73,27.92,27.92,0,0,0,12.12-2.82,39.76,39.76,0,0,0,10.63-7.41A35.36,35.36,0,0,0,894,261.92,31.41,31.41,0,0,0,896.8,248.73Z"/><path class="cls-1" d="M1000.58,353.31a66.52,66.52,0,0,1-19.79,14,64.17,64.17,0,0,1-23,5.39,157.24,157.24,0,0,1-28.67-1.48l11.57-42a66.93,66.93,0,0,0,13.86,1.08,27.41,27.41,0,0,0,10-2.15,17.82,17.82,0,0,0,7-5.66,38.05,38.05,0,0,0,5-9.42l-9.42-130.56h49l.53,73.22,42-73.22H1113l-93.41,146.17Q1009.86,344,1000.58,353.31Z"/><circle class="cls-2" cx="679.45" cy="88.26" r="47.79"/></svg>