<?xml version="1.0" standalone="no"?>
<!DOCTYPE svg PUBLIC "-//W3C//DTD SVG 20010904//EN"
 "http://www.w3.org/TR/2001/REC-SVG-20010904/DTD/svg10.dtd">
<svg version="1.0" xmlns="http://www.w3.org/2000/svg"
 width="810.000000pt" height="344.000000pt" viewBox="0 0 810.000000 344.000000"
 preserveAspectRatio="xMidYMid meet">

<g transform="translate(0.000000,344.000000) scale(0.100000,-0.100000)"
fill="#000000" stroke="none">
<path d="M4512 1163 l3 -768 108 -3 107 -3 0 246 0 245 198 0 c124 1 226 6
277 15 206 37 369 182 420 376 19 70 19 200 0 272 -45 171 -152 286 -334 356
-66 25 -68 25 -424 29 l-357 3 2 -768z m730 534 c252 -123 238 -487 -21 -589
-50 -19 -79 -22 -273 -26 l-218 -4 0 327 0 327 228 -4 c225 -3 227 -3 284 -31z"/>
<path d="M6260 1538 c-239 -24 -444 -212 -495 -453 -63 -298 104 -590 388
-680 86 -27 231 -34 317 -14 67 15 161 63 212 109 25 22 49 40 52 40 3 0 6
-34 6 -75 l0 -75 95 0 95 0 0 570 0 570 -95 0 -95 0 0 -70 c0 -38 -2 -70 -5
-70 -3 0 -29 17 -58 39 -123 92 -254 126 -417 109z m201 -198 c112 -35 213
-132 255 -243 22 -61 26 -199 6 -264 -34 -113 -150 -224 -270 -259 -81 -24
-200 -16 -274 18 -160 74 -259 259 -229 429 44 250 274 394 512 319z"/>
<path d="M7040 1525 c0 -3 101 -255 225 -560 l226 -555 -28 -51 c-60 -110
-140 -164 -261 -175 l-72 -7 0 -88 0 -89 38 0 c214 1 363 91 459 277 32 60
439 1153 461 1236 4 15 -5 17 -96 17 l-100 0 -30 -82 c-16 -46 -83 -237 -148
-425 -66 -189 -121 -343 -124 -343 -3 0 -79 192 -170 425 l-164 425 -108 0
c-59 0 -108 -2 -108 -5z"/>
</g>
</svg>
