<svg xmlns="http://www.w3.org/2000/svg" viewBox="0 0 194.24 82.3">
    <path d="M14.15 73.55a18.45 18.45 0 0 1-5.52-.78 13.07 13.07 0 0 1-4.34-2.26 11.27 11.27 0 0 1-3-3.61A12.41 12.41 0 0 1 0 62h5.15a8.43 8.43 0 0 0 2.55 5.2q2.13 2 6.34 2 4.37 0 6.35-1.67a5.5 5.5 0 0 0 2-4.42 4.11 4.11 0 0 0-.75-2.55A5.53 5.53 0 0 0 19.55 59a14.06 14.06 0 0 0-3-1c-1.11-.26-2.27-.51-3.48-.76-1.46-.27-2.91-.61-4.35-1a14.14 14.14 0 0 1-3.87-1.69 8.61 8.61 0 0 1-2.81-2.94A9.24 9.24 0 0 1 1 46.82a9.5 9.5 0 0 1 .88-4.11 9 9 0 0 1 2.47-3.17 11.61 11.61 0 0 1 3.88-2 16.86 16.86 0 0 1 5.09-.73q6 0 9.44 2.94a11.08 11.08 0 0 1 3.77 7.93h-5.1a8.15 8.15 0 0 0-.6-2.39 6.28 6.28 0 0 0-1.46-2.13 7.13 7.13 0 0 0-2.44-1.51 9.78 9.78 0 0 0-3.51-.57A9.09 9.09 0 0 0 8 42.48a4.72 4.72 0 0 0-2 4.08 4.44 4.44 0 0 0 .68 2.55 5.34 5.34 0 0 0 1.84 1.64 11.6 11.6 0 0 0 2.68 1c1 .26 2.08.49 3.23.7 1.49.28 3 .59 4.55.94A14.8 14.8 0 0 1 23.19 55a8.81 8.81 0 0 1 3.07 2.91 8.94 8.94 0 0 1 1.2 4.92 10.55 10.55 0 0 1-.91 4.42 9.39 9.39 0 0 1-2.63 3.38 12 12 0 0 1-4.18 2.16 19.24 19.24 0 0 1-5.59.76Zm31.09-.21a12.89 12.89 0 0 1-5.48-1.09 13 13 0 0 1-3.93-2.7V82h-4.58V46.61h4.58v3.54a12.19 12.19 0 0 1 3.85-2.78 12.71 12.71 0 0 1 5.56-1.12 13 13 0 0 1 5.18 1 13.4 13.4 0 0 1 7.12 7.15 13.81 13.81 0 0 1 0 10.66 14 14 0 0 1-2.88 4.32 13.28 13.28 0 0 1-4.24 2.88 12.85 12.85 0 0 1-5.18 1.08ZM45 50.51a9.49 9.49 0 0 0-3.69.73 9.38 9.38 0 0 0-3 2 8.84 8.84 0 0 0-1.95 2.94 9.4 9.4 0 0 0-.71 3.66 9.28 9.28 0 0 0 .73 3.67 9.4 9.4 0 0 0 2 2.94 9.2 9.2 0 0 0 2.94 2 9.44 9.44 0 0 0 7.28 0 9 9 0 0 0 2.91-2 9.08 9.08 0 0 0 1.92-2.94 9.76 9.76 0 0 0 0-7.31A9 9 0 0 0 45 50.51Zm29.78-4.31a13.74 13.74 0 0 1 5.46 1.06 14 14 0 0 1 4.35 2.89 13 13 0 0 1 2.88 4.29 13.48 13.48 0 0 1 1 5.33 13.69 13.69 0 0 1-1 5.36 13.28 13.28 0 0 1-2.88 4.34 13.72 13.72 0 0 1-9.81 4 14 14 0 0 1-5.48-1.07 13.74 13.74 0 0 1-4.37-2.88A13.11 13.11 0 0 1 62 65.18a14 14 0 0 1-1-5.41 13.65 13.65 0 0 1 1-5.33 13 13 0 0 1 2.89-4.29 13.76 13.76 0 0 1 4.37-2.89 13.94 13.94 0 0 1 5.52-1.06Zm0 4.16a9 9 0 0 0-3.66.73 9.2 9.2 0 0 0-2.94 2 8.9 8.9 0 0 0-2 3 10 10 0 0 0-.7 3.77 10.2 10.2 0 0 0 .67 3.75 8.85 8.85 0 0 0 1.9 3 9.15 9.15 0 0 0 2.91 2 9.59 9.59 0 0 0 7.34 0 9.47 9.47 0 0 0 2.93-2 9.21 9.21 0 0 0 2-3 9.64 9.64 0 0 0 .77-3.79 10.15 10.15 0 0 0-.7-3.77 9 9 0 0 0-1.93-3 8.86 8.86 0 0 0-2.91-2 9.11 9.11 0 0 0-3.68-.69Zm29.8-3.75v4.06h-7v13.78a5.4 5.4 0 0 0 .42 2.16 3.44 3.44 0 0 0 1 1.35 3.49 3.49 0 0 0 1.4.7 6.94 6.94 0 0 0 1.75.21h2.49v4.06H102a12.45 12.45 0 0 1-3.61-.5 7.71 7.71 0 0 1-2.84-1.53 6.86 6.86 0 0 1-1.84-2.65 10 10 0 0 1-.65-3.8V50.67h-3.9v-4.06h3.9v-7.23h4.52v7.23Z" style="fill:#8cbb00"/>
    <path d="M113.53 61.19v11.74h-5.23V36h13.79a14.83 14.83 0 0 1 5.46 1 12.58 12.58 0 0 1 4.2 2.67 11.7 11.7 0 0 1 2.7 4 13 13 0 0 1 .94 4.93 12.59 12.59 0 0 1-1 4.95 11.67 11.67 0 0 1-2.75 4 12.82 12.82 0 0 1-4.22 2.67 14.39 14.39 0 0 1-5.36 1Zm0-20.35V56.4h8.24a9.74 9.74 0 0 0 3.5-.6 7.39 7.39 0 0 0 2.63-1.64 7.25 7.25 0 0 0 1.67-2.47 8.15 8.15 0 0 0 0-6.14 7.29 7.29 0 0 0-1.67-2.48 7.4 7.4 0 0 0-2.61-1.64 9.3 9.3 0 0 0-3.42-.59Zm48.08 28.43a12.75 12.75 0 0 1-4 2.9 13.15 13.15 0 0 1-5.79 1.19 13.4 13.4 0 0 1-5.36-1.08 13.89 13.89 0 0 1-4.38-3 14.06 14.06 0 0 1-3-4.44 14.11 14.11 0 0 1 3-15.48 14.14 14.14 0 0 1 4.38-3 13.09 13.09 0 0 1 5.36-1.11 13.37 13.37 0 0 1 5.74 1.16 13.9 13.9 0 0 1 4.06 2.83v-3.56h4.69v27.25h-4.69Zm-9.53-19.55a9.36 9.36 0 0 0-3.77.75 9.64 9.64 0 0 0-3 2.05 9.51 9.51 0 0 0-2 3.07 10.15 10.15 0 0 0 0 7.56 9.64 9.64 0 0 0 2 3.05 9.45 9.45 0 0 0 3 2 9.2 9.2 0 0 0 3.77.76A9.78 9.78 0 0 0 159 66.2a9.08 9.08 0 0 0 2-3.05 9.79 9.79 0 0 0-2.07-10.63 9.87 9.87 0 0 0-3-2.05 9.54 9.54 0 0 0-3.85-.75Zm32.52 22.45a25.56 25.56 0 0 1-2.12 4.61 12.55 12.55 0 0 1-2.64 3.15 9.42 9.42 0 0 1-3.34 1.8 14.21 14.21 0 0 1-4.17.57h-1.24V78h1.24a7.24 7.24 0 0 0 4.36-1.29 9.73 9.73 0 0 0 3-4.26l-10.86-26.77h5.27l8 20.63 7.21-20.63h4.9Z" style="fill:#444"/>
    <path d="M139.12 21.82a14.15 14.15 0 0 1-2.43-7.9 14 14 0 0 1 28 0 14.16 14.16 0 0 1-2.44 7.9l-11.6 19.53-11.53-19.53Zm11.53 2.42A10.29 10.29 0 1 1 161 13.92a10.3 10.3 0 0 1-10.35 10.32Z" style="fill-rule:evenodd;fill:#8cbb00"/>
</svg>
