<svg xmlns="http://www.w3.org/2000/svg" viewBox="0 0 34.88 44"><defs><style>.cls-1{fill:#444;}.cls-2{fill:#8cbb00;}</style></defs><g id="Layer_2" data-name="Layer 2"><g id="Layer_1-2" data-name="Layer 1"><path class="cls-1" d="M0,0H0A8,8,0,0,0,.66.54q3,2.52,6.07,5L12.1,1.06c1.8,1.5,3.58,3,5.38,4.5l5.37-4.5,5.31,4.5L34.37.42A2.61,2.61,0,0,0,34.83,0h.05q0,22,0,44H0ZM6.74,8.93,2.58,5.49V41.42H32.3V5.49L28.15,8.93c-1.78-1.49-3.54-3-5.31-4.5l-5.36,4.5c-1.8-1.49-3.58-3-5.38-4.5Z"/><path class="cls-2" d="M12.59,11H18.3a4.91,4.91,0,0,1,1.91,9.39,5.12,5.12,0,0,1-2.25.45H15.17v6.64H12.58C12.59,22,12.58,16.48,12.59,11Zm2.58,2.59v4.67c1,0,2,0,3,0A2.36,2.36,0,0,0,20,17.4a2.34,2.34,0,0,0-1.76-3.83Z"/><ellipse class="cls-1" cx="17.44" cy="31.88" rx="14.59" ry="1.82"/><path class="cls-1" d="M7.12,36H27.76v2.58H7.12Z"/></g></g></svg>