<svg xmlns="http://www.w3.org/2000/svg" viewBox="0 0 44 44">
    <g data-name="Layer 2">
        <g data-name="Layer 1">
            <circle cx="25.89" cy="25.89" r="18.11" style="fill:gray"/>
            <circle cx="19.06" cy="19.06" r="19.06" style="fill:#444"/>
            <path d="M24.58 24a4.73 4.73 0 0 1-1.78 1.71 6.46 6.46 0 0 1-2.77.79v1.84h-1.46v-1.83a6.34 6.34 0 0 1-3.67-1.38A4.06 4.06 0 0 1 13.46 22h3.42a2 2 0 0 0 1.69 2v-4.42a19.75 19.75 0 0 1-2.64-.82 4.44 4.44 0 0 1-1.74-1.32 3.93 3.93 0 0 1-.73-2.44 4.13 4.13 0 0 1 1.43-3.24 6.19 6.19 0 0 1 3.68-1.44V8.43H20v1.84a6 6 0 0 1 3.5 1.33 4.4 4.4 0 0 1 1.5 3.14h-3.44A2.1 2.1 0 0 0 20 12.9v4.31a21.51 21.51 0 0 1 2.7.83 4.33 4.33 0 0 1 1.73 1.3 3.86 3.86 0 0 1 .73 2.47 4.37 4.37 0 0 1-.58 2.19Zm-7.33-8a3.19 3.19 0 0 0 1.32.76v-3.93a2.12 2.12 0 0 0-1.3.61 1.89 1.89 0 0 0-.48 1.35 1.65 1.65 0 0 0 .46 1.21Zm4.14 7.26a1.92 1.92 0 0 0 .49-1.26 1.6 1.6 0 0 0-.48-1.21A3.75 3.75 0 0 0 20 20v4a2.27 2.27 0 0 0 1.39-.73Z" style="fill:#fff"/>
        </g>
    </g>
</svg>
