<svg xmlns="http://www.w3.org/2000/svg" viewBox="0 0 44 44"><defs><style>.cls-1{fill:#fff;}.cls-2{fill:#8cbb00;}</style></defs><g id="Layer_2" data-name="Layer 2"><g id="Layer_1-2" data-name="Layer 1"><g id="Deposit"><circle class="cls-1" cx="25.89" cy="25.89" r="18.11"/><circle class="cls-2" cx="19.06" cy="19.06" r="19.06"/><path class="cls-1" d="M24.58,24a4.73,4.73,0,0,1-1.78,1.71,6.42,6.42,0,0,1-2.77.79v1.84H18.57V26.51a6.34,6.34,0,0,1-3.67-1.38A4.06,4.06,0,0,1,13.46,22h3.42a2,2,0,0,0,1.69,2V19.58a19.75,19.75,0,0,1-2.64-.82,4.35,4.35,0,0,1-1.74-1.32A3.93,3.93,0,0,1,13.46,15a4.13,4.13,0,0,1,1.43-3.24,6.25,6.25,0,0,1,3.68-1.44V8.43H20v1.84a6,6,0,0,1,3.5,1.33A4.4,4.4,0,0,1,25,14.74H21.56a2.14,2.14,0,0,0-.47-1.15A2.12,2.12,0,0,0,20,12.9v4.31a21.51,21.51,0,0,1,2.7.83,4.33,4.33,0,0,1,1.73,1.3,3.88,3.88,0,0,1,.73,2.48A4.36,4.36,0,0,1,24.58,24Zm-7.33-8a3.19,3.19,0,0,0,1.32.76V12.83a2.18,2.18,0,0,0-1.3.61,1.89,1.89,0,0,0-.48,1.35A1.65,1.65,0,0,0,17.25,16Zm4.14,7.26A1.92,1.92,0,0,0,21.88,22a1.6,1.6,0,0,0-.48-1.21A3.75,3.75,0,0,0,20,20v4A2.27,2.27,0,0,0,21.39,23.27Z"/></g></g></g></svg>