<svg xmlns="http://www.w3.org/2000/svg" viewBox="0 0 27.32 44"><defs><style>.cls-1{fill:#fff;}.cls-2{fill:#8cbb00;}</style></defs><g id="Layer_2" data-name="Layer 2"><g id="Layer_1-2" data-name="Layer 1"><g id="Electricity"><path class="cls-1" d="M13.65,33H8.57a2.75,2.75,0,0,1-3.11-2.89,15.16,15.16,0,0,0-1.62-5.16,71.38,71.38,0,0,1-3.19-7.3A13.51,13.51,0,0,1,10.69.35,13.73,13.73,0,0,1,27.15,11.47,14.53,14.53,0,0,1,25.8,20C25,21.87,24,23.67,23.18,25.51a13,13,0,0,0-1.35,4.86A2.65,2.65,0,0,1,19,33C17.22,33,15.44,33,13.65,33Zm5.46-2.78a16.84,16.84,0,0,1,2-6.73c.71-1.47,1.45-2.92,2.12-4.41a12.14,12.14,0,0,0,1.21-7.22A11,11,0,0,0,2.82,12c-.44,2.85.46,5.37,1.6,7.88C5.93,23.25,8,26.37,8.2,30.16h4.08c0-2.7,0-5.33,0-8a1.41,1.41,0,0,1,1.38-1.58c.82,0,1.34.61,1.35,1.6,0,2.33,0,4.66,0,7v1Z"/><path class="cls-1" d="M19.53,37.06c1.27,1,1.28,1.86,0,2.77a4.84,4.84,0,0,1,.48.4,1.33,1.33,0,0,1-.59,2.29,4.32,4.32,0,0,1-1.25.08,3.72,3.72,0,0,0-2.74.77,3,3,0,0,1-3.93-.2,2,2,0,0,0-1.62-.57c-.36,0-.73,0-1.09,0-.79,0-1.55,0-1.89-.9s.16-1.43.84-1.88c-1.28-.89-1.28-1.75,0-2.76a1.42,1.42,0,0,1-.86-1.76c.27-.85,1-1,1.75-1q5,0,10.07,0c.76,0,1.43.13,1.68.93A1.39,1.39,0,0,1,19.53,37.06Z"/><path class="cls-2" d="M13.68,19.21c-.91,0-1.81,0-2.72,0a1.35,1.35,0,1,1-.1-2.69q2.76-.07,5.52,0a1.31,1.31,0,0,1,1.36,1.39,1.34,1.34,0,0,1-1.44,1.31C15.43,19.23,14.55,19.21,13.68,19.21Z"/><path class="cls-2" d="M13.61,15.13c-.85,0-1.7,0-2.54,0a1.4,1.4,0,0,1-1.51-1.35c0-.82.59-1.37,1.56-1.38h5.07c.95,0,1.52.5,1.55,1.29a1.38,1.38,0,0,1-1.51,1.44C15.36,15.15,14.48,15.13,13.61,15.13Z"/></g></g></g></svg>