<svg xmlns="http://www.w3.org/2000/svg" viewBox="0 0 44 27.62"><defs><style>.cls-1{fill:#fff;}.cls-2{fill:#8cbb00;}</style></defs><g id="Layer_2" data-name="Layer 2"><g id="Layer_1-2" data-name="Layer 1"><g id="Lotto"><path class="cls-1" d="M22.06,27.62A10.25,10.25,0,0,1,22,7.12a10.26,10.26,0,0,1,10.32,10.2h0A10.19,10.19,0,0,1,22.1,27.62ZM22.05,9H22a8.2,8.2,0,0,0-5.84,2.5A8.33,8.33,0,0,0,22.06,25.7h0a8.26,8.26,0,0,0,8.28-8.37h0A8.35,8.35,0,0,0,22.05,9Z"/><path class="cls-1" d="M33.88,20.48a9.26,9.26,0,0,1-2.75-.41l-.73-.21,0-.75c.24-4.7-1.74-7.88-6.05-9.73l-.6-.26,0-.66a8.13,8.13,0,0,1,3.06-5.82A10.81,10.81,0,0,1,35,.06a10.29,10.29,0,0,1,8.79,12.3,10.42,10.42,0,0,1-4.85,6.71A9.94,9.94,0,0,1,33.88,20.48Zm-1.5-2.07a7.91,7.91,0,0,0,5.57-1A8.46,8.46,0,0,0,41.9,12,8.38,8.38,0,0,0,34.77,2a8.88,8.88,0,0,0-6.65,2.12,6.56,6.56,0,0,0-2.33,3.82A10.83,10.83,0,0,1,32.38,18.41Z"/><path class="cls-1" d="M5.07,19.07A10.42,10.42,0,0,1,.22,12.36,10.29,10.29,0,0,1,9,.06a10.81,10.81,0,0,1,8.12,2.58,8.13,8.13,0,0,1,3.06,5.82l0,.66-.6.26c-4.31,1.85-6.29,5-6,9.73l0,.75-.73.21a9.26,9.26,0,0,1-2.75.41A9.94,9.94,0,0,1,5.07,19.07ZM18.21,7.91a6.56,6.56,0,0,0-2.33-3.82A8.88,8.88,0,0,0,9.23,2,8.38,8.38,0,0,0,2.1,12a8.46,8.46,0,0,0,4,5.46,7.91,7.91,0,0,0,5.57,1A10.83,10.83,0,0,1,18.21,7.91Z"/><path class="cls-2" d="M20.64,16V14.93h2v5H21.35V16Z"/><path class="cls-2" d="M8,8.58V7.49H12.1l-2.85,5H7.83L10.1,8.58Z"/><path class="cls-2" d="M33.83,8.58l-.09.56.41,0a1.67,1.67,0,0,1,1.76,1.78,1.73,1.73,0,0,1-.64,1.34,2.3,2.3,0,0,1-1.45.41,3,3,0,0,1-1.62-.44L32.39,11a2.14,2.14,0,0,0,1.39.57.76.76,0,0,0,.79-.73c0-.6-.58-.85-1.09-.85a2.23,2.23,0,0,0-.95.21L33,7.49h2.58V8.58Z"/></g></g></g></svg>