<svg xmlns="http://www.w3.org/2000/svg" viewBox="0 0 34.78 43.87"><defs><style>.cls-1{fill:#fff;}.cls-2{fill:#8cbb00;}</style></defs><g id="Layer_2" data-name="Layer 2"><g id="Layer_1-2" data-name="Layer 1"><g id="Mall_Parking" data-name="Mall Parking"><path class="cls-1" d="M0,0H0C.22.21.46.35.65.54l6.06,5,5.36-4.49,5.36,4.49,5.36-4.5,5.29,4.5L34.27.42A3.06,3.06,0,0,0,34.73,0h.05q0,21.93,0,43.87H0ZM6.72,8.9C5.33,7.77,4,6.61,2.57,5.47V41.3H32.21V5.47c-1.38,1.15-2.77,2.28-4.14,3.43-1.77-1.48-3.53-3-5.29-4.48L17.43,8.9c-1.79-1.48-3.57-3-5.36-4.48Z"/><path class="cls-2" d="M12.55,11h5.69a4.9,4.9,0,0,1,1.91,9.37,5.26,5.26,0,0,1-2.25.44H15.12v6.62H12.55Zm2.57,2.58v4.66h3a2.35,2.35,0,0,0,1.83-.84,2.33,2.33,0,0,0-1.75-3.82Z"/><ellipse class="cls-1" cx="17.39" cy="31.79" rx="14.55" ry="1.82"/><path class="cls-1" d="M7.1,35.91H27.68v2.57H7.1Z"/></g></g></g></svg>