<svg xmlns="http://www.w3.org/2000/svg" viewBox="0 0 44 44"><defs><style>.cls-1{fill:#fff;}.cls-2{fill:#8cbb00;}</style></defs><g id="Layer_2" data-name="Layer 2"><g id="Layer_1-2" data-name="Layer 1"><g id="Market"><path class="cls-1" d="M.06,1A1.41,1.41,0,0,1,1.39,0,8.33,8.33,0,0,1,3,.2c1.45.3,2.9.63,4.34,1a1.88,1.88,0,0,1,.76.31,1.32,1.32,0,0,1,.51.88c.25,1.47.51,2.94.74,4.41,1.16.09,2.3.24,3.46.34L24,8.11l5.5.51L35,9.08c2.15.18,4.3.33,6.44.59a4.38,4.38,0,0,1,2,.44A1.36,1.36,0,0,1,44,11.5c-.23.71-.39,1.45-.58,2.17q-1.8,7-3.58,14.06c-.38,1.51-.88,3-1.28,4.49-.14.44-.21.89-.39,1.32a1.39,1.39,0,0,1-.73.74,3.4,3.4,0,0,1-1.31.16q-13.74,0-27.49,0a1.76,1.76,0,0,1-1.06-.25,1.4,1.4,0,0,1-.37-1.88,1.3,1.3,0,0,1,.76-.58A3.67,3.67,0,0,1,9,31.63H35.52c.16,0,.23-.15.27-.27.19-.65.44-1.28.61-1.93h-25a1.52,1.52,0,0,1-1.26-.53,3.06,3.06,0,0,1-.42-1.46C8.46,19.65,7.18,11.86,6,4.06a.43.43,0,0,0-.38-.39C4.24,3.33,2.87,3,1.49,2.78A2,2,0,0,1,.29,2.2,1.32,1.32,0,0,1,.06,1ZM9.85,9.74c.14.77.26,1.55.36,2.33.24,1.83.59,3.65.9,5.47.22,1.24.38,2.5.56,3.75.26,1.66.55,3.32.78,5,0,.13.07.33.23.34.78,0,1.57,0,2.35,0-.3-2.3-.58-4.61-.88-6.92-.4-3.18-.78-6.37-1.33-9.53-.05-.26-.36-.24-.57-.26A21.34,21.34,0,0,0,9.85,9.74Zm5.88.49c.89,5.44,1.48,10.91,2.18,16.37q1.31,0,2.61,0a6.41,6.41,0,0,0,0-1c-.11-2.81-.24-5.62-.35-8.43-.07-2.1-.09-4.21-.27-6.31a.3.3,0,0,0-.3-.33c-1-.07-1.95-.17-2.93-.26A5.81,5.81,0,0,0,15.73,10.23Zm7,.63c.08,1.34.18,2.68.24,4,.19,3.9.24,7.81.41,11.72q1.34,0,2.67,0c.25-5,.45-9.92.7-14.88a2.32,2.32,0,0,0,0-.53C25.41,11.08,24.09,10.91,22.76,10.86Zm7,.58c0,5.07-.56,10.12-.79,15.18.81,0,1.62,0,2.44,0,.19,0,.25-.21.28-.36.49-3.2.93-6.42,1.41-9.63.24-1.6.6-3.2.7-4.82C32.43,11.7,31.09,11.53,29.74,11.44ZM34.5,26.62c.8,0,1.59,0,2.39,0,.21,0,.29-.21.33-.37Q39,19.33,40.76,12.41c-1.34-.16-2.68-.26-4-.37C36.21,16.93,35.21,21.75,34.5,26.62Z"/><path class="cls-2" d="M13.35,36.07a4.11,4.11,0,0,1,2.4.36A4,4,0,0,1,17.88,39a4,4,0,0,1-.17,2.56,4.05,4.05,0,0,1-2.26,2.19,4.11,4.11,0,0,1-3,0,4,4,0,0,1-2.33-2.33,3.94,3.94,0,0,1,.19-3.17A4,4,0,0,1,13.35,36.07Zm.14,2.59a1.43,1.43,0,0,0-.92,1.76,1.47,1.47,0,0,0,1.74,1,1.43,1.43,0,0,0,1-1.77A1.47,1.47,0,0,0,13.49,38.66Z"/><path class="cls-2" d="M33.06,36.07a4.11,4.11,0,0,1,2.92.64,4,4,0,0,1,1.21,5.36,4,4,0,0,1-2.46,1.8,4.13,4.13,0,0,1-2.91-.33,4,4,0,0,1-1.91-2.14,3.94,3.94,0,0,1,.34-3.47A4.1,4.1,0,0,1,33.06,36.07Zm.22,2.58a1.45,1.45,0,0,0-1,1.63A1.46,1.46,0,0,0,34,41.42a1.44,1.44,0,0,0,1.19-1.6A1.45,1.45,0,0,0,33.28,38.65Z"/></g></g></g></svg>