<svg xmlns="http://www.w3.org/2000/svg" viewBox="0 0 39.92 44">

    <defs>
        <style>.cls-1{fill:#fff;}.cls-2{fill:#8cbb00;}</style>

</defs>

    <g id="Layer_2" data-name="Layer 2"><g id="Layer_1-2" data-name="Layer 1"><g id="Notifications"><path class="cls-1" d="M18.16.79A2.43,2.43,0,0,1,21.66.7c.81.71.71,1.87.74,2.85A17,17,0,0,1,26,4.71a8.41,8.41,0,0,0,.78,5.79,8,8,0,0,0,6.8,4.08c.52,3.49.07,7,.29,10.54a4.23,4.23,0,0,0,1.11,2.28c1.52,1.72,3.11,3.39,4.61,5.13a1.6,1.6,0,0,1-.22,2.26,2.26,2.26,0,0,1-1.6.43H2.33a2.41,2.41,0,0,1-1.81-.49,1.62,1.62,0,0,1-.1-2.27C2,30.66,3.63,29,5.16,27.18a4,4,0,0,0,1-2.57c0-2.77,0-5.53,0-8.3a13.4,13.4,0,0,1,5.25-10,14.36,14.36,0,0,1,6.13-2.73C17.56,2.6,17.44,1.51,18.16.79Z"/><path class="cls-1" d="M13.55,37.78c4.28,0,8.55,0,12.83,0a6.65,6.65,0,0,1-2.06,4.52,6.47,6.47,0,0,1-8.63.08A6.55,6.55,0,0,1,13.55,37.78Z"/><path class="cls-2" d="M32.41.78a6,6,0,1,1-4.23,8.59,6,6,0,0,1,0-5.41A6.17,6.17,0,0,1,32.41.78Zm1,2.5c-.73.58-1.46,1.16-2.17,1.76.21.23.43.46.66.67a4.92,4.92,0,0,0,1.36-.8c0,1.77,0,3.54,0,5.31l1.44,0c0-2.3,0-4.6,0-6.9Z"/></g></g></g></svg>