<svg xmlns="http://www.w3.org/2000/svg" viewBox="0 0 44 44"><defs><style>.cls-1{fill:#8cbb00;}.cls-2{fill:#fff;}</style></defs><g id="Layer_2" data-name="Layer 2"><g id="Layer_1-2" data-name="Layer 1"><g id="Powerball"><circle class="cls-1" cx="22" cy="22" r="22"/><path class="cls-2" d="M28.37,27.74a5.5,5.5,0,0,1-2.05,2,7.58,7.58,0,0,1-3.2.91v2.13H21.43V30.6A7.48,7.48,0,0,1,17.19,29a4.7,4.7,0,0,1-1.65-3.68h3.94a2.32,2.32,0,0,0,1.95,2.29v-5a23.09,23.09,0,0,1-3.05-1,5,5,0,0,1-2-1.53,4.48,4.48,0,0,1-.84-2.87,4.72,4.72,0,0,1,1.64-3.73,7.07,7.07,0,0,1,4.25-1.66V9.73h1.69v2.13a6.9,6.9,0,0,1,4,1.52A5.17,5.17,0,0,1,28.86,17h-4a2.42,2.42,0,0,0-.54-1.33,2.49,2.49,0,0,0-1.22-.81v5a25.09,25.09,0,0,1,3.12,1,4.93,4.93,0,0,1,2,1.5,4.43,4.43,0,0,1,.85,2.86A5,5,0,0,1,28.37,27.74Zm-8.46-9.26a3.86,3.86,0,0,0,1.52.88V14.81a2.41,2.41,0,0,0-1.5.71,2.13,2.13,0,0,0-.55,1.55A1.9,1.9,0,0,0,19.91,18.48Zm4.77,8.38a2.2,2.2,0,0,0,.57-1.53,1.87,1.87,0,0,0-.55-1.39,4.27,4.27,0,0,0-1.58-.87v4.61A2.71,2.71,0,0,0,24.68,26.86Z"/></g></g></g></svg>