<svg xmlns="http://www.w3.org/2000/svg" viewBox="0 0 38.85 44">
    <defs>
        <style>
            .cls-1{fill:#8cbb00}
        </style>
    </defs>
    <g id="Layer_2" data-name="Layer 2">
        <g id="Layer_1-2" data-name="Layer 1">
            <g id="Prepaid">
                <path class="cls-1" d="M21.69 37.34h5.92v1.99h-5.92zM25.78 11.56l-7-7.46a2.23 2.23 0 0 0-3.21-.1l-2.39 2.27-.75.73-2 1.88-9.73 9.2a2.24 2.24 0 0 0-.7 1.56 2.22 2.22 0 0 0 .61 1.6l7.05 7.45a2.21 2.21 0 0 0 1.58.7 2.3 2.3 0 0 0 1.15-.31l2-1.88 8.24-7.73 5-4.75a2.18 2.18 0 0 0 .7-1.56 2.2 2.2 0 0 0-.55-1.6Zm-1.45 1.71L9.46 27.33a.23.23 0 0 1-.17.07.25.25 0 0 1-.17-.08l-7-7.45A.23.23 0 0 1 2 19.7a.21.21 0 0 1 .08-.17L16.94 5.46a.23.23 0 0 1 .16-.06.26.26 0 0 1 .17.07l7 7.46a.23.23 0 0 1 .07.17.26.26 0 0 1-.01.17Z"/>
                <path d="M35.64 0h-22a3.22 3.22 0 0 0-3.22 3.22v5.64l2-1.88V3.22A1.22 1.22 0 0 1 13.66 2h22a1.22 1.22 0 0 1 1.22 1.22v29.54H12.43V27.2l-2 1.88v11.7A3.22 3.22 0 0 0 13.66 44h22a3.22 3.22 0 0 0 3.21-3.22V3.22A3.22 3.22 0 0 0 35.64 0Zm1.22 40.78A1.23 1.23 0 0 1 35.64 42h-22a1.23 1.23 0 0 1-1.23-1.23v-6h24.45Z" style="fill:#fff"/>
            </g>
        </g>
    </g>
</svg>
