<svg xmlns="http://www.w3.org/2000/svg" viewBox="0 0 38.85 44"><defs><style>.cls-1{fill:#444;}.cls-2{fill:#8cbb00;}</style></defs><g id="Layer_2" data-name="Layer 2"><g id="Layer_1-2" data-name="Layer 1"><g id="Prepaid"><path class="cls-1" d="M12.43,40.78A1.23,1.23,0,0,0,13.66,42h22a1.23,1.23,0,0,0,1.22-1.23v-6H12.43Z"/><path class="cls-2" d="M25.69,14.72a2.18,2.18,0,0,0,.7-1.56,2.2,2.2,0,0,0-.61-1.6l-7-7.46A2.23,2.23,0,0,0,15.57,4L13.18,6.27,10.44,8.86h0L.7,18.08A2.24,2.24,0,0,0,0,19.64a2.22,2.22,0,0,0,.61,1.6l7.05,7.45a2.21,2.21,0,0,0,1.58.7h0a2.3,2.3,0,0,0,1.15-.31l10.23-9.61ZM9.45,27.33a.23.23,0,0,1-.17.07.25.25,0,0,1-.17-.08l-7-7.45A.23.23,0,0,1,2,19.7a.21.21,0,0,1,.08-.17L16.94,5.46a.23.23,0,0,1,.16-.06h0a.26.26,0,0,1,.17.07l7,7.46a.23.23,0,0,1,.07.17.26.26,0,0,1-.07.17L9.46,27.33Z"/><path class="cls-1" d="M35.64,0h-22a3.22,3.22,0,0,0-3.22,3.22V8.86l2.74-2.59L12.43,7V3.22A1.22,1.22,0,0,1,13.66,2h22a1.22,1.22,0,0,1,1.22,1.22V32.76H12.43v-5.5l4.64-4.39,3.6-3.4L10.44,29.08v11.7A3.22,3.22,0,0,0,13.66,44h22a3.22,3.22,0,0,0,3.21-3.22V3.22A3.22,3.22,0,0,0,35.64,0Zm1.22,40.78A1.23,1.23,0,0,1,35.64,42h-22a1.23,1.23,0,0,1-1.23-1.23v-6H36.86Z"/><rect class="cls-2" x="21.68" y="37.39" width="5.92" height="1.99"/></g></g></g></svg>