<svg xmlns="http://www.w3.org/2000/svg" viewBox="0 0 603.54 1107.52">
    <defs>
        <clipPath id="clip-path">
            <path class="cls-1" d="M329.51 81.06s.08-6.87 11.82-5.88c10.54.89 11.73 6.15 11.73 6.15s-1.46 9.14-13 9.32-10.55-9.59-10.55-9.59Z"/>
        </clipPath>
        <clipPath id="clip-path-2">
            <path class="cls-1" d="M307.89 81.11s.05-6.68-8-5.93c-7.25.68-8.16 5.77-8.16 5.77s.82 8.08 8.76 8.47 7.4-8.31 7.4-8.31Z"/>
        </clipPath>
        <style>
            .cls-1{fill:#fff}.cls-2{fill:#444}.cls-3{fill:#dc7f17}.cls-4{fill:#632d09}.cls-5{fill:#7a4108}.cls-11,.cls-6{fill:none;stroke:#000;stroke-linecap:round;stroke-linejoin:round}.cls-6{stroke-width:.58px}.cls-9{fill:#e0e0e0}.cls-10{fill:#1b7388}.cls-11{stroke-width:.59px}.cls-13{fill:#8ab900}
        </style>
    </defs>
    <g id="Layer_2" data-name="Layer 2">
        <g id="Layer_1-2" data-name="Layer 1">
            <path class="cls-2" d="M158.87 234.46H0v158.87h158.87Zm-24.44 134.43h-110v-110h110Z"/>
            <path class="cls-2" d="M52.04 286.5h54.79v54.79H52.04zM603.52 234.46H444.65v158.87h158.87Zm-24.44 134.43h-110v-110h110Z"/>
            <path class="cls-2" d="M496.69 286.5h54.79v54.79h-54.79zM0 838h158.87V679.11H0Zm24.44-134.45h110v110h-110Z"/>
            <path class="cls-2" d="M52.04 731.15h54.79v54.79H52.04zM347.34 386.73h32.89v25.06h20.19v-71.84H295.31v46.77h-33V416.99h33v-30.26h30.58v51.36h21.45v-51.36zM380.23 297.27h20.19v-62.8h-62.81v20.18h42.62v42.62zM203.1 234.47h42.74v36.68H203.1zM576.61 437.54h-27.66v31.72h27.66v9.63h-55.18v33.17h55.18v32.4h26.93V437.54h-26.93zM442.46 665.29v-19.92h-51.58v50.68h51.58Zm-19.91 4.18v7h-11.76v-11.54h11.76ZM203.1 663.05h42.74v43.46H203.1zM179.55 634.91h64.23v-33.56h-64.23v33.56zM245.83 448.67v-38.09h-31.69v37.68h-34.98v30.8h66.67v-30.39zM.03 512.06h45.53v32.4H.03zM57.31 479H40.36v-40.91H.03v40.97h40.23v17.26h17.05V479zM347.34 803.26h-21.45v34.72h54.34v-59.31h-32.89v24.59zM.03 575.09h56.23v59.82H.03zM71.54 634.91h84.4v-33.56h-33v-26.26h-51.4Zm10.78-37.81h15.94V613H82.32ZM208.89 559.5h-29.34V585.76h29.34V559.5zM405.46 562.71h28.61v26.26h-28.61zM576.61 575.09h26.92v26.26h-26.92z"/>
            <path class="cls-2" d="M250.1 375.94h26.21v-37.13h-73.22v37.13h47.01zM203.1 724.54h42.74v33.03H203.1zM347.34 719.66h32.9v32.13h-32.9zM576.61 751.79v40.91h-49.52v45.28h76.45V706.51h-26.93v45.28zM465.03 450.92h41.04v28.09h-41.04z"/>
            <path class="cls-2" d="M453.1 663.05h46.16v-61.7H380.23v-56.89h-32.89v30.63h-21.45V663.05h-30.58v-28.14h-33v71.6h33v45.28h30.58v-45.28h21.45v-41.27h32.89v-33.26h72.87v31.07zM520.97 663.05v.75h35.61v-35.55h-35.61v34.8zM556.69 687.25H580.25v-23.52H556.69v23.52zM543.29 706.51v-2.76h-81.63v45.28h81.63v-42.52zM464.72 774.39h39.13v63.59h-39.13zM391.95 731.58h51.97v31.49h-51.97zM426.19 778.97h17.73v18.04h-17.73zM391.95 811.99h51.97v25.99h-51.97zM122.93 479.06h33.01V437.54h-33.01V479.06zM347.34 512.06h32.89v32.4h133.4v-32.4H453.1v-74h-72.87v41h-54.34v33Zm77.32-6.57v-19.26h19.27v19.26ZM295.31 479.06h30.58v-40.97h-63.58v73.97h33v-33zM325.89 272.06h-30.58v-37.59h-33v91.71h63.58v-54.12z"/>
            <path class="cls-2" d="M325.89 512.06h-30.58v32.4h-33v-32.4H56.26v32.4h66.67v30.63h33.01v-30.63h89.89v30.63h16.48v26.26h33v-26.26h30.58v-63.03zM241.53 798.85h-38.44v39.13H306.32v-58.4h-64.79v19.27zM340.28 272.98h23.85v23.85h-23.85zM551.63 544.46v15.39h-30.66v30.71h30.72v-30.67h19.19v-19.25h-19.25v3.82zM83.77 479.66h20.48v20.48H83.77zM416.71 401.7h20.48v20.48h-20.48z"/>
            <path class="cls-3" d="M281.44 161.23s30.41-22.22 72.16-6.66l-17.93 34.66-44.87 6.57-11.09-26.73Z"/>
            <path class="cls-3" d="M409.43 161.23s-27.08-22.22-96.7-6.66l6.27 34.66 74.83 6.57 18.5-26.73Z"/>
            <path d="M287.33 32s-20 11.62 1.35 41l25.74-39.3Z"/>
            <path class="cls-4" d="M315.9 99.26c-.38 9.52-8.3 15.45-17.82 15.07s-16.79-10.48-16.41-20 8.18-13.37 17.69-13a17.24 17.24 0 0 1 16.54 17.93Z"/>
            <path class="cls-5" d="m355.82 111.88 6.97 90.95-42.78 1.01 2.11-79.64 33.7-12.32z"/>
            <path class="cls-4" d="M321.12 161.82s26.25-6.17 41.14-37.88l-40.4 10Z"/>
            <path class="cls-5" d="M321.07 18.31s-37.84 1.29-34.91 51 8.8 62.92 28.72 73.34c17.89 9.37 40.77 1 53.73-20.2 5.09-8.31 8.9-20.79 9.63-30.51l2.94-13s15.5-64.59-60.11-60.63Z"/>
            <path class="cls-6" d="m313.89 88.16-4.4 11.05 6.42 3.55"/>
            <path class="cls-1" d="M329.51 81.06s.08-6.87 11.82-5.88c10.54.89 11.73 6.15 11.73 6.15s-1.46 9.14-13 9.32-10.55-9.59-10.55-9.59Z"/>
            <path d="M346.89 82.15c0 4.88-3.35 8.8-7.4 8.75s-7.28-4-7.24-8.91 3.36-8.8 7.4-8.75 7.29 4.04 7.24 8.91Z" style="clip-path:url(#clip-path)"/>
            <path d="M328.9 78.33c7-5.93 19.69-5.81 24.29 2.93a.15.15 0 1 1-.27.13c-4.56-8.28-16.82-8.16-23.33-2.38-.45.49-1.19-.23-.69-.68Z"/>
            <path class="cls-1" d="M307.89 81.11s.05-6.68-8-5.93c-7.25.68-8.16 5.77-8.16 5.77s.82 8.08 8.76 8.47 7.4-8.31 7.4-8.31Z"/>
            <path d="M294.39 81.91c-.05 4.74 2.33 8.62 5.3 8.65s5.43-3.8 5.48-8.54-2.32-8.62-5.3-8.65-5.43 3.79-5.48 8.54Z" style="clip-path:url(#clip-path-2)"/>
            <path d="M307.78 79c-4.77-6.12-13-5.48-16 2-.05.16-.3.07-.23-.08 2.94-7.93 11.71-8.66 16.84-2.34a.39.39 0 1 1-.65.44ZM343.3 52.43s7.55.41 12.44 3c4.05 2.17 3.84 6.08.41 7.89-2.12 1.12-8.31 1.7-12.48 1.5-13.13-.62-15.45-4.79-15.14-7.91.47-4.37 9.37-5.01 14.77-4.48ZM296.8 52.64s-5.93.64-9.94 3.35c-3.33 2.24-3.46 6-.93 7.68 1.57 1 6.39 1.65 9.63 1 10.54-2 12.42-5.18 12.42-8.2.02-4.21-6.93-4.53-11.18-3.83Z"/>
            <path class="cls-6" d="M334.24 110.68s-10.68 7.43-19.78 4.46"/>
            <path d="M370.89 28.53c-.37-.34-13.19 18.65 2.62 36.29l-3.4 27.35 6.24 2.61 10.33-16.91-.05-33.26Z"/>
            <path d="M318.38 8.42s30.76-18.37 61.87-.84c24.48 13.81-4.11 40.68-4.11 40.68l-6.2-14.4L337.05 20Z"/>
            <path d="M380.37 23.83s25.15-4.62 28.55 20.75S378.56 107 378.56 107Z"/>
            <path class="cls-5" d="M368.05 104.31c2.06 9.3 6.57 12.84 18.8 10.34 9.33-1.91 14.67-13.28 12.61-22.58s-9.68-11.49-19.35-8.41C373.37 85.81 366 95 368.05 104.31Z"/>
            <path class="cls-6" d="M389.74 93.68s-8.81-2-11.88 10.57"/>
            <path d="M331.5 3s-3.81 2.55-28.76-1.36c-35.91-5.64-54.35 35.87-9.59 39.85S378.56 32 378.56 32Z"/>
            <path class="cls-5" d="m275.35 1063.1-.58-148.3 54.42-6.81-5.02 167.76-57.33-9.91 8.51-2.74z"/>
            <path d="M331.32 1052.08s-38.59 16.61-56.1-8.76l-93.94 50.27 161.18-2.65Z"/>
            <path class="cls-9" d="m181.12 1107.52 161.18-2.65.16-13.93-161.18 2.65-.16 13.93z"/>
            <path class="cls-1" d="M275.78 1064.87a2.43 2.43 0 0 1-1.06-.83 52.08 52.08 0 0 0-11.89-12 2.48 2.48 0 0 1-.65-3.52 2.7 2.7 0 0 1 3.61-.75A56 56 0 0 1 279 1061a2.55 2.55 0 0 1-.64 3.56 2.66 2.66 0 0 1-2.58.31ZM263 1071.52a2.51 2.51 0 0 1-1.06-.83 52 52 0 0 0-11.89-12 2.47 2.47 0 0 1-.65-3.52 2.69 2.69 0 0 1 3.61-.74 55.78 55.78 0 0 1 13.19 13.27 2.55 2.55 0 0 1-.64 3.56 2.69 2.69 0 0 1-2.56.26ZM250.24 1078.16a2.51 2.51 0 0 1-1.06-.83 51.86 51.86 0 0 0-11.89-12 2.48 2.48 0 0 1-.65-3.52 2.69 2.69 0 0 1 3.61-.75 56 56 0 0 1 13.19 13.27 2.53 2.53 0 0 1-.64 3.56 2.66 2.66 0 0 1-2.56.27Z"/>
            <path class="cls-10" d="M275.28 481.34c-11.39 16-13.49 536.16-13.49 536.16h78.51l30.46-543.88Z"/>
            <path class="cls-5" d="m426.89 1062.33-15.82-148.3 54.42-6.81 10.22 167.76-57.33-9.91 8.51-2.74z"/>
            <path d="M480.52 1049.48s-38.59 16.61-56.1-8.77L330.49 1091l161.17-2.64Z"/>
            <path class="cls-9" d="m330.32 1104.92 161.18-2.65.16-13.93-161.17 2.64-.17 13.94z"/>
            <path class="cls-1" d="M425 1062.27a2.51 2.51 0 0 1-1.06-.83 51.86 51.86 0 0 0-11.89-12 2.48 2.48 0 0 1-.65-3.52 2.69 2.69 0 0 1 3.61-.75 56 56 0 0 1 13.19 13.27 2.54 2.54 0 0 1-.64 3.56 2.69 2.69 0 0 1-2.56.27ZM412.21 1068.92a2.51 2.51 0 0 1-1.06-.83 51.79 51.79 0 0 0-11.89-12 2.48 2.48 0 0 1-.65-3.52 2.69 2.69 0 0 1 3.61-.74 55.84 55.84 0 0 1 13.19 13.26 2.54 2.54 0 0 1-.64 3.56 2.66 2.66 0 0 1-2.56.27ZM399.44 1075.56a2.51 2.51 0 0 1-1.06-.83 51.86 51.86 0 0 0-11.89-12 2.48 2.48 0 0 1-.65-3.52 2.68 2.68 0 0 1 3.61-.75 55.94 55.94 0 0 1 13.2 13.27 2.54 2.54 0 0 1-.65 3.56 2.68 2.68 0 0 1-2.56.27Z"/>
            <path class="cls-10" d="m347.85 536.46 57.01 480.57h81.47l-42.45-543.41-93.3 1.51-2.73 61.33z"/>
            <path class="cls-11" d="m361.69 651.54-11.11-90.29-26.49-15.72"/>
            <path class="cls-5" d="m182.94 304.97-47.87-158.99-32.93 6.28 20.31 148.33 60.49 4.38z"/>
            <path class="cls-5" d="M118.35 159.47s17.38 10.44 31.19-11l21.89-32.66a5.8 5.8 0 0 0-2.37-8.37 5.82 5.82 0 0 0-6.42.94l-15.28 13.41 11.26-50.09a6.29 6.29 0 0 0-5.42-7.9 6.3 6.3 0 0 0-6.67 4.39l-9.78 33.24-1.75.11 5.19-35.78a6.07 6.07 0 0 0-6.9-6.34 6.06 6.06 0 0 0-5.21 5.64l-7 35.34-2.14.36 1-32.18c.59-8.1-3.44-9-6.23-8.66-2.6.3-3.8 6.69-3.66 9.31l-3.23 34.15-2 .42-.22-30.42a4.37 4.37 0 0 0-6.15-2.91 4.36 4.36 0 0 0-2.39 4.79l-1 35.19s-8 34.92 7.51 43.24Z"/>
            <path d="M147.36 121.76s-19-2.61-28.62 13.45" style="stroke:#1c0001;stroke-width:.3px;stroke-linecap:round;stroke-linejoin:round;fill:none"/>
            <path class="cls-13" d="M286 201.16C212.54 226.8 136.75 279.6 126.74 296a40.42 40.42 0 0 0-5.74 20.83c-.19 31.34 33.07 51.6 60.83 37.06l76.22-36.81S312.18 192 286 201.16Z"/>
            <path class="cls-13" d="M124.18 333.12c-1.43-4.07-30.39-91.66-30.3-149.2L160 170s32.41 113.09 34.35 134.46Z"/>
            <path class="cls-11" d="m192.41 283.07-8.66-31.76"/>
            <path class="cls-13" d="M317.74 211.89s4-16.79-13.57-12.78-39.4 11.18-56.68 23.82c0 0 8.16 73.46 4.21 275.44 0 0 101.29 31.87 208.94-6.22L431.34 208s-33.13-25.2-68.86-11.71C354 199.47 327 212 317.74 211.89Z"/>
            <path class="cls-11" d="M252.05 319.99V268.8"/>
            <path class="cls-13" d="M325.94 191.84s.44-14.61 50.3-15.72c0 0 33.33-2 33.19-14.89 0 0 13.88 20.77-4.56 34.57 0 0 10.88 43.66-15.61 49.1-63.32 13-63.32-53.06-63.32-53.06Z"/>
            <path class="cls-13" d="M331.5 191.84s-.26-14.61-30.16-15.72c0 0-20-2-19.9-14.89 0 0-8.33 33 2.73 46.77 0 0-5.08 25.42 9.36 36.9 35.08 27.88 37.97-53.06 37.97-53.06Z"/>
            <path style="stroke:#ee9c2d;stroke-miterlimit:10;stroke-width:.66px;fill:none" d="M329.42 186.52v34.82"/>
            <path class="cls-11" d="M281.21 202.86a38.84 38.84 0 0 0 17.4 14.46M404.87 195.8s-14.47 17.75-30.38 21.52"/>
            <path class="cls-5" d="m434.73 528.29-6.5 29.23-20.91-48.55 23.24-3.74 4.17 23.06z"/>
            <path class="cls-5" d="m488.4 364.07-81.08 144.9 27.41 19.32 92.55-117.68-38.88-46.54z"/>
            <path class="cls-11" d="m407.32 508.97 27.41 65.56"/>
            <path class="cls-13" d="m412.31 305 48.33 99L421 480.28l39.62 37.44s87.55-94.57 89.71-132.59-95.12-187.29-145.46-189.33Z"/>
            <path class="cls-11" d="m449.11 380.36-44.24-90.63"/>
        </g>
    </g>
</svg>
