<svg xmlns="http://www.w3.org/2000/svg" xmlns:xlink="http://www.w3.org/1999/xlink" viewBox="0 0 1282.86 873.72"><defs><style>.cls-1,.cls-23,.cls-26,.cls-34,.cls-39,.cls-40,.cls-44{fill:none;}.cls-2{fill:#fff;}.cls-3{isolation:isolate;}.cls-4{clip-path:url(#clip-path);}.cls-5{fill:#183658;}.cls-6{fill:#1a1a1a;}.cls-7{fill:#9c9ba0;}.cls-8{fill:#d6d7db;}.cls-9{fill:#f7cc7f;}.cls-10{fill:#cd283c;}.cls-11{fill:#f1faff;}.cls-12{fill:#e8ae54;}.cls-13{fill:#fcb346;mix-blend-mode:multiply;opacity:0.5;}.cls-14{fill:#633205;}.cls-15{fill:#355389;}.cls-16{fill:#466eb6;}.cls-17{fill:#3a3a3a;}.cls-18{fill:#161616;}.cls-19{fill:#50bfa5;}.cls-20,.cls-28,.cls-43{fill:#8ab900;}.cls-21{fill:#422106;}.cls-22{fill:#184655;}.cls-23,.cls-39{stroke:#000;}.cls-23,.cls-34,.cls-39,.cls-41{stroke-linecap:round;stroke-linejoin:round;}.cls-23{stroke-width:0.58px;}.cls-24{clip-path:url(#clip-path-2);}.cls-25{clip-path:url(#clip-path-3);}.cls-26,.cls-44{stroke:#8ab900;}.cls-26,.cls-40,.cls-44{stroke-miterlimit:10;}.cls-26{stroke-width:2px;}.cls-27{fill:#444;}.cls-28{fill-rule:evenodd;}.cls-29{fill:#dc7f17;}.cls-30{fill:#632d09;}.cls-31,.cls-41{fill:#7a4108;}.cls-32{clip-path:url(#clip-path-4);}.cls-33{clip-path:url(#clip-path-5);}.cls-34,.cls-41{stroke:#1c0001;stroke-width:0.3px;}.cls-35{fill:#031800;}.cls-36{fill:#831900;}.cls-37{fill:#bb3f00;}.cls-38{fill:#1b7388;}.cls-39{stroke-width:0.59px;}.cls-40{stroke:#ee9c2d;stroke-width:0.66px;}.cls-42{fill:#5b5b5b;}.cls-43{opacity:0.59;}.cls-44{stroke-width:6px;}</style><clipPath id="clip-path" transform="translate(192.58)"><rect class="cls-1" y="388.97" width="1107.41" height="511.05"/></clipPath><clipPath id="clip-path-2" transform="translate(192.58)"><path class="cls-2" d="M970,345s0-3.23,5.55-2.76c4.95.42,5.51,2.89,5.51,2.89s-.68,4.29-6.11,4.37S970,345,970,345Z"/></clipPath><clipPath id="clip-path-3" transform="translate(192.58)"><path class="cls-2" d="M959.89,345s0-3.14-3.77-2.79c-3.41.32-3.83,2.71-3.83,2.71s.38,3.79,4.11,4S959.89,345,959.89,345Z"/></clipPath><clipPath id="clip-path-4" transform="translate(192.58)"><path class="cls-2" d="M422.51,333.56s-.05-3.56-6.13-3.05c-5.47.46-6.09,3.19-6.09,3.19s.76,4.74,6.75,4.84S422.51,333.56,422.51,333.56Z"/></clipPath><clipPath id="clip-path-5" transform="translate(192.58)"><path class="cls-2" d="M433.72,333.59s0-3.47,4.16-3.08c3.76.35,4.23,3,4.23,3s-.42,4.18-4.54,4.39S433.72,333.59,433.72,333.59Z"/></clipPath></defs><g class="cls-3"><g id="Layer_2" data-name="Layer 2"><g id="Layer_1-2" data-name="Layer 1"><g class="cls-4"><path class="cls-5" d="M-104,745.54S138.18,785.73,141.08,784s34.27-137.08,34.27-137.08-200.29-36-203.53-36S-75,645.75-75.57,648.07-104,745.54-104,745.54Z" transform="translate(192.58)"/><path class="cls-5" d="M634.8,779.92c5.8.58,299.13-5.7,299.13-5.7l-22.07-67.48s-40.66-61.49-62.15-60.37-149.31-19.6-171.36-4.3-41.81,3.1-52.27,39.69-18.61,40.69-10.46,62.75S634.8,779.92,634.8,779.92Z" transform="translate(192.58)"/><ellipse class="cls-6" cx="18.27" cy="769.63" rx="99.87" ry="99.84" transform="translate(-558.81 786.24) rotate(-89.88)"/><ellipse class="cls-7" cx="210.85" cy="769.63" rx="69.46" ry="69.49"/><ellipse class="cls-8" cx="210.85" cy="769.63" rx="46.46" ry="46.47"/><ellipse class="cls-6" cx="786.94" cy="769.63" rx="99.87" ry="99.84" transform="translate(208.19 1554.91) rotate(-89.88)"/><ellipse class="cls-7" cx="979.52" cy="769.63" rx="69.46" ry="69.49"/><ellipse class="cls-8" cx="979.52" cy="769.63" rx="46.46" ry="46.47"/><path class="cls-9" d="M1016.15,674.58c-8.44-55.65-35.72-67.34-116.44-83.49-89.06-17.81-202.13-75.89-202.13-75.89S504.74,420.71,457.5,409.87s-163.41-7.74-261-7S41.62,430.78-7.95,469.5s-135.53,68.16-135.53,68.16l-15.61,2.78a33.68,33.68,0,0,0-27.76,33.15V711.71A34.45,34.45,0,0,0-161.19,745l56.44,14.91h0a8.05,8.05,0,0,0,9.37-7.11c6.18-56.5,55-99.44,113.28-99.37,61.93.07,112.72,51,112.68,112.9a112.83,112.83,0,0,1-1.89,20.6,11.21,11.21,0,0,0,11,13.25H659.14a16.7,16.7,0,0,0,16.59-18.87,115,115,0,0,1-1-14.71c-.18-61.17,49.29-111.89,110.45-113.15a112.83,112.83,0,0,1,115.21,112.8,114.82,114.82,0,0,1-.67,12.37,19.37,19.37,0,0,0,19.2,21.56h74.69a24.58,24.58,0,0,0,24.59-24.58V703.26A191.19,191.19,0,0,0,1016.15,674.58Z" transform="translate(192.58)"/><path class="cls-10" d="M-183.55,589.93H-122a7.38,7.38,0,0,1,6.8,10.23l-6.91,16.49a42.29,42.29,0,0,1-39,25.94h-22.39a7.93,7.93,0,0,1-7.94-7.93V597.87A7.93,7.93,0,0,1-183.55,589.93Z" transform="translate(192.58)"/><path class="cls-11" d="M918.3,615.49c33.88,5.19,72.89,37.27,72.89,37.27,9.33,10,1.62,26.29-12,25.43l-66-4.18a32.6,32.6,0,0,1-29.25-23.45h0C877.43,628.37,882.89,610.07,918.3,615.49Z" transform="translate(192.58)"/><path class="cls-12" d="M-186.49,716.85a5.93,5.93,0,0,0-5.67,8.09,38.57,38.57,0,0,0,26,23.08l63.24,16.71a9,9,0,0,0,10.5-8,122.39,122.39,0,0,1,7.46-30.65,5.08,5.08,0,0,0-4.63-6.9Z" transform="translate(192.58)"/><path class="cls-12" d="M900.92,742.88a7.8,7.8,0,0,0-7.9,8.86,126.06,126.06,0,0,1,.29,29.89,21.5,21.5,0,0,0,21.31,23.94H997.5a27.29,27.29,0,0,0,27.29-27.29V756.83a11.21,11.21,0,0,0-10.94-11.2Z" transform="translate(192.58)"/><path class="cls-13" d="M697.72,547.18c-1.1-.61-110.89-60.85-183.7-94.57-72.09-33.39-152.56-29.85-156-29.67-9.25-.21-201.77-4.39-261,14.06C37.41,455.58-40.25,540.24-43.52,543.83l-.91,1,20.88,98,2.24-.12c60.73-3.43,107.22,12.73,134.43,46.73,20.57,25.71,23.11,52.86,23.13,53.13l.2,2.33,219,5.63h0l2.53.05,2.7.07v0l305.09,6,0-2.62C667.3,654.8,698.64,551.26,699,550.23l.62-2ZM141.18,739.77c-1.05-7.35-5.67-30.62-23.8-53.39-19.54-24.54-59.1-52.83-136.74-49l-19.39-91c9-9.66,82.44-87.27,137.34-104.38s233.3-14.32,256.82-13.88V745.28Zm519.41,11.48-300-5.86V428.07c14.11-.41,86.16-.83,151.18,29.28,67.45,31.25,166.79,85.33,181.54,93.39C689,565.69,662.47,659.88,660.59,751.25Z" transform="translate(192.58)"/><path class="cls-13" d="M-192.16,724.94a38.57,38.57,0,0,0,26,23.08l63.24,16.71a9,9,0,0,0,10.5-8q.69-6.21,2-12.19Z" transform="translate(192.58)"/><path class="cls-13" d="M893.91,773.79c-.12,2.63-.31,5.25-.6,7.84a21.5,21.5,0,0,0,21.31,23.94H997.5a27.29,27.29,0,0,0,27.29-27.29v-4.49Z" transform="translate(192.58)"/><path class="cls-12" d="M679.63,773.79a113.19,113.19,0,0,1,1.18-16.67,11,11,0,0,0-10.54-12.64L130,731.29a8.7,8.7,0,0,0-8.53,11.15,114,114,0,0,1,4.3,31.07,115.69,115.69,0,0,1-1.91,20.86A11.44,11.44,0,0,0,135.09,808H663.75a17.08,17.08,0,0,0,16.86-19.46A115.28,115.28,0,0,1,679.63,773.79Z" transform="translate(192.58)"/><path class="cls-13" d="M679.63,773.79v-.28H125.79a115.69,115.69,0,0,1-1.91,20.86A11.44,11.44,0,0,0,135.09,808H663.75a17.08,17.08,0,0,0,16.86-19.46A115.28,115.28,0,0,1,679.63,773.79Z" transform="translate(192.58)"/><rect class="cls-12" x="200.07" y="574.66" width="73.19" height="11.81" rx="3.67"/><rect class="cls-12" x="571.67" y="580.57" width="73.19" height="11.81" rx="3.67"/><path class="cls-5" d="M20.38,556.44l298.56,2.82s18.28-.49,20.76-17.69S342,450.73,342,450.73s-2.17-14.79-16.33-15c-8.61-.12-80.74-5.27-150.9,3.28A256.77,256.77,0,0,0,24.44,512.29l-21.2,21.2S-11,556.14,20.38,556.44Z" transform="translate(192.58)"/><path class="cls-5" d="M375.22,460.07v77.22A18.43,18.43,0,0,0,392.65,556l234.6,9.44A15.8,15.8,0,0,0,641,558.62c4.21-6.21,4.7-16.42-16.32-30.11-36.56-23.8-129.57-75.29-164-80.27-21.9-3.17-50.56-4.55-68.49-5.13A16.71,16.71,0,0,0,375.22,460.07Z" transform="translate(192.58)"/></g><path class="cls-14" d="M963.87,435.44c-3.65-3-31.9,9.46-31.54,13.79s-19.71,46.29-19.71,46.29L878,467.78h0c-.31-1-3.59-11.8-3.75-13.73s-6-5.56-8.75-5,2.33,4,2.66,4.57c.9,1.72-2.59,2.36-2.59,2.36s-10-5.52-10.23-8.76-2.28-10.05-4.45-8.63c-1.11.74-1.1,5.56-.76,7.85-.64-2.6-1.55-5.53-2.44-5.82-1.62-.54-2.42,1.53-2.13,2.55s2.91,12.05,3.71,13.29,16.95,14.3,19.29,17.14c0,0,44.85,51.45,48,52.79,2.8,1.18,12.8-16.55,22.24-28.32S975.28,444.75,963.87,435.44Z" transform="translate(192.58)"/><path class="cls-14" d="M1054.37,813.76s6.17,6,6.31,8.25.54,25.94-2,28.15-9.91,3.79-7.54,6.28c1.8,1.88,15.62,1.48,24.77,1,2.68-.14,6-21.54,7.09-24.69,1.53-4.57,5.27-14.86,3.88-18-.68-1.55-3.94-4.74-8.53-7.71-4.84-3.13-9.46-10.1-9.46-10.1Z" transform="translate(192.58)"/><path class="cls-14" d="M990.52,827.81s5.52,15.64,5.53,15.68c.41,2.47,2,8.59,2,10.84,0,8.46-38-7.18-29.5-10.93a9.07,9.07,0,0,0,3.45-5.92c.39-4.44-3.21-10-3.21-10Z" transform="translate(192.58)"/><path class="cls-15" d="M930.88,536.67s-2.77,28-2.77,28.45c0,45.34-9,133.9-7.26,142.42,4.16,20.8,48.88,126.86,48.88,126.86l24.18-2.9-31.5-127L974,653.4l16.4-101Z" transform="translate(192.58)"/><path class="cls-16" d="M1012,561.46l4.58,26.57L1029,697.36l47.26,106.85s-6.64,15.55-16.45,17.73l-75.22-109.7L937.86,571.86l1.64-31.19Z" transform="translate(192.58)"/><path class="cls-17" d="M921.24,469.93l33.52,3.44s1.53-27.58,1.53-40.73c0-16-1.35-36.51-3.27-36.07-5.39,1.24-12.65,4.23-17,10.19C921.09,427.38,921.24,469.93,921.24,469.93Z" transform="translate(192.58)"/><path class="cls-18" d="M937.7,429.83C937,434.69,924.12,567,924.12,567c61,29.58,94.71,5.27,94.71,5.27s-2-92.88.39-105.52c1.59-8.37,3.56-63.95-1.84-65.5a134.41,134.41,0,0,0-23.54-5c-7.4-.77-36.12-1.22-41.26.51A65.82,65.82,0,0,0,937.7,429.83Z" transform="translate(192.58)"/><path class="cls-19" d="M1078.08,806.82s-14.21,40.13-19.77,42.07c-1.48.51-8.56,1.82-9.9,5-.4.95,0,4.11,0,4.11H1078s3.75-17.68,5.23-25.45c0,0,7.83-19,7-20.71S1078.08,806.82,1078.08,806.82Z" transform="translate(192.58)"/><path class="cls-19" d="M1000.23,857.13l-4.35-13.81s-9.14,3.89-13.72,3.24a138.41,138.41,0,0,1-13.49-3.24c-18.25,6-33.2,9-30.49,13.81h62.05Z" transform="translate(192.58)"/><path class="cls-14" d="M916.53,526.36a8,8,0,0,1-.92-.69c1.09-12.95.89-25.51-3.16-29.76.1-.2,1-2.09,1.91-4.05,4.69,3.65,6.93,13.33,6,29a26.5,26.5,0,0,1-.62,3.26C918.43,525.67,917.19,526.64,916.53,526.36Z" transform="translate(192.58)"/><path class="cls-14" d="M1079.28,568.36a4,4,0,0,0,0-.85c-.9-9.16-8.48-86.08-9.75-89.35-1.16-3-35.15-51.73-35.15-51.73l-16.71,22.84L1050.37,493c.74,2.78,12.53,54.71,12.53,54.71s2.42,9.46,3.5,15.13c-.49,1.37-1,2.66-1.41,3.71a34.15,34.15,0,0,1-3.52,5.69,38.31,38.31,0,0,0-4.17,7.4c-.35,1.34-1,4.12-1.33,5.79s-.83,3.63-.92,4.54a8.42,8.42,0,0,1-1,2.43,1.47,1.47,0,0,0,1.72,2.12c1.19-.4,2.11-1.94,2.68-2.9,1.61-2.72,2.47-7.67,2.87-7.41s1.81,8.67,2,9.62,1.92,10.71,2.87,12.49,2.22,1.49,2.55.37c.29-1-1-14.62-1-14.62s-.17-1.74.59-1.2,2,13,2.53,14.76,1.74,2.78,2.76,1.32c1.24-1.78-.9-14.93-.9-14.93s-.23-1.65.47-1.49,1.58,10.72,2.13,11.63a1.39,1.39,0,0,0,2.59-.28c.78-1.8-1.23-13.52-1.23-13.52s.1-.93.53-.62,1.84,9.26,2.74,10.09a1,1,0,0,0,1.4,0c1.67-1.14-.89-9.66-.86-13.89s-1.93-9-1.35-14C1079.11,569.63,1079.21,568.85,1079.28,568.36Z" transform="translate(192.58)"/><path class="cls-17" d="M1061,457.32l-29,19.57s-16.37-24.44-25.15-33.14c-11-10.9,4-44.29,11.1-42.4C1033.72,405.58,1061,457.32,1061,457.32Z" transform="translate(192.58)"/><path class="cls-20" d="M967.22,394.79a1.22,1.22,0,0,0,.6-.75l-.09.38a177.5,177.5,0,0,0-3.91,24.34c-.69,8.42-.86,17,1.15,25.3l-.7-.31c10-5.84,17-15.59,23-25.23a102.35,102.35,0,0,0,7.82-15.28,20.17,20.17,0,0,0,1.62-5.82s0,0,0,0,0,0,0,0l0,.12c0,.07.14.14.09.12h0c-2.22-1.11-5.2-1.29-7.79-1.61-3.77-.36-7.62-.55-11.46-.67-3-.05-7.88-.19-10.84-.19h-.63a1.82,1.82,0,0,0,1.14-.45Zm-2.53-3.1a3.09,3.09,0,0,1,2-.48l2.2-.06a166.91,166.91,0,0,1,20.6.75c3.22.53,11.07.88,11.21,5.35-.33,4.56-2.83,8.77-4.78,12.77-7.23,13.06-17.51,27.88-31.17,34.62l-.52.3-.19-.6c-2.54-8.32-2.89-17.1-2.69-25.72a183.49,183.49,0,0,1,2.4-24.19,4.82,4.82,0,0,1,1-2.74Z" transform="translate(192.58)"/><path class="cls-14" d="M991.7,367.59l4.35,28.73s-15.87,34.2-25.33,31.23c-8-2.49-3.06-32.75-3.06-32.75s4.33-16.25,3-24.38S991.7,367.59,991.7,367.59Z" transform="translate(192.58)"/><path class="cls-21" d="M970.69,370.42c-1.3-8.14,21-2.83,21-2.83l.36,2.38a13.17,13.17,0,0,1-2.42,4,29.29,29.29,0,0,1-19.5,8.85C970.81,378.45,971.22,373.75,970.69,370.42Z" transform="translate(192.58)"/><path class="cls-14" d="M994.91,325.73c.73-.26,4.53,34-5.32,43.78s-28.51,13.49-34.9,6.25c-7.06-8-5.39-45,9.75-55.26S994.91,325.73,994.91,325.73Z" transform="translate(192.58)"/><path class="cls-22" d="M973.26,303.37a36.26,36.26,0,0,1,19,10.89c4.58.54,10.8,3.08,17.23,13.76,7.91,13.14,2.07,27.69-7.13,34.83s-9.08,15.39-9.08,15.39L991.86,374a23.81,23.81,0,0,1-1.15-10.05,19.82,19.82,0,0,1,1.48-6c2.22-4.77-4.75-7.93-6.7-11.9-1.51-3.06-1.58-10-4-15.09L978.71,327s-6.53-5.1-12.92-3.66S960.32,300.72,973.26,303.37Z" transform="translate(192.58)"/><path class="cls-14" d="M985.91,351.84c-.06,4,1.76,7.31,4.07,7.35s4.24-3.18,4.31-7.2-1.75-7.31-4.07-7.35S986,347.82,985.91,351.84Z" transform="translate(192.58)"/><path class="cls-2" d="M972.28,361.13l-12.65-.66s0,4.84,5.6,5.29C972,366.31,972.28,361.13,972.28,361.13Z" transform="translate(192.58)"/><polyline class="cls-23" points="1155.29 348.28 1153.22 353.47 1156.23 355.14"/><path class="cls-2" d="M970,345s0-3.23,5.55-2.76c4.95.42,5.51,2.89,5.51,2.89s-.68,4.29-6.11,4.37S970,345,970,345Z" transform="translate(192.58)"/><g class="cls-24"><path d="M978.2,345.46c0,2.29-1.58,4.13-3.48,4.11s-3.42-1.89-3.4-4.18,1.58-4.13,3.48-4.11S978.22,343.17,978.2,345.46Z" transform="translate(192.58)"/></g><path d="M969.57,343.49c3.4-2.83,9.48-2.7,11.66,1.52.09.18-.19.31-.28.13-2.13-3.76-7.76-3.65-10.7-1-.45.5-1.19-.23-.68-.68Z" transform="translate(192.58)"/><path class="cls-2" d="M959.89,345s0-3.14-3.77-2.79c-3.41.32-3.83,2.71-3.83,2.71s.38,3.79,4.11,4S959.89,345,959.89,345Z" transform="translate(192.58)"/><g class="cls-25"><path d="M953.55,345.35c0,2.23,1.09,4,2.49,4.06s2.55-1.78,2.57-4-1.09-4-2.49-4.06S953.57,343.12,953.55,345.35Z" transform="translate(192.58)"/></g><path d="M959.66,344.11c-2.06-2.82-5.93-2.51-7.26.83,0,.15-.29.07-.23-.08,1.26-3.79,5.76-4.21,8.15-1.19a.4.4,0,1,1-.66.44Z" transform="translate(192.58)"/><path d="M976.51,331.51a16.79,16.79,0,0,1,5.84,1.42c1.9,1,1.8,2.85.19,3.7-1,.53-3.9.8-5.86.71-6.16-.3-7.25-2.25-7.11-3.72C969.78,331.56,974,331.26,976.51,331.51Z" transform="translate(192.58)"/><path d="M954.68,331.61a12.09,12.09,0,0,0-4.67,1.57c-1.56,1.05-1.62,2.84-.43,3.61a8.25,8.25,0,0,0,4.52.49c4.95-.92,5.83-2.43,5.83-3.85C959.93,331.43,956.68,331.28,954.68,331.61Z" transform="translate(192.58)"/><path class="cls-2" d="M974.63,478,950,474a1.4,1.4,0,0,1-1.17-1.53l2.73-26.11a1.39,1.39,0,0,1,1.39-1.25h23.79a1.4,1.4,0,0,1,1.4,1.49l-1.86,30A1.4,1.4,0,0,1,974.63,478Z" transform="translate(192.58)"/><path class="cls-26" d="M974.14,477.87l-23.74-3.76a1.87,1.87,0,0,1-1.56-2l2.64-25.27a1.85,1.85,0,0,1,1.85-1.66h22.9a1.85,1.85,0,0,1,1.85,2l-1.8,29A1.85,1.85,0,0,1,974.14,477.87Z" transform="translate(192.58)"/><path d="M955.36,447.19l-.57,1,0,.46-.41,0,0-.46-.45-1,.47,0,.22.57.29-.54Z" transform="translate(192.58)"/><path d="M955.72,448.59a.75.75,0,0,1-.25-.28.76.76,0,0,1-.08-.4.69.69,0,0,1,.13-.37.64.64,0,0,1,.29-.25.68.68,0,0,1,.38-.07.77.77,0,0,1,.37.12.68.68,0,0,1,.25.28.74.74,0,0,1,.07.39.64.64,0,0,1-.12.38.71.71,0,0,1-.29.25.78.78,0,0,1-.38.07A.81.81,0,0,1,955.72,448.59Zm.65-.34a.39.39,0,0,0,.1-.27.37.37,0,0,0-.07-.28.36.36,0,0,0-.49,0,.47.47,0,0,0-.11.27.41.41,0,0,0,.08.28.28.28,0,0,0,.24.11A.32.32,0,0,0,956.37,448.25Z" transform="translate(192.58)"/><path d="M957.51,447.32l0,.85a.21.21,0,0,0,0,.18.21.21,0,0,0,.16.08.24.24,0,0,0,.17-.06.24.24,0,0,0,.07-.17l.06-.85.4,0-.05.84a.68.68,0,0,1-.11.34.52.52,0,0,1-.24.2.88.88,0,0,1-.33.05.75.75,0,0,1-.31-.09.58.58,0,0,1-.21-.23.65.65,0,0,1-.06-.35l.06-.84Z" transform="translate(192.58)"/><path d="M959,447.76a.53.53,0,0,1,.27-.24.79.79,0,0,1,.38-.08.73.73,0,0,1,.45.18.66.66,0,0,1,.22.41l-.44,0a.32.32,0,0,0-.1-.13.33.33,0,0,0-.39,0,.43.43,0,0,0-.1.26.47.47,0,0,0,.07.28.25.25,0,0,0,.22.11.22.22,0,0,0,.16,0,.34.34,0,0,0,.12-.12l.43,0a.64.64,0,0,1-.26.38.79.79,0,0,1-.84,0,.6.6,0,0,1-.24-.28.74.74,0,0,1-.07-.39A.78.78,0,0,1,959,447.76Z" transform="translate(192.58)"/><path d="M961.38,448.79l-.51,0-.09.23-.43,0,.62-1.43.47,0,.44,1.49-.43,0Zm-.08-.31-.12-.48-.19.46Z" transform="translate(192.58)"/><path d="M963.36,449.16l-.41,0-.49-.85-.05.82-.4,0,.09-1.46.4,0,.49.86,0-.83.41,0Z" transform="translate(192.58)"/><path d="M965.17,447.81l0,.32-.39,0-.07,1.13-.4,0,.07-1.13-.39,0,0-.33Z" transform="translate(192.58)"/><path d="M965.73,447.84l-.1,1.46-.4,0,.09-1.45Z" transform="translate(192.58)"/><path d="M967,448.65a.42.42,0,0,1-.19.16.62.62,0,0,1-.31.05h-.2l0,.49-.4,0,.09-1.45.6,0a.56.56,0,0,1,.3.08.42.42,0,0,1,.17.18.55.55,0,0,1,.05.26A.45.45,0,0,1,967,448.65Zm-.34-.26c0-.1,0-.16-.16-.17h-.16l0,.32h.16C966.6,448.54,966.66,448.5,966.66,448.39Z" transform="translate(192.58)"/><path d="M969.36,448.07l-.09,1.46-.4,0,0-.81-.33.79-.34,0-.22-.83,0,.81-.41,0,.1-1.45.48,0,.31,1,.42-.93Z" transform="translate(192.58)"/><path d="M970,448.44l0,.24.47,0,0,.3-.47,0v.27l.52,0,0,.32-.93-.05.09-1.46.94.06,0,.32Z" transform="translate(192.58)"/><path d="M972.54,448.28l-.6,1.42-.52,0-.41-1.49.44,0,.26,1.07.4-1Z" transform="translate(192.58)"/><path d="M973.07,448.31l-.09,1.46-.41,0,.09-1.46Z" transform="translate(192.58)"/><path d="M974.14,449.6l-.51,0-.1.23-.42,0,.62-1.42.47,0,.43,1.49-.42,0Zm-.08-.32-.13-.48-.18.47Z" transform="translate(192.58)"/><path d="M953.77,451.8a1,1,0,0,1-.34-.79l1,.06a.39.39,0,0,0,.09.26.37.37,0,0,0,.22.09.31.31,0,0,0,.2-.05.19.19,0,0,0,.09-.17.22.22,0,0,0-.11-.22,2.08,2.08,0,0,0-.42-.2c-.21-.09-.37-.17-.5-.24a1,1,0,0,1-.32-.31.79.79,0,0,1-.11-.5.89.89,0,0,1,.19-.52.85.85,0,0,1,.45-.31,1.61,1.61,0,0,1,.63-.08,1.46,1.46,0,0,1,.88.32,1,1,0,0,1,.31.76l-1-.06a.34.34,0,0,0-.08-.23.29.29,0,0,0-.21-.08.21.21,0,0,0-.17.05.2.2,0,0,0-.07.16.17.17,0,0,0,.06.16.59.59,0,0,0,.17.13l.3.14a3.2,3.2,0,0,1,.49.24,1.08,1.08,0,0,1,.33.31.82.82,0,0,1,.11.48.87.87,0,0,1-.18.5,1,1,0,0,1-.44.34,1.63,1.63,0,0,1-.65.09A1.45,1.45,0,0,1,953.77,451.8Z" transform="translate(192.58)"/><path d="M958.8,450.74a1,1,0,0,1-.43.36,1.55,1.55,0,0,1-.67.1l-.45,0-.06,1.09-.9-.06.21-3.22,1.33.09a1.38,1.38,0,0,1,.65.17,1,1,0,0,1,.39.41,1.17,1.17,0,0,1,.1.56A1.07,1.07,0,0,1,958.8,450.74Zm-.74-.58c0-.24-.11-.36-.36-.38l-.36,0,0,.7.36,0C957.91,450.5,958,450.39,958.06,450.16Z" transform="translate(192.58)"/><path d="M959.92,452.25a1.58,1.58,0,0,1-.73-1.49,1.67,1.67,0,0,1,.27-.84,1.61,1.61,0,0,1,.64-.55,1.71,1.71,0,0,1,.84-.16,1.63,1.63,0,0,1,.82.27,1.53,1.53,0,0,1,.56.62,1.66,1.66,0,0,1,.17.86,1.59,1.59,0,0,1-.28.84,1.52,1.52,0,0,1-.63.55,1.62,1.62,0,0,1-.85.16A1.72,1.72,0,0,1,959.92,452.25Zm1.42-.76a1,1,0,0,0,.08-1.2.77.77,0,0,0-1.09-.07.91.91,0,0,0-.23.59.88.88,0,0,0,.16.62.69.69,0,0,0,.53.25A.66.66,0,0,0,961.34,451.49Z" transform="translate(192.58)"/><path d="M965.41,449.55l0,.71-.86-.06-.16,2.51-.89-.06.16-2.5-.85-.06,0-.71Z" transform="translate(192.58)"/><path d="M968.05,451.32a.9.9,0,0,1-.43.36,1.29,1.29,0,0,1-.67.1l-.44,0-.07,1.08-.9,0,.21-3.22,1.33.08a1.51,1.51,0,0,1,.65.18.91.91,0,0,1,.39.41,1.12,1.12,0,0,1,.1.56A1,1,0,0,1,968.05,451.32Zm-.74-.58c0-.23-.11-.36-.36-.37l-.35,0-.05.69.36,0C967.16,451.08,967.29,451,967.31,450.74Z" transform="translate(192.58)"/><path d="M970.51,452.57l-1.14-.07-.2.52-.94-.06,1.37-3.15,1,.07,1,3.29-1-.06Zm-.18-.7-.28-1.06-.41,1Z" transform="translate(192.58)"/><path d="M975,450.16l-1.27,2.12-.07,1-.89-.06.06-1-1-2.26,1,.06.49,1.28.64-1.21Z" transform="translate(192.58)"/><path class="cls-20" d="M959.06,473.34l-.16,0a.37.37,0,0,1-.12-.07.23.23,0,0,1-.07-.1.37.37,0,0,1,0-.15h.14a.38.38,0,0,0,.06.16.39.39,0,0,0,.36,0,.19.19,0,0,0,.07-.12.19.19,0,0,0,0-.08s0,0,0-.05l-.09,0-.09,0-.13,0-.1-.06a.24.24,0,0,1-.08-.09.44.44,0,0,1,0-.13.53.53,0,0,1,0-.12.3.3,0,0,1,.08-.08.22.22,0,0,1,.11-.05.38.38,0,0,1,.15,0,.36.36,0,0,1,.26.1.29.29,0,0,1,.09.23h-.14s0-.05,0-.07a.09.09,0,0,0,0-.06.18.18,0,0,0-.07-.05l-.1,0a.19.19,0,0,0-.15,0,.11.11,0,0,0-.06.11.08.08,0,0,0,0,.07.12.12,0,0,0,.05.05l.07,0,.09,0,.13,0,.11.05a.2.2,0,0,1,.09.09.2.2,0,0,1,0,.14.26.26,0,0,1-.11.21.31.31,0,0,1-.12.05A.44.44,0,0,1,959.06,473.34Z" transform="translate(192.58)"/><path class="cls-20" d="M959.94,473.39l-.16,0-.1-.09,0,.35h-.13l.06-1h.13v.1a.35.35,0,0,1,.12-.07.34.34,0,0,1,.15,0,.33.33,0,0,1,.15,0,.31.31,0,0,1,.11.09.32.32,0,0,1,.08.12.78.78,0,0,1,0,.16.83.83,0,0,1,0,.15.31.31,0,0,1-.09.11l-.12.08Zm0-.65h-.11l-.08.05a.21.21,0,0,0-.06.08.23.23,0,0,0,0,.11.34.34,0,0,0,0,.1l0,.09.08.06a.2.2,0,0,0,.11,0,.18.18,0,0,0,.1,0l.09-.05.06-.08a.3.3,0,0,0,0-.1.31.31,0,0,0,0-.1.19.19,0,0,0-.05-.09.16.16,0,0,0-.08-.06A.17.17,0,0,0,960,472.74Z" transform="translate(192.58)"/><path class="cls-20" d="M960.82,472.67l.15,0a.27.27,0,0,1,.12.09.33.33,0,0,1,.07.13.26.26,0,0,1,0,.15.4.4,0,0,1,0,.15l-.09.12-.13.07a.29.29,0,0,1-.16,0,.26.26,0,0,1-.15,0,.27.27,0,0,1-.12-.09.29.29,0,0,1-.07-.12.29.29,0,0,1,0-.16.4.4,0,0,1,0-.15l.09-.11a.35.35,0,0,1,.13-.08Zm0,.12h-.1a.26.26,0,0,0-.09.05l-.06.09a.29.29,0,0,0,0,.1.43.43,0,0,0,0,.11.2.2,0,0,0,0,.08l.08.07.11,0a.17.17,0,0,0,.1,0l.09-.05.06-.08,0-.11a.36.36,0,0,0,0-.1.19.19,0,0,0,0-.09.13.13,0,0,0-.07-.06A.23.23,0,0,0,960.81,472.79Z" transform="translate(192.58)"/><path class="cls-20" d="M961.66,472.74v.11h-.19l0,.39a.13.13,0,0,0,0,.06.05.05,0,0,0,0,0l0,0h.12v.11h-.07l-.1,0-.08,0a.2.2,0,0,1,0-.08.36.36,0,0,1,0-.11l0-.39h-.11v-.11h.11v-.21h.13l0,.2Z" transform="translate(192.58)"/><path class="cls-27" d="M961.89,473.16l0,.34h-.15l.07-1.05.38,0a.29.29,0,0,1,.16,0l.11.08a.24.24,0,0,1,.07.12.32.32,0,0,1,0,.14.37.37,0,0,1,0,.14.76.76,0,0,1-.08.11.52.52,0,0,1-.13.06.36.36,0,0,1-.15,0Zm0-.57,0,.44h.23a.16.16,0,0,0,.1,0l.08,0,.05-.06a.29.29,0,0,0,0-.09.28.28,0,0,0,0-.09.16.16,0,0,0,0-.07l-.07-.05a.16.16,0,0,0-.1,0Z" transform="translate(192.58)"/><path class="cls-27" d="M963.23,473.48a.35.35,0,0,1-.12.07.38.38,0,0,1-.16,0l-.15,0-.12-.09a.64.64,0,0,1-.08-.14.68.68,0,0,1,0-.15.75.75,0,0,1,0-.16l.1-.12a.29.29,0,0,1,.12-.07.41.41,0,0,1,.16,0,.43.43,0,0,1,.16.05l.11.08v-.1h.13l0,.77h-.13Zm-.23-.57h-.11l-.09.06a.24.24,0,0,0-.06.08.24.24,0,0,0,0,.21.13.13,0,0,0,0,.09.27.27,0,0,0,.08.07l.1,0,.11,0a.19.19,0,0,0,.09-.05l.07-.08a.43.43,0,0,0,0-.11.21.21,0,0,0,0-.11.41.41,0,0,0,0-.09.2.2,0,0,0-.09-.06A.17.17,0,0,0,963,472.91Z" transform="translate(192.58)"/><path class="cls-27" d="M963.88,473.6s0,.09-.07.13l-.08.08a.19.19,0,0,1-.1.05h-.15v-.12h0a.28.28,0,0,0,.13,0,.41.41,0,0,0,.09-.12l-.26-.77h.15l.19.59.24-.57h.14Z" transform="translate(192.58)"/><path class="cls-28" d="M962.64,472a.37.37,0,0,1,0-.23.4.4,0,0,1,.79.05.43.43,0,0,1-.09.22h0l-.36.53-.29-.57Zm.32.09a.3.3,0,1,1,.31-.28.3.3,0,0,1-.31.28Z" transform="translate(192.58)"/><rect class="cls-2" x="955.05" y="454.61" width="16.54" height="16.54" transform="translate(223.8 -60.03) rotate(3.63)"/><rect x="956.26" y="455.2" width="4.92" height="4.92" transform="translate(633.9 1385.5) rotate(-86.37)"/><polygon class="cls-2" points="1153.92 455.36 1154.62 455.4 1154.57 456.1 1155.27 456.15 1155.23 456.85 1154.53 456.81 1154.48 457.51 1155.18 457.55 1155.23 456.85 1155.93 456.89 1155.89 457.6 1156.59 457.64 1156.5 459.04 1155.8 459 1155.71 460.4 1155.01 460.36 1155.05 459.66 1154.35 459.61 1154.26 461.01 1155.66 461.1 1155.62 461.81 1154.92 461.76 1154.87 462.46 1154.17 462.42 1154.13 463.12 1153.43 463.07 1153.47 462.37 1152.77 462.33 1152.81 461.63 1153.52 461.67 1153.56 460.97 1152.16 460.88 1152.07 462.28 1152.77 462.33 1152.72 463.03 1153.43 463.07 1153.38 463.78 1151.98 463.69 1152.02 462.99 1150.62 462.9 1150.58 463.6 1151.28 463.64 1151.23 464.34 1154.04 464.52 1153.99 465.22 1154.7 465.27 1154.65 465.97 1153.95 465.93 1153.91 466.63 1154.61 466.67 1154.56 467.37 1155.26 467.42 1155.13 469.52 1154.43 469.48 1154.38 470.18 1152.98 470.09 1153.29 465.18 1148.38 464.87 1148.47 463.46 1149.17 463.51 1149.13 464.21 1149.83 464.25 1150.01 461.45 1149.31 461.4 1149.26 462.11 1148.56 462.06 1148.69 459.96 1153.61 460.27 1153.92 455.36"/><rect x="962.01" y="455.42" width="0.7" height="0.7" transform="translate(639.19 1387.37) rotate(-86.37)"/><rect class="cls-2" x="963.07" y="455.14" width="0.7" height="1.41" transform="translate(640.11 1388.48) rotate(-86.37)"/><polygon points="1156.72 455.54 1158.13 455.63 1157.9 459.13 1157.2 459.09 1157.16 459.79 1156.45 459.75 1156.32 461.85 1157.02 461.89 1156.98 462.6 1155.58 462.51 1155.53 463.21 1154.13 463.12 1154.17 462.42 1154.87 462.46 1154.92 461.76 1155.62 461.81 1155.66 461.1 1154.26 461.01 1154.35 459.61 1155.05 459.66 1155.01 460.36 1155.71 460.4 1155.8 459 1156.5 459.04 1156.59 457.64 1157.29 457.69 1157.38 456.28 1156.68 456.24 1156.72 455.54"/><polygon class="cls-2" points="1158.13 455.63 1158.83 455.67 1158.52 460.58 1163.42 460.89 1163.38 461.59 1162.68 461.55 1162.59 462.95 1160.49 462.82 1160.58 461.42 1159.87 461.37 1159.69 464.18 1160.4 464.22 1160.31 465.62 1161.01 465.67 1161.05 464.97 1162.46 465.06 1162.5 464.35 1161.8 464.31 1161.84 463.61 1162.55 463.65 1162.59 462.95 1163.29 463 1162.94 468.61 1161.53 468.52 1161.62 467.12 1160.92 467.07 1160.96 466.37 1159.56 466.28 1159.65 464.88 1158.25 464.79 1158.2 465.49 1158.9 465.53 1158.86 466.24 1156.76 466.1 1156.71 466.8 1157.41 466.85 1157.37 467.55 1156.67 467.5 1156.62 468.21 1155.92 468.16 1155.97 467.46 1155.26 467.42 1155.31 466.71 1154.61 466.67 1154.65 465.97 1156.06 466.06 1156.1 465.36 1157.5 465.44 1157.63 463.34 1158.34 463.39 1158.29 464.09 1158.99 464.13 1159.17 461.33 1158.47 461.28 1158.38 462.68 1156.98 462.6 1157.02 461.89 1156.32 461.85 1156.45 459.75 1157.16 459.79 1157.07 461.19 1157.77 461.24 1157.86 459.83 1157.16 459.79 1157.2 459.09 1157.9 459.13 1158.13 455.63"/><rect x="966.08" y="455.82" width="4.92" height="4.92" transform="translate(642.48 1395.88) rotate(-86.37)"/><rect class="cls-2" x="956.97" y="455.9" width="3.51" height="3.51" transform="translate(633.9 1385.5) rotate(-86.37)"/><polygon points="1155.27 456.15 1156.68 456.24 1156.59 457.64 1155.89 457.6 1155.93 456.89 1155.23 456.85 1155.27 456.15"/><rect class="cls-2" x="963.7" y="456.61" width="1.41" height="0.7" transform="translate(639.91 1390.52) rotate(-86.37)"/><rect class="cls-2" x="966.79" y="456.52" width="3.51" height="3.51" transform="translate(642.48 1395.88) rotate(-86.37)"/><rect x="957.67" y="456.6" width="2.11" height="2.11" transform="translate(633.9 1385.5) rotate(-86.37)"/><rect x="961.92" y="456.83" width="0.7" height="0.7" transform="translate(637.7 1388.6) rotate(-86.37)"/><rect x="967.49" y="457.23" width="2.11" height="2.11" transform="translate(642.48 1395.88) rotate(-86.37)"/><rect x="961.84" y="458.23" width="0.7" height="0.7" transform="translate(636.22 1389.82) rotate(-86.37)"/><rect x="964.18" y="460.16" width="1.41" height="0.7" transform="translate(636.82 1394.32) rotate(-86.37)"/><polygon points="1152.16 460.88 1153.56 460.97 1153.52 461.67 1152.81 461.63 1152.77 462.33 1152.07 462.28 1152.16 460.88"/><polygon points="1158.47 461.28 1159.17 461.33 1158.99 464.13 1158.29 464.09 1158.34 463.39 1157.63 463.34 1157.5 465.44 1156.1 465.36 1156.14 464.65 1156.85 464.7 1156.89 464 1156.19 463.95 1156.23 463.25 1156.93 463.3 1156.98 462.6 1158.38 462.68 1158.47 461.28"/><polygon points="1159.87 461.37 1160.58 461.42 1160.49 462.82 1162.59 462.95 1162.55 463.65 1161.84 463.61 1161.8 464.31 1162.5 464.35 1162.46 465.06 1161.05 464.97 1161.01 465.67 1160.31 465.62 1160.4 464.22 1161.1 464.26 1161.14 463.56 1160.44 463.52 1160.4 464.22 1159.69 464.18 1159.87 461.37"/><rect x="968.67" y="461.48" width="0.7" height="0.7" transform="translate(639.38 1399.69) rotate(-86.37)"/><rect x="969.7" y="461.92" width="1.41" height="0.7" transform="translate(640.24 1401.48) rotate(-86.37)"/><polygon points="1149.31 461.4 1150.01 461.45 1149.83 464.25 1149.13 464.21 1149.17 463.51 1148.47 463.46 1148.56 462.06 1149.26 462.11 1149.31 461.4"/><rect x="958.11" y="461.51" width="0.7" height="0.7" transform="translate(629.45 1389.18) rotate(-86.37)"/><rect x="960.17" y="462.35" width="0.7" height="0.7" transform="translate(630.54 1392.01) rotate(-86.37)"/><polygon class="cls-2" points="1155.58 462.51 1156.98 462.6 1156.93 463.3 1156.23 463.25 1156.19 463.95 1156.89 464 1156.85 464.7 1156.14 464.65 1156.1 465.36 1154.7 465.27 1154.74 464.57 1155.44 464.61 1155.49 463.91 1154.79 463.87 1154.74 464.57 1154.04 464.52 1154.13 463.12 1155.53 463.21 1155.58 462.51"/><polygon points="1150.62 462.9 1152.02 462.99 1151.98 463.69 1153.38 463.78 1153.43 463.07 1154.13 463.12 1154.04 464.52 1151.23 464.34 1151.28 463.64 1150.58 463.6 1150.62 462.9"/><rect class="cls-2" x="967.84" y="463.54" width="0.7" height="0.7" transform="translate(636.54 1400.79) rotate(-86.37)"/><rect x="962.18" y="463.89" width="0.7" height="0.7" transform="translate(630.9 1395.47) rotate(-86.37)"/><rect x="961.43" y="464.54" width="0.7" height="0.7" transform="matrix(0.06, -1, 1, 0.06, 629.55, 1395.34)"/><polygon points="1158.25 464.79 1159.65 464.88 1159.56 466.28 1160.96 466.37 1160.92 467.07 1159.52 466.98 1159.47 467.68 1158.07 467.59 1157.98 469 1155.88 468.86 1155.83 469.56 1155.13 469.52 1155.26 467.42 1155.97 467.46 1155.92 468.16 1156.62 468.21 1156.67 467.5 1157.37 467.55 1157.41 466.85 1156.71 466.8 1156.76 466.1 1158.86 466.24 1158.9 465.53 1158.2 465.49 1158.25 464.79"/><rect x="955.64" y="465.02" width="4.92" height="4.92" transform="matrix(0.06, -1, 1, 0.06, 623.51, 1394.08)"/><rect x="962.44" y="464.96" width="0.7" height="1.41" transform="translate(629.72 1397.06) rotate(-86.37)"/><rect x="969.11" y="465.73" width="0.7" height="0.7" transform="translate(635.54 1404.11) rotate(-86.37)"/><rect class="cls-2" x="956.34" y="465.72" width="3.51" height="3.51" transform="translate(623.51 1394.08) rotate(-86.37)"/><rect x="961.35" y="465.95" width="0.7" height="0.7" transform="matrix(0.06, -1, 1, 0.06, 628.06, 1396.56)"/><rect x="957.05" y="466.42" width="2.11" height="2.11" transform="translate(623.51 1394.08) rotate(-86.37)"/><rect x="962" y="466.69" width="0.7" height="0.7" transform="translate(627.93 1397.92) rotate(-86.37)"/><polygon class="cls-2" points="1159.52 466.98 1160.92 467.07 1160.74 469.88 1160.04 469.83 1160.09 469.13 1159.38 469.09 1159.3 470.49 1157.19 470.36 1157.23 469.65 1155.83 469.56 1155.88 468.86 1157.98 469 1157.94 469.7 1158.64 469.74 1158.68 469.04 1157.98 469 1158.07 467.59 1159.47 467.68 1159.52 466.98"/><polygon points="1160.92 467.07 1161.62 467.12 1161.53 468.52 1162.94 468.61 1162.89 469.31 1161.49 469.22 1161.44 469.92 1162.14 469.97 1162.1 470.67 1159.3 470.49 1159.38 469.09 1160.09 469.13 1160.04 469.83 1160.74 469.88 1160.92 467.07"/><rect x="965.38" y="469.02" width="0.7" height="0.7" transform="matrix(0.06, -1, 1, 0.06, 628.77, 1403.46)"/><polygon class="cls-2" points="1161.49 469.22 1162.89 469.31 1162.8 470.71 1162.1 470.67 1162.14 469.97 1161.44 469.92 1161.49 469.22"/><rect x="961.83" y="469.5" width="0.7" height="0.7" transform="translate(624.97 1400.37) rotate(-86.37)"/><rect class="cls-2" x="962.53" y="469.54" width="0.7" height="0.7" transform="translate(625.58 1401.11) rotate(-86.37)"/><rect x="963.58" y="469.26" width="0.7" height="1.41" transform="translate(626.5 1402.22) rotate(-86.37)"/><path class="cls-29" d="M447.44,375.14s-15.78-11.52-37.43-3.45l9.3,18,23.27,3.41,5.75-13.86Z" transform="translate(192.58)"/><path class="cls-29" d="M381.06,375.14s14-11.52,50.15-3.45l-3.25,18-38.8,3.41-9.6-13.86Z" transform="translate(192.58)"/><path d="M444.38,308.13s10.4,6-.7,21.26L430.33,309Z" transform="translate(192.58)"/><path class="cls-30" d="M429.56,343c.2,4.94,4.31,8,9.25,7.82s8.7-5.44,8.5-10.37-4.23-6.94-9.17-6.74A9,9,0,0,0,429.56,343Z" transform="translate(192.58)"/><polygon class="cls-31" points="601.44 349.55 597.83 396.72 620.01 397.24 618.92 355.94 601.44 349.55"/><path class="cls-30" d="M426.86,375.45s-13.62-3.2-21.34-19.65l21,5.17Z" transform="translate(192.58)"/><path class="cls-31" d="M426.88,301s19.63.67,18.11,26.45-4.57,32.63-14.9,38c-9.28,4.86-21.14.5-27.86-10.48a39.08,39.08,0,0,1-5-15.82l-1.52-6.74S387.67,299,426.88,301Z" transform="translate(192.58)"/><polyline class="cls-23" points="623.18 337.24 625.47 342.98 622.14 344.82"/><path class="cls-2" d="M422.51,333.56s-.05-3.56-6.13-3.05c-5.47.46-6.09,3.19-6.09,3.19s.76,4.74,6.75,4.84S422.51,333.56,422.51,333.56Z" transform="translate(192.58)"/><g class="cls-32"><path d="M413.49,334.13c0,2.53,1.74,4.56,3.84,4.54s3.77-2.1,3.75-4.63-1.74-4.56-3.83-4.53S413.47,331.6,413.49,334.13Z" transform="translate(192.58)"/></g><path d="M422.3,332.66c-3.27-3-9.51-3.07-11.87,1.11-.08.18-.37,0-.27-.13,2.4-4.64,9.09-4.77,12.82-1.66a.48.48,0,1,1-.68.68Z" transform="translate(192.58)"/><path class="cls-2" d="M433.72,333.59s0-3.47,4.16-3.08c3.76.35,4.23,3,4.23,3s-.42,4.18-4.54,4.39S433.72,333.59,433.72,333.59Z" transform="translate(192.58)"/><g class="cls-33"><path d="M440.72,334c0,2.46-1.21,4.47-2.75,4.49s-2.82-2-2.84-4.43,1.2-4.47,2.75-4.49S440.69,331.54,440.72,334Z" transform="translate(192.58)"/></g><path d="M433.28,332.17c2.66-3.33,7.52-2.89,9,1.29,0,.16-.18.24-.23.09-1.47-3.72-5.78-4.06-8.07-.94a.39.39,0,1,1-.65-.44Z" transform="translate(192.58)"/><path d="M415.35,318.72a18.66,18.66,0,0,0-6.45,1.56c-2.1,1.12-2,3.15-.21,4.09,1.1.58,4.31.88,6.47.78,6.81-.32,8-2.48,7.85-4.1C422.79,318.77,418.15,318.44,415.35,318.72Z" transform="translate(192.58)"/><path d="M439.47,318.82a13.48,13.48,0,0,1,5.16,1.74c1.72,1.16,1.79,3.13.48,4a9.14,9.14,0,0,1-5,.54c-5.47-1-6.44-2.69-6.44-4.26C433.67,318.63,437.26,318.46,439.47,318.82Z" transform="translate(192.58)"/><path d="M420.05,348.93s5.54,3.85,10.26,2.31c0,0-.57,2.32-4.38,1.76A9.12,9.12,0,0,1,420.05,348.93Z" transform="translate(192.58)"/><path d="M401,306.32c.2-.18,6.85,9.67-1.36,18.82l1.77,14.19-3.24,1.35-5.36-8.77,0-17.25Z" transform="translate(192.58)"/><path d="M428.28,295.89s-15.95-9.53-32.09-.43c-12.7,7.15,2.13,21.09,2.13,21.09l3.22-7.47,17-7.2Z" transform="translate(192.58)"/><path d="M396.13,303.88s-13.05-2.4-14.81,10.76S397.07,347,397.07,347Z" transform="translate(192.58)"/><path class="cls-31" d="M402.52,345.62c-1.07,4.83-3.41,6.66-9.75,5.36-4.84-1-7.61-6.89-6.55-11.71s5-5.95,10-4.36C399.76,336,403.58,340.8,402.52,345.62Z" transform="translate(192.58)"/><path class="cls-23" d="M391.27,340.11s4.57-1,6.16,5.48" transform="translate(192.58)"/><path d="M421.47,293.07s2,1.32,14.92-.71c18.62-2.91,28.19,18.61,5,20.68s-44.29-4.91-44.29-4.91Z" transform="translate(192.58)"/><polygon class="cls-31" points="678.66 491.18 689.39 576.62 672.46 580.56 650.9 505.97 678.66 491.18"/><path class="cls-31" d="M507.72,585.52l3.39,1.05a1.68,1.68,0,0,1,.93-.7c1-.3,2.3-.25,3.27-.65,0,0,0,0,0,0a7.27,7.27,0,0,0-.18-3.18,7.77,7.77,0,0,0-1.66-3.07l-10.34-6.52c-11.06-7.27-17.11,1.33-17.11,1.33l-6.27,6.06c-1.73,1.67-1.74,4.92-1.42,7.08a26.47,26.47,0,0,0,2.62,7.78,49.36,49.36,0,0,0,3.72,6.36,6.1,6.1,0,0,0,2.28,2.39c1.78.83,3.54-.73,5.37-.41a11.11,11.11,0,0,0,4.26-.1,4.13,4.13,0,0,0,2-.76c.29-.28.26-.53.66-.64s1.05.17,1.52.09a5.05,5.05,0,0,0,2.12-1.17l2.47-1.92c.66-.52,1.05-1.31,2-1a2.27,2.27,0,0,0,1.82.15,3.86,3.86,0,0,0,1.06-.83l1.37-1.35a6.91,6.91,0,0,0,1.08-1.27,1.52,1.52,0,0,0,.09-1.8l-.46-.62-1.52-2-3-4Z" transform="translate(192.58)"/><path class="cls-34" d="M507.72,585.52s-8.43,5.22-16.39-.36" transform="translate(192.58)"/><path class="cls-35" d="M483,641.46h0a1.71,1.71,0,0,1-1.66-1.8,180.31,180.31,0,0,1,3.2-26c4-19.15,10.66-28.86,19.82-28.86s15.68,9.72,19.32,28.89a180.15,180.15,0,0,1,2.72,26.05,1.71,1.71,0,0,1-1.69,1.77h0a1.72,1.72,0,0,1-1.73-1.67c-.39-15.85-4.27-51.6-18.62-51.6S485.48,624,484.8,639.82A1.73,1.73,0,0,1,483,641.46Z" transform="translate(192.58)"/><polygon class="cls-36" points="767.07 773.32 631.55 773.32 648.67 635.02 744.87 635.02 767.07 773.32"/><polygon class="cls-37" points="749.54 773.32 625.26 773.32 648.67 635.02 744.87 635.02 749.54 773.32"/><path class="cls-36" d="M500.68,674.6a26.77,26.77,0,1,0,26.77,26.77A26.8,26.8,0,0,0,500.68,674.6Zm1.08,36.66v-9.38h12.1a35,35,0,0,1-1.43,9.38Zm7.58,10.68a29.55,29.55,0,0,0,4.65-8.53h8.16a24.51,24.51,0,0,1-16,12A26.4,26.4,0,0,0,509.34,721.94Zm2.36-8.53a27.4,27.4,0,0,1-4,7.13,22.13,22.13,0,0,1-5.94,5.42V713.41Zm-9.94-25.22V676.78q.48,0,1,.06a33.46,33.46,0,0,1,8.39,11.35Zm11.7,0a35.65,35.65,0,0,0-3.6-6.58,36.46,36.46,0,0,0-3.39-4.17,24.72,24.72,0,0,1,15,10.75Zm-11.7,11.53v-9.38H512a30.84,30.84,0,0,1,1.86,9.38Zm14.24,0a33.19,33.19,0,0,0-1.73-9.38h8.42a24.2,24.2,0,0,1,2.55,9.38Zm9.29,2.16a24.38,24.38,0,0,1-2.06,9.38h-8.56a37.92,37.92,0,0,0,1.34-9.38Zm-38.35,9.38h-8.8a24.39,24.39,0,0,1-2.07-9.38h9.53A37.92,37.92,0,0,0,486.94,711.26Zm3.56-23.07a32.91,32.91,0,0,1,3-5.3,32.07,32.07,0,0,1,5.43-6.07l.69,0v11.41Zm9.11,2.15v9.38H487.77a31,31,0,0,1,1.85-9.38Zm-19.71-2.15a24.7,24.7,0,0,1,15.32-10.82,35.89,35.89,0,0,0-3.46,4.24,35.11,35.11,0,0,0-3.61,6.58Zm19.71,13.69v9.38H489.18a35.68,35.68,0,0,1-1.43-9.38Zm-23.49-2.16a24.44,24.44,0,0,1,2.56-9.38h8.66a33.19,33.19,0,0,0-1.73,9.38Zm11.5,13.69a29.79,29.79,0,0,0,4.65,8.53,27.63,27.63,0,0,0,3.3,3.51,24.83,24.83,0,0,1-16.35-12Zm12,0v12.4a25.35,25.35,0,0,1-9.69-12.4Z" transform="translate(192.58)"/><circle class="cls-36" cx="667.63" cy="641.95" r="4.24"/><circle class="cls-36" cx="711.05" cy="641.95" r="4.24"/><path class="cls-35" d="M475.15,641.46h0a1.77,1.77,0,0,1-1.72-1.86,186.31,186.31,0,0,1,3.31-26.93c4.13-19.8,11-29.84,20.5-29.84s16.21,10,20,29.87A187.23,187.23,0,0,1,520,639.63a1.78,1.78,0,0,1-1.76,1.83h0a1.77,1.77,0,0,1-1.78-1.73c-.4-16.39-4.42-53.35-19.25-53.35s-19.57,37-20.28,53.38A1.77,1.77,0,0,1,475.15,641.46Z" transform="translate(192.58)"/><path class="cls-20" d="M466.71,409.24c17,31.82,26.61,72.37,25.08,80.48a15.26,15.26,0,0,1-4.26,8h0c-9.25,9.23-26.38,4.15-31.35-9.3l-14.56-36S460.67,397.9,466.71,409.24Z" transform="translate(192.58)"/><path class="cls-20" d="M452.3,490.18c.18,2.23,4.86,49.85,17,77.11L503.58,560s-8.41-60.43-12-71Z" transform="translate(192.58)"/><polygon class="cls-31" points="712.06 845.77 697.54 770.24 669.17 772.21 688.48 857.09 716.67 846.31 712.06 845.77"/><path d="M489.9,845.75s21.3,4.6,27.67-10.06l52.83,16.2-82.29,14.75Z" transform="translate(192.58)"/><polygon class="cls-2" points="764.46 858.96 682.16 873.72 680.69 866.64 762.98 851.88 764.46 858.96"/><path class="cls-2" d="M519.44,846.71a1.3,1.3,0,0,0,.46-.52,27.32,27.32,0,0,1,4.84-7.32,1.27,1.27,0,0,0,0-1.85,1.39,1.39,0,0,0-1.91,0,29,29,0,0,0-5.39,8.07,1.33,1.33,0,0,0,.69,1.75A1.39,1.39,0,0,0,519.44,846.71Z" transform="translate(192.58)"/><path class="cls-2" d="M526.6,848.82a1.32,1.32,0,0,0,.46-.53,27,27,0,0,1,4.85-7.31,1.3,1.3,0,0,0,0-1.86,1.4,1.4,0,0,0-1.91,0,28.7,28.7,0,0,0-5.39,8.07,1.32,1.32,0,0,0,.68,1.75A1.36,1.36,0,0,0,526.6,848.82Z" transform="translate(192.58)"/><path class="cls-2" d="M533.76,850.93a1.25,1.25,0,0,0,.46-.53,26.76,26.76,0,0,1,4.85-7.31,1.3,1.3,0,0,0,0-1.86,1.38,1.38,0,0,0-1.91,0,29,29,0,0,0-5.39,8.07,1.32,1.32,0,0,0,.68,1.75A1.39,1.39,0,0,0,533.76,850.93Z" transform="translate(192.58)"/><path class="cls-38" d="M461.39,549.69c7.4,7,60.44,271.52,60.44,271.52l-40,7.84-83-272.58Z" transform="translate(192.58)"/><polygon class="cls-31" points="564.58 842.49 572.78 765.57 544.56 762.04 539.26 849.05 568.99 843.91 564.58 842.49"/><path d="M344.19,835.82s20,8.61,29.09-4.55L422,857.34,338.41,856Z" transform="translate(192.58)"/><polygon class="cls-2" points="614.66 864.57 531.07 863.2 530.99 855.97 614.58 857.34 614.66 864.57"/><path class="cls-2" d="M373,842.45a1.21,1.21,0,0,0,.55-.43,27,27,0,0,1,6.17-6.24A1.27,1.27,0,0,0,380,834a1.39,1.39,0,0,0-1.87-.39,29.05,29.05,0,0,0-6.84,6.88,1.32,1.32,0,0,0,.33,1.85A1.39,1.39,0,0,0,373,842.45Z" transform="translate(192.58)"/><path class="cls-2" d="M379.61,845.9a1.22,1.22,0,0,0,.55-.43,26.78,26.78,0,0,1,6.17-6.24,1.3,1.3,0,0,0,.34-1.83,1.39,1.39,0,0,0-1.87-.38A28.54,28.54,0,0,0,378,843.9a1.32,1.32,0,0,0,.34,1.84A1.37,1.37,0,0,0,379.61,845.9Z" transform="translate(192.58)"/><path class="cls-2" d="M386.24,849.35a1.33,1.33,0,0,0,.54-.43,27.46,27.46,0,0,1,6.17-6.25,1.28,1.28,0,0,0,.34-1.82,1.39,1.39,0,0,0-1.87-.39,29.19,29.19,0,0,0-6.85,6.88,1.33,1.33,0,0,0,.34,1.85A1.39,1.39,0,0,0,386.24,849.35Z" transform="translate(192.58)"/><polygon class="cls-38" points="605.58 569.75 576.01 818.99 533.75 818.99 555.77 537.16 604.16 537.94 605.58 569.75"/><polyline class="cls-39" points="598.4 629.44 604.16 582.61 617.9 574.45"/><path class="cls-20" d="M428.61,401.41s-2.06-8.7,7-6.62,20.44,5.8,29.41,12.35c0,0-4.24,38.1-2.19,142.86,0,0-52.53,16.52-108.36-3.23l15.19-147.39s17.19-13.07,35.72-6.07C409.83,395,423.81,401.46,428.61,401.41Z" transform="translate(192.58)"/><line class="cls-39" x1="655.26" y1="527.6" x2="655.26" y2="430.93"/><path class="cls-20" d="M424.36,391s-.23-7.58-26.09-8.15c0,0-17.29-1-17.21-7.73,0,0-7.2,10.78,2.36,17.93,0,0-5.64,22.64,8.1,25.47C424.36,425.28,424.36,391,424.36,391Z" transform="translate(192.58)"/><path class="cls-20" d="M421.47,391s.14-7.58,15.65-8.15c0,0,10.36-1,10.32-7.73,0,0,4.31,17.1-1.42,24.26,0,0,2.63,13.18-4.86,19.14C423,433,421.47,391,421.47,391Z" transform="translate(192.58)"/><line class="cls-40" x1="615.14" y1="388.26" x2="615.14" y2="406.32"/><path class="cls-39" d="M447.55,396.73a20.07,20.07,0,0,1-9,7.5" transform="translate(192.58)"/><path class="cls-39" d="M383.42,393.07s7.51,9.21,15.76,11.16" transform="translate(192.58)"/><rect class="cls-41" x="484.58" y="593.79" width="6.82" height="11.31" rx="0.79" transform="translate(-49.96 346.87) rotate(-31.78)"/><rect class="cls-41" x="491.19" y="590.18" width="6.82" height="14.11" rx="0.79" transform="translate(-47.8 350.01) rotate(-31.78)"/><rect class="cls-41" x="497.11" y="586.67" width="7.22" height="14.11" rx="0.84" transform="translate(-45.04 352.71) rotate(-31.78)"/><rect class="cls-41" x="504.56" y="584.6" width="6.82" height="14.11" rx="0.79" transform="translate(-42.86 356.22) rotate(-31.78)"/><rect class="cls-41" x="504.94" y="578.1" width="6.82" height="14.11" rx="0.79" transform="matrix(-0.26, -0.97, 0.97, -0.26, 266.59, 1227.17)"/><rect class="cls-42" x="452.49" y="437.94" width="28.59" height="51.82" rx="3.61" transform="translate(317.86 -98.66) rotate(13.92)"/><path d="M484.64,444.87,473.71,489a1.66,1.66,0,0,1-2,1.21l-21.54-5.33a1.67,1.67,0,0,1-1.21-2l10.92-44.1a1.67,1.67,0,0,1,2-1.21L468,439a.64.64,0,0,1,.46.78l-.13.55a.88.88,0,0,0,.63,1.06l6.27,1.55a.88.88,0,0,0,1.06-.64l.13-.55a.66.66,0,0,1,.78-.47l6.18,1.54A1.66,1.66,0,0,1,484.64,444.87Z" transform="translate(192.58)"/><polygon class="cls-31" points="558.19 487.42 636 473.22 640.49 488.55 573.17 512.12 558.19 487.42"/><path class="cls-31" d="M441.33,483.24s-8.2-5.11-2.09-15.62l9.1-16.37a2.76,2.76,0,0,1,4.06-.81h0a2.77,2.77,0,0,1,1,2.93L451,462.76l18.79-15.65a3,3,0,0,1,4.53.59h0a3,3,0,0,1-.42,3.78l-12,11.36.33.77,14.05-10a2.89,2.89,0,0,1,4.19,1.54h0a2.9,2.9,0,0,1-1.26,3.44l-13.47,10.64.31,1,13.43-7.4c3.31-2,4.56-.49,5,.76h0c.44,1.17-2,3.06-3.15,3.57L467.62,476l.25.92,12.95-6.5a2.08,2.08,0,0,1,2.57,2h0a2.09,2.09,0,0,1-1.51,2.06l-14.71,8.07s-13.07,11-20,6.19Z" transform="translate(192.58)"/><path class="cls-20" d="M370.81,412.8c15.56,29.23,24.44,66.47,23,73.92a14.09,14.09,0,0,1-3.92,7.34h0c-8.49,8.48-24.23,3.81-28.79-8.54l-9.64-18.4S344.74,426.41,370.81,412.8Z" transform="translate(192.58)"/><path class="cls-20" d="M366.42,518.45c2-.28,45.46-7,69.85-19.53l-8.44-31.06s-55,10.79-64.47,14.6Z" transform="translate(192.58)"/><path class="cls-39" d="M362.05,487.62s13.8,17.18,28.14,17.71,46.08-6.41,46.08-6.41" transform="translate(192.58)"/><path class="cls-39" d="M379.56,452.32s11.8,20,19.6,22.42S429,472,429,472" transform="translate(192.58)"/><path class="cls-43" d="M963.32,462.88,766.51,388.26H523.81a28,28,0,0,1-28-28V28a28,28,0,0,1,28-28h263.8a28,28,0,0,1,28,28V323.5Z" transform="translate(192.58)"/><rect class="cls-2" x="722.57" y="27.78" width="257.54" height="328.54" rx="13.08"/><rect class="cls-44" x="722.57" y="27.78" width="257.54" height="328.54" rx="13.08"/><rect class="cls-2" x="774.03" y="130.64" width="154.62" height="154.62"/><rect x="782.35" y="138.95" width="46" height="46"/><polygon class="cls-2" points="828.35 138.95 834.92 138.95 834.92 145.53 841.49 145.53 841.49 152.1 834.92 152.1 834.92 158.67 841.49 158.67 841.49 152.1 848.06 152.1 848.06 158.67 854.63 158.67 854.63 171.81 848.06 171.81 848.06 184.95 841.49 184.95 841.49 178.38 834.92 178.38 834.92 191.52 848.06 191.52 848.06 198.1 841.49 198.1 841.49 204.67 834.92 204.67 834.92 211.24 828.35 211.24 828.35 204.67 821.77 204.67 821.77 198.1 828.35 198.1 828.35 191.52 815.2 191.52 815.2 204.67 821.77 204.67 821.77 211.24 828.35 211.24 828.35 217.81 815.2 217.81 815.2 211.24 802.06 211.24 802.06 217.81 808.63 217.81 808.63 224.38 834.92 224.38 834.92 230.95 841.49 230.95 841.49 237.52 834.92 237.52 834.92 244.09 841.49 244.09 841.49 250.67 848.06 250.67 848.06 270.38 841.49 270.38 841.49 276.95 828.35 276.95 828.35 230.95 782.35 230.95 782.35 217.81 788.92 217.81 788.92 224.38 795.49 224.38 795.49 198.1 788.92 198.1 788.92 204.67 782.35 204.67 782.35 184.95 828.35 184.95 828.35 138.95"/><rect x="834.92" y="138.95" width="6.57" height="6.57"/><rect class="cls-2" x="841.49" y="138.95" width="13.14" height="6.57"/><polygon points="854.63 138.95 867.77 138.95 867.77 171.81 861.2 171.81 861.2 178.38 854.63 178.38 854.63 198.1 861.2 198.1 861.2 204.67 848.06 204.67 848.06 211.24 834.92 211.24 834.92 204.67 841.49 204.67 841.49 198.1 848.06 198.1 848.06 191.52 834.92 191.52 834.92 178.38 841.49 178.38 841.49 184.95 848.06 184.95 848.06 171.81 854.63 171.81 854.63 158.67 861.2 158.67 861.2 145.53 854.63 145.53 854.63 138.95"/><polygon class="cls-2" points="867.77 138.95 874.35 138.95 874.35 184.95 920.34 184.95 920.34 191.52 913.77 191.52 913.77 204.67 894.06 204.67 894.06 191.52 887.49 191.52 887.49 217.81 894.06 217.81 894.06 230.95 900.63 230.95 900.63 224.38 913.77 224.38 913.77 217.81 907.2 217.81 907.2 211.24 913.77 211.24 913.77 204.67 920.34 204.67 920.34 257.24 907.2 257.24 907.2 244.09 900.63 244.09 900.63 237.52 887.49 237.52 887.49 224.38 874.35 224.38 874.35 230.95 880.92 230.95 880.92 237.52 861.2 237.52 861.2 244.09 867.77 244.09 867.77 250.67 861.2 250.67 861.2 257.24 854.63 257.24 854.63 250.67 848.06 250.67 848.06 244.09 841.49 244.09 841.49 237.52 854.63 237.52 854.63 230.95 867.77 230.95 867.77 211.24 874.35 211.24 874.35 217.81 880.92 217.81 880.92 191.52 874.35 191.52 874.35 204.67 861.2 204.67 861.2 198.1 854.63 198.1 854.63 178.38 861.2 178.38 861.2 191.52 867.77 191.52 867.77 178.38 861.2 178.38 861.2 171.81 867.77 171.81 867.77 138.95"/><rect x="874.34" y="138.95" width="46" height="46"/><rect class="cls-2" x="788.92" y="145.52" width="32.86" height="32.86"/><polygon points="841.49 145.53 854.63 145.53 854.63 158.67 848.06 158.67 848.06 152.1 841.49 152.1 841.49 145.53"/><rect class="cls-2" x="854.63" y="145.52" width="6.57" height="13.14"/><rect class="cls-2" x="880.92" y="145.52" width="32.86" height="32.86"/><rect x="795.49" y="152.1" width="19.71" height="19.71"/><rect x="834.92" y="152.1" width="6.57" height="6.57"/><rect x="887.49" y="152.1" width="19.71" height="19.71"/><rect x="834.92" y="165.24" width="6.57" height="6.57"/><rect x="861.2" y="178.38" width="6.57" height="13.14"/><polygon points="815.2 191.52 828.35 191.52 828.35 198.1 821.77 198.1 821.77 204.67 815.2 204.67 815.2 191.52"/><polygon points="874.35 191.52 880.92 191.52 880.92 217.81 874.35 217.81 874.35 211.24 867.77 211.24 867.77 230.95 854.63 230.95 854.63 224.38 861.2 224.38 861.2 217.81 854.63 217.81 854.63 211.24 861.2 211.24 861.2 204.67 874.35 204.67 874.35 191.52"/><polygon points="887.49 191.52 894.06 191.52 894.06 204.67 913.77 204.67 913.77 211.24 907.2 211.24 907.2 217.81 913.77 217.81 913.77 224.38 900.63 224.38 900.63 230.95 894.06 230.95 894.06 217.81 900.63 217.81 900.63 211.24 894.06 211.24 894.06 217.81 887.49 217.81 887.49 191.52"/><rect x="900.63" y="191.52" width="6.57" height="6.57"/><rect x="913.77" y="191.52" width="6.57" height="13.14"/><polygon points="788.92 198.1 795.49 198.1 795.49 224.38 788.92 224.38 788.92 217.81 782.35 217.81 782.35 204.67 788.92 204.67 788.92 198.1"/><rect x="802.06" y="198.1" width="6.57" height="6.57"/><rect x="821.77" y="204.67" width="6.57" height="6.57"/><polygon class="cls-2" points="848.06 204.67 861.2 204.67 861.2 211.24 854.63 211.24 854.63 217.81 861.2 217.81 861.2 224.38 854.63 224.38 854.63 230.95 841.49 230.95 841.49 224.38 848.06 224.38 848.06 217.81 841.49 217.81 841.49 224.38 834.92 224.38 834.92 211.24 848.06 211.24 848.06 204.67"/><polygon points="802.06 211.24 815.2 211.24 815.2 217.81 828.35 217.81 828.35 211.24 834.92 211.24 834.92 224.38 808.63 224.38 808.63 217.81 802.06 217.81 802.06 211.24"/><rect class="cls-2" x="894.06" y="211.24" width="6.57" height="6.57"/><rect x="841.49" y="217.81" width="6.57" height="6.57"/><rect x="834.92" y="224.38" width="6.57" height="6.57"/><polygon points="874.35 224.38 887.49 224.38 887.49 237.52 900.63 237.52 900.63 244.09 887.49 244.09 887.49 250.67 874.35 250.67 874.35 263.81 854.63 263.81 854.63 270.38 848.06 270.38 848.06 250.67 854.63 250.67 854.63 257.24 861.2 257.24 861.2 250.67 867.77 250.67 867.77 244.09 861.2 244.09 861.2 237.52 880.92 237.52 880.92 230.95 874.35 230.95 874.35 224.38"/><rect x="782.35" y="230.95" width="46" height="46"/><rect x="841.49" y="230.95" width="13.14" height="6.57"/><rect x="907.2" y="230.95" width="6.57" height="6.57"/><rect class="cls-2" x="788.92" y="237.52" width="32.86" height="32.86"/><rect x="834.92" y="237.52" width="6.57" height="6.57"/><rect x="795.49" y="244.1" width="19.71" height="19.71"/><rect x="841.49" y="244.1" width="6.57" height="6.57"/><polygon class="cls-2" points="887.49 244.09 900.63 244.09 900.63 270.38 894.06 270.38 894.06 263.81 887.49 263.81 887.49 276.95 867.77 276.95 867.77 270.38 854.63 270.38 854.63 263.81 874.35 263.81 874.35 270.38 880.92 270.38 880.92 263.81 874.35 263.81 874.35 250.67 887.49 250.67 887.49 244.09"/><polygon points="900.63 244.09 907.2 244.09 907.2 257.24 920.34 257.24 920.34 263.81 907.2 263.81 907.2 270.38 913.77 270.38 913.77 276.95 887.49 276.95 887.49 263.81 894.06 263.81 894.06 270.38 900.63 270.38 900.63 244.09"/><rect x="874.34" y="263.81" width="6.57" height="6.57"/><polygon class="cls-2" points="907.2 263.81 920.34 263.81 920.34 276.95 913.77 276.95 913.77 270.38 907.2 270.38 907.2 263.81"/><rect x="841.49" y="270.38" width="6.57" height="6.57"/><rect class="cls-2" x="848.06" y="270.38" width="6.57" height="6.57"/><rect x="854.63" y="270.38" width="13.14" height="6.57"/><path class="cls-27" d="M586.6,98.75a19.29,19.29,0,0,1-4.48-.5,9.55,9.55,0,0,1-3.6-1.66,7,7,0,0,1-2.27-3,10.09,10.09,0,0,1-.5-4.65h8a3.16,3.16,0,0,0,.78,2.51,4,4,0,0,0,2.87.84,3.38,3.38,0,0,0,2.07-.55,1.57,1.57,0,0,0,.73-1.3,1.67,1.67,0,0,0-.86-1.4,12.63,12.63,0,0,0-2.24-1.11c-1.23-.5-2.35-1-3.37-1.55a10.9,10.9,0,0,1-2.59-1.82,7.22,7.22,0,0,1-1.66-2.36,8,8,0,0,1-.58-3.19,9.36,9.36,0,0,1,3.26-7.24,11.71,11.71,0,0,1,3.69-2.12,13.34,13.34,0,0,1,4.64-.77,15.43,15.43,0,0,1,4.53.62,9.65,9.65,0,0,1,3.49,1.86,7.35,7.35,0,0,1,2.14,3.1,9.47,9.47,0,0,1,.44,4.3H593.3a2.58,2.58,0,0,0-.55-2.29,3.18,3.18,0,0,0-2.51-.9,3.52,3.52,0,0,0-2.28.59,1.8,1.8,0,0,0-.69,1.42,1.94,1.94,0,0,0,1.21,1.71,22,22,0,0,0,2.89,1.3c.92.34,1.85.71,2.77,1.11a10.43,10.43,0,0,1,2.47,1.51,7.17,7.17,0,0,1,1.76,2.18,6.71,6.71,0,0,1,.67,3.11,9.46,9.46,0,0,1-3.4,7.33A11.66,11.66,0,0,1,591.71,98,15.85,15.85,0,0,1,586.6,98.75Z" transform="translate(192.58)"/><path class="cls-27" d="M612.14,98.29a9.19,9.19,0,0,1-3.07-.5,8.05,8.05,0,0,1-2.79-1.72l-2.72,9.76h-7.5l8.42-29.36h7.16l-.33,1.21a7.19,7.19,0,0,1,2.34-1,9.84,9.84,0,0,1,2.35-.31,9,9,0,0,1,3.35.62,8.36,8.36,0,0,1,2.8,1.82,8.82,8.82,0,0,1,1.92,2.87,9.6,9.6,0,0,1,.72,3.81,12,12,0,0,1-1,4.84A13.33,13.33,0,0,1,617,97.22,11.66,11.66,0,0,1,612.14,98.29Zm-3.47-10.42a3.68,3.68,0,0,0,1,2.7,3.57,3.57,0,0,0,2.62,1,4.55,4.55,0,0,0,2-.44A5.33,5.33,0,0,0,616,90a5.54,5.54,0,0,0,1.13-1.67,4.74,4.74,0,0,0,.42-2,3.73,3.73,0,0,0-1-2.73,3.63,3.63,0,0,0-2.65-1,4.31,4.31,0,0,0-1.9.44,5.61,5.61,0,0,0-1.66,1.15,5.75,5.75,0,0,0-1.15,1.69,4.91,4.91,0,0,0-.44,2Z" transform="translate(192.58)"/><path class="cls-27" d="M639,76a10.77,10.77,0,0,1,4.08.75,9.9,9.9,0,0,1,3.2,2,9.53,9.53,0,0,1,2.1,3.08,9.9,9.9,0,0,1,.75,3.83,12.65,12.65,0,0,1-1,5,13.22,13.22,0,0,1-6.89,7,12.28,12.28,0,0,1-5,1,11.1,11.1,0,0,1-4.15-.76,9.46,9.46,0,0,1-3.22-2.07,8.93,8.93,0,0,1-2.07-3.11,10,10,0,0,1-.74-3.85,12,12,0,0,1,1.05-5,13.62,13.62,0,0,1,2.83-4.13,13.23,13.23,0,0,1,4.14-2.8A12.34,12.34,0,0,1,639,76Zm2.89,10.76a3.82,3.82,0,0,0-1-2.72,3.47,3.47,0,0,0-2.66-1.09,4.63,4.63,0,0,0-1.9.4,4.58,4.58,0,0,0-1.57,1.11,5.43,5.43,0,0,0-1.47,3.77,4,4,0,0,0,1,2.64A3.41,3.41,0,0,0,637,92a4.57,4.57,0,0,0,2-.44,4.78,4.78,0,0,0,1.57-1.17,5.59,5.59,0,0,0,1-1.68A5.21,5.21,0,0,0,641.92,86.73Z" transform="translate(192.58)"/><path class="cls-27" d="M659,89.12a3,3,0,0,0,0,2.09c.26.5.83.75,1.72.75H663l-1.72,6.2h-4.14a7.55,7.55,0,0,1-3.35-.65,4.29,4.29,0,0,1-2-1.8,6,6,0,0,1-.69-2.78,12.07,12.07,0,0,1,.54-3.64l1.8-6.24h-3l1.88-6.58h3l1.51-5.32h7.37l-1.51,5.32h4.78l-1.89,6.58h-4.82Z" transform="translate(192.58)"/><path class="cls-27" d="M676.93,98.29a9.21,9.21,0,0,1-3.08-.5,8.15,8.15,0,0,1-2.79-1.72l-2.72,9.76h-7.5l8.42-29.36h7.16l-.34,1.22a7.26,7.26,0,0,1,2.35-1,10.29,10.29,0,0,1,2.34-.31,9.09,9.09,0,0,1,3.35.62,8.44,8.44,0,0,1,2.8,1.83,8.81,8.81,0,0,1,1.93,2.86,9.78,9.78,0,0,1,.71,3.82,12.15,12.15,0,0,1-1,4.83,13.31,13.31,0,0,1-6.75,6.91A11.45,11.45,0,0,1,676.93,98.29Zm-3.48-10.42a3.65,3.65,0,0,0,1,2.7,3.53,3.53,0,0,0,2.61,1,4.7,4.7,0,0,0,2-.44A5.5,5.5,0,0,0,680.74,90a5.93,5.93,0,0,0,1.13-1.67,4.9,4.9,0,0,0,.42-2,3.69,3.69,0,0,0-1-2.73,3.63,3.63,0,0,0-2.65-1,4.31,4.31,0,0,0-1.9.44,5.66,5.66,0,0,0-2.81,2.84,5.07,5.07,0,0,0-.43,2Z" transform="translate(192.58)"/><path class="cls-27" d="M704.31,97A6.89,6.89,0,0,1,702,98a9.84,9.84,0,0,1-2.35.31,9,9,0,0,1-3.35-.62,8.36,8.36,0,0,1-2.8-1.82A8.72,8.72,0,0,1,691.55,93a9.56,9.56,0,0,1-.72-3.81,12.23,12.23,0,0,1,1-4.84,13.39,13.39,0,0,1,6.75-6.91,11.53,11.53,0,0,1,4.9-1.06,9.45,9.45,0,0,1,3.08.48,7.55,7.55,0,0,1,2.74,1.69l.59-2h7.5l-6.25,21.7H704ZM707,86.77a3.65,3.65,0,0,0-1-2.7,3.5,3.5,0,0,0-2.62-1,4.53,4.53,0,0,0-2,.43,5.71,5.71,0,0,0-1.66,1.18,5.79,5.79,0,0,0-1.13,1.67,4.9,4.9,0,0,0-.42,2,3.65,3.65,0,0,0,1,2.72,3.57,3.57,0,0,0,2.64,1,4.26,4.26,0,0,0,1.89-.44,6.12,6.12,0,0,0,1.65-1.15,5.46,5.46,0,0,0,1.17-1.68,4.81,4.81,0,0,0,.43-2Z" transform="translate(192.58)"/><path class="cls-27" d="M723.1,103a10.4,10.4,0,0,1-3.08,2.18,10.07,10.07,0,0,1-3.58.84,24.66,24.66,0,0,1-4.46-.23l1.8-6.54a10.38,10.38,0,0,0,2.16.17,4.35,4.35,0,0,0,1.55-.33,2.84,2.84,0,0,0,1.09-.88,5.93,5.93,0,0,0,.78-1.47l-1.47-20.31h7.63l.08,11.39,6.53-11.39h8.46L726.05,99.21A22.51,22.51,0,0,1,723.1,103Z" transform="translate(192.58)"/><circle class="cls-20" cx="865.72" cy="61.81" r="7.43"/></g></g></g></svg>