<svg xmlns="http://www.w3.org/2000/svg" xmlns:xlink="http://www.w3.org/1999/xlink" viewBox="0 0 603.54 1107.52"><defs><style>.cls-1{fill:#fff;}.cls-2{fill:#444;}.cls-3{fill:#dc7f17;}.cls-4{fill:#632d09;}.cls-5{fill:#7a4108;}.cls-11,.cls-12,.cls-14,.cls-6{fill:none;}.cls-11,.cls-6{stroke:#000;}.cls-11,.cls-12,.cls-6{stroke-linecap:round;stroke-linejoin:round;}.cls-6{stroke-width:0.58px;}.cls-7{clip-path:url(#clip-path);}.cls-8{clip-path:url(#clip-path-2);}.cls-9{fill:#e0e0e0;}.cls-10{fill:#1b7388;}.cls-11{stroke-width:0.59px;}.cls-12{stroke:#1c0001;stroke-width:0.3px;}.cls-13{fill:#8ab900;}.cls-14{stroke:#ee9c2d;stroke-miterlimit:10;stroke-width:0.66px;}</style><clipPath id="clip-path"><path class="cls-1" d="M329.51,81.06s.08-6.87,11.82-5.88c10.54.89,11.73,6.15,11.73,6.15s-1.46,9.14-13,9.32S329.51,81.06,329.51,81.06Z"/></clipPath><clipPath id="clip-path-2"><path class="cls-1" d="M307.89,81.11s.05-6.68-8-5.93c-7.25.68-8.16,5.77-8.16,5.77s.82,8.08,8.76,8.47S307.89,81.11,307.89,81.11Z"/></clipPath></defs><g id="Layer_2" data-name="Layer 2"><g id="Layer_1-2" data-name="Layer 1"><path class="cls-2" d="M158.87,234.46H0V393.33H158.87ZM134.43,368.89h-110v-110h110Z"/><rect class="cls-2" x="52.04" y="286.5" width="54.79" height="54.79"/><path class="cls-2" d="M603.52,234.46H444.65V393.33H603.52ZM579.08,368.89h-110v-110h110Z"/><rect class="cls-2" x="496.69" y="286.5" width="54.79" height="54.79"/><path class="cls-2" d="M0,838H158.87V679.11H0ZM24.44,703.55h110v110h-110Z"/><rect class="cls-2" x="52.04" y="731.15" width="54.79" height="54.79"/><polygon class="cls-2" points="347.34 386.73 380.23 386.73 380.23 411.79 400.42 411.79 400.42 386.73 400.42 339.95 380.23 339.95 347.34 339.95 325.89 339.95 295.31 339.95 295.31 386.72 262.31 386.72 262.31 386.73 262.31 416.99 295.31 416.99 295.31 386.73 325.89 386.73 325.89 438.09 347.34 438.09 347.34 386.73"/><polygon class="cls-2" points="380.23 297.27 400.42 297.27 400.42 254.65 400.42 234.47 380.23 234.47 337.61 234.47 337.61 254.65 380.23 254.65 380.23 297.27"/><rect class="cls-2" x="203.1" y="234.47" width="42.74" height="36.68"/><polygon class="cls-2" points="576.61 437.54 548.95 437.54 548.95 469.26 576.61 469.26 576.61 478.89 521.43 478.89 521.43 512.06 576.61 512.06 576.61 544.46 603.54 544.46 603.54 512.06 603.54 479.06 603.54 438.09 603.54 437.54 576.61 437.54"/><path class="cls-2" d="M442.46,665.29V645.37H390.88v50.68h51.58Zm-19.91,4.18v7H410.79V664.93h11.76Z"/><rect class="cls-2" x="203.1" y="663.05" width="42.74" height="43.46"/><polygon class="cls-2" points="179.55 634.91 213.25 634.91 243.78 634.91 243.78 601.35 179.55 601.35 179.55 634.91"/><polygon class="cls-2" points="245.83 448.67 245.83 438.09 245.83 410.58 214.14 410.58 214.14 448.26 179.16 448.26 179.16 448.67 179.16 479.06 245.83 479.06 245.83 448.67"/><rect class="cls-2" x="0.03" y="512.06" width="45.53" height="32.4"/><polygon class="cls-2" points="57.31 479 40.36 479 40.36 438.09 0.03 438.09 0.03 479.06 40.26 479.06 40.26 496.32 57.31 496.32 57.31 479"/><polygon class="cls-2" points="347.34 803.26 325.89 803.26 325.89 837.98 347.34 837.98 380.23 837.98 380.23 778.67 347.34 778.67 347.34 803.26"/><rect class="cls-2" x="0.03" y="575.09" width="56.23" height="59.82"/><path class="cls-2" d="M71.54,634.91h84.4V601.35h-33V575.09H71.54ZM82.32,597.1H98.26V613H82.32Z"/><polygon class="cls-2" points="208.89 559.5 179.55 559.5 179.55 575.09 179.55 585.76 208.89 585.76 208.89 575.09 208.89 559.5"/><rect class="cls-2" x="405.46" y="562.71" width="28.61" height="26.26"/><rect class="cls-2" x="576.61" y="575.09" width="26.92" height="26.26"/><polygon class="cls-2" points="250.1 375.94 276.31 375.94 276.31 338.81 250.1 338.81 237.02 338.81 203.09 338.81 203.09 375.94 237.02 375.94 250.1 375.94"/><rect class="cls-2" x="203.1" y="724.54" width="42.74" height="33.03"/><rect class="cls-2" x="347.34" y="719.66" width="32.9" height="32.13"/><polygon class="cls-2" points="576.61 751.79 576.61 792.7 527.09 792.7 527.09 837.98 576.61 837.98 603.54 837.98 603.54 751.79 603.54 706.51 576.61 706.51 576.61 751.79"/><rect class="cls-2" x="465.03" y="450.92" width="41.04" height="28.09"/><polygon class="cls-2" points="453.1 663.05 499.26 663.05 499.26 601.35 453.1 601.35 380.23 601.35 380.23 575.09 380.23 544.46 347.34 544.46 347.34 575.09 325.89 575.09 325.89 601.35 325.89 634.91 325.89 663.05 295.31 663.05 295.31 634.91 262.31 634.91 262.31 663.05 262.31 706.51 295.31 706.51 295.31 751.79 325.89 751.79 325.89 706.51 347.34 706.51 347.34 665.24 380.23 665.24 380.23 634.91 380.23 631.98 453.1 631.98 453.1 634.91 453.1 663.05"/><polygon class="cls-2" points="520.97 663.05 520.97 663.8 556.58 663.8 556.58 663.05 556.58 628.25 520.97 628.25 520.97 663.05"/><polygon class="cls-2" points="556.69 687.25 576.61 687.25 580.25 687.25 580.25 663.73 576.61 663.73 556.69 663.73 556.69 687.25"/><polygon class="cls-2" points="543.29 706.51 543.29 703.75 461.66 703.75 461.66 706.51 461.66 749.03 543.29 749.03 543.29 706.51"/><rect class="cls-2" x="464.72" y="774.39" width="39.13" height="63.59"/><rect class="cls-2" x="391.95" y="731.58" width="51.97" height="31.49"/><rect class="cls-2" x="426.19" y="778.97" width="17.73" height="18.04"/><rect class="cls-2" x="391.95" y="811.99" width="51.97" height="25.99"/><polygon class="cls-2" points="122.93 479.06 155.94 479.06 155.94 438.09 155.94 437.54 122.93 437.54 122.93 438.09 122.93 479.06"/><path class="cls-2" d="M347.34,512.06h32.89v32.4h133.4v-32.4H453.1v-74H380.23v41H325.89v33Zm77.32-6.57V486.23h19.27v19.26Z"/><polygon class="cls-2" points="295.31 479.06 325.89 479.06 325.89 438.09 295.31 438.09 262.31 438.09 262.31 479.06 262.31 512.06 295.31 512.06 295.31 479.06"/><polygon class="cls-2" points="325.89 272.06 295.31 272.06 295.31 234.47 262.31 234.47 262.31 326.18 325.89 326.18 325.89 272.06"/><polygon class="cls-2" points="325.89 512.06 295.31 512.06 295.31 544.46 262.31 544.46 262.31 512.06 245.83 512.06 155.94 512.06 122.93 512.06 56.26 512.06 56.26 544.46 122.93 544.46 122.93 575.09 155.94 575.09 155.94 544.46 245.83 544.46 245.83 575.09 262.31 575.09 262.31 601.35 295.31 601.35 295.31 575.09 325.89 575.09 325.89 544.46 325.89 512.06"/><polygon class="cls-2" points="241.53 798.85 203.09 798.85 203.09 837.98 241.53 837.98 245.83 837.98 306.32 837.98 306.32 779.58 241.53 779.58 241.53 798.85"/><rect class="cls-2" x="340.28" y="272.98" width="23.85" height="23.85"/><polygon class="cls-2" points="551.63 544.46 551.63 559.85 520.97 559.85 520.97 590.56 551.69 590.56 551.69 559.89 570.88 559.89 570.88 544.46 570.88 540.64 551.63 540.64 551.63 544.46"/><rect class="cls-2" x="83.77" y="479.66" width="20.48" height="20.48"/><rect class="cls-2" x="416.71" y="401.7" width="20.48" height="20.48"/><path class="cls-3" d="M281.44,161.23s30.41-22.22,72.16-6.66l-17.93,34.66L290.8,195.8l-11.09-26.73Z"/><path class="cls-3" d="M409.43,161.23s-27.08-22.22-96.7-6.66L319,189.23l74.83,6.57,18.5-26.73Z"/><path d="M287.33,32s-20,11.62,1.35,41L314.42,33.7Z"/><path class="cls-4" d="M315.9,99.26c-.38,9.52-8.3,15.45-17.82,15.07s-16.79-10.48-16.41-20,8.18-13.37,17.69-13A17.24,17.24,0,0,1,315.9,99.26Z"/><polygon class="cls-5" points="355.82 111.88 362.79 202.83 320.01 203.84 322.12 124.2 355.82 111.88"/><path class="cls-4" d="M321.12,161.82s26.25-6.17,41.14-37.88l-40.4,10Z"/><path class="cls-5" d="M321.07,18.31s-37.84,1.29-34.91,51,8.8,62.92,28.72,73.34c17.89,9.37,40.77,1,53.73-20.2,5.09-8.31,8.9-20.79,9.63-30.51l2.94-13S396.68,14.35,321.07,18.31Z"/><polyline class="cls-6" points="313.89 88.16 309.49 99.21 315.91 102.76"/><path class="cls-1" d="M329.51,81.06s.08-6.87,11.82-5.88c10.54.89,11.73,6.15,11.73,6.15s-1.46,9.14-13,9.32S329.51,81.06,329.51,81.06Z"/><g class="cls-7"><path d="M346.89,82.15c0,4.88-3.35,8.8-7.4,8.75s-7.28-4-7.24-8.91,3.36-8.8,7.4-8.75S346.94,77.28,346.89,82.15Z"/></g><path d="M328.9,78.33c7-5.93,19.69-5.81,24.29,2.93a.15.15,0,1,1-.27.13c-4.56-8.28-16.82-8.16-23.33-2.38-.45.49-1.19-.23-.69-.68Z"/><path class="cls-1" d="M307.89,81.11s.05-6.68-8-5.93c-7.25.68-8.16,5.77-8.16,5.77s.82,8.08,8.76,8.47S307.89,81.11,307.89,81.11Z"/><g class="cls-8"><path d="M294.39,81.91c-.05,4.74,2.33,8.62,5.3,8.65s5.43-3.8,5.48-8.54-2.32-8.62-5.3-8.65S294.44,77.16,294.39,81.91Z"/></g><path d="M307.78,79c-4.77-6.12-13-5.48-16,2-.05.16-.3.07-.23-.08,2.94-7.93,11.71-8.66,16.84-2.34a.39.39,0,1,1-.65.44Z"/><path d="M343.3,52.43s7.55.41,12.44,3c4.05,2.17,3.84,6.08.41,7.89-2.12,1.12-8.31,1.7-12.48,1.5-13.13-.62-15.45-4.79-15.14-7.91C329,52.54,337.9,51.9,343.3,52.43Z"/><path d="M296.8,52.64s-5.93.64-9.94,3.35c-3.33,2.24-3.46,6-.93,7.68,1.57,1,6.39,1.65,9.63,1,10.54-2,12.42-5.18,12.42-8.2C308,52.26,301.05,51.94,296.8,52.64Z"/><path class="cls-6" d="M334.24,110.68s-10.68,7.43-19.78,4.46"/><path d="M370.89,28.53c-.37-.34-13.19,18.65,2.62,36.29l-3.4,27.35,6.24,2.61,10.33-16.91-.05-33.26Z"/><path d="M318.38,8.42s30.76-18.37,61.87-.84c24.48,13.81-4.11,40.68-4.11,40.68l-6.2-14.4L337.05,20Z"/><path d="M380.37,23.83s25.15-4.62,28.55,20.75S378.56,107,378.56,107Z"/><path class="cls-5" d="M368.05,104.31c2.06,9.3,6.57,12.84,18.8,10.34,9.33-1.91,14.67-13.28,12.61-22.58s-9.68-11.49-19.35-8.41C373.37,85.81,366,95,368.05,104.31Z"/><path class="cls-6" d="M389.74,93.68s-8.81-2-11.88,10.57"/><path d="M331.5,3s-3.81,2.55-28.76-1.36C266.83-4,248.39,37.51,293.15,41.49S378.56,32,378.56,32Z"/><polygon class="cls-5" points="275.35 1063.1 274.77 914.8 329.19 907.99 324.17 1075.75 266.84 1065.84 275.35 1063.1"/><path d="M331.32,1052.08s-38.59,16.61-56.1-8.76l-93.94,50.27,161.18-2.65Z"/><polygon class="cls-9" points="181.12 1107.52 342.3 1104.87 342.46 1090.94 181.28 1093.59 181.12 1107.52"/><path class="cls-1" d="M275.78,1064.87a2.43,2.43,0,0,1-1.06-.83,52.08,52.08,0,0,0-11.89-12,2.48,2.48,0,0,1-.65-3.52,2.7,2.7,0,0,1,3.61-.75A56,56,0,0,1,279,1061a2.55,2.55,0,0,1-.64,3.56A2.66,2.66,0,0,1,275.78,1064.87Z"/><path class="cls-1" d="M263,1071.52a2.51,2.51,0,0,1-1.06-.83,52,52,0,0,0-11.89-12,2.47,2.47,0,0,1-.65-3.52,2.69,2.69,0,0,1,3.61-.74,55.78,55.78,0,0,1,13.19,13.27,2.55,2.55,0,0,1-.64,3.56A2.69,2.69,0,0,1,263,1071.52Z"/><path class="cls-1" d="M250.24,1078.16a2.51,2.51,0,0,1-1.06-.83,51.86,51.86,0,0,0-11.89-12,2.48,2.48,0,0,1-.65-3.52,2.69,2.69,0,0,1,3.61-.75,56,56,0,0,1,13.19,13.27,2.53,2.53,0,0,1-.64,3.56A2.66,2.66,0,0,1,250.24,1078.16Z"/><path class="cls-10" d="M275.28,481.34c-11.39,16-13.49,536.16-13.49,536.16H340.3l30.46-543.88Z"/><polygon class="cls-5" points="426.89 1062.33 411.07 914.03 465.49 907.22 475.71 1074.98 418.38 1065.07 426.89 1062.33"/><path d="M480.52,1049.48s-38.59,16.61-56.1-8.77L330.49,1091l161.17-2.64Z"/><polygon class="cls-9" points="330.32 1104.92 491.5 1102.27 491.66 1088.34 330.49 1090.98 330.32 1104.92"/><path class="cls-1" d="M425,1062.27a2.51,2.51,0,0,1-1.06-.83,51.86,51.86,0,0,0-11.89-12,2.48,2.48,0,0,1-.65-3.52,2.69,2.69,0,0,1,3.61-.75,56,56,0,0,1,13.19,13.27,2.54,2.54,0,0,1-.64,3.56A2.69,2.69,0,0,1,425,1062.27Z"/><path class="cls-1" d="M412.21,1068.92a2.51,2.51,0,0,1-1.06-.83,51.79,51.79,0,0,0-11.89-12,2.48,2.48,0,0,1-.65-3.52,2.69,2.69,0,0,1,3.61-.74,55.84,55.84,0,0,1,13.19,13.26,2.54,2.54,0,0,1-.64,3.56A2.66,2.66,0,0,1,412.21,1068.92Z"/><path class="cls-1" d="M399.44,1075.56a2.51,2.51,0,0,1-1.06-.83,51.86,51.86,0,0,0-11.89-12,2.48,2.48,0,0,1-.65-3.52,2.68,2.68,0,0,1,3.61-.75,55.94,55.94,0,0,1,13.2,13.27,2.54,2.54,0,0,1-.65,3.56A2.68,2.68,0,0,1,399.44,1075.56Z"/><polygon class="cls-10" points="347.85 536.46 404.86 1017.03 486.33 1017.03 443.88 473.62 350.58 475.13 347.85 536.46"/><polyline class="cls-11" points="361.69 651.54 350.58 561.25 324.09 545.53"/><polygon class="cls-5" points="182.94 304.97 135.07 145.98 102.14 152.26 122.45 300.59 182.94 304.97"/><path class="cls-5" d="M118.35,159.47s17.38,10.44,31.19-11l21.89-32.66a5.8,5.8,0,0,0-2.37-8.37h0a5.82,5.82,0,0,0-6.42.94l-15.28,13.41L158.62,71.7a6.29,6.29,0,0,0-5.42-7.9h0a6.3,6.3,0,0,0-6.67,4.39l-9.78,33.24-1.75.11,5.19-35.78a6.07,6.07,0,0,0-6.9-6.34h0a6.06,6.06,0,0,0-5.21,5.64l-7,35.34-2.14.36,1-32.18c.59-8.1-3.44-9-6.23-8.66h0c-2.6.3-3.8,6.69-3.66,9.31l-3.23,34.15-2,.42-.22-30.42a4.37,4.37,0,0,0-6.15-2.91h0a4.36,4.36,0,0,0-2.39,4.79l-1,35.19s-8,34.92,7.51,43.24Z"/><path class="cls-12" d="M147.36,121.76s-19-2.61-28.62,13.45"/><path class="cls-13" d="M286,201.16C212.54,226.8,136.75,279.6,126.74,296A40.42,40.42,0,0,0,121,316.83h0c-.19,31.34,33.07,51.6,60.83,37.06l76.22-36.81S312.18,192,286,201.16Z"/><path class="cls-13" d="M124.18,333.12c-1.43-4.07-30.39-91.66-30.3-149.2L160,170s32.41,113.09,34.35,134.46Z"/><line class="cls-11" x1="192.41" y1="283.07" x2="183.75" y2="251.31"/><path class="cls-13" d="M317.74,211.89s4-16.79-13.57-12.78-39.4,11.18-56.68,23.82c0,0,8.16,73.46,4.21,275.44,0,0,101.29,31.87,208.94-6.22L431.34,208s-33.13-25.2-68.86-11.71C354,199.47,327,212,317.74,211.89Z"/><line class="cls-11" x1="252.05" y1="319.99" x2="252.05" y2="268.8"/><path class="cls-13" d="M325.94,191.84s.44-14.61,50.3-15.72c0,0,33.33-2,33.19-14.89,0,0,13.88,20.77-4.56,34.57,0,0,10.88,43.66-15.61,49.1C325.94,257.9,325.94,191.84,325.94,191.84Z"/><path class="cls-13" d="M331.5,191.84s-.26-14.61-30.16-15.72c0,0-20-2-19.9-14.89,0,0-8.33,33,2.73,46.77,0,0-5.08,25.42,9.36,36.9C328.61,272.78,331.5,191.84,331.5,191.84Z"/><line class="cls-14" x1="329.42" y1="186.52" x2="329.42" y2="221.34"/><path class="cls-11" d="M281.21,202.86a38.84,38.84,0,0,0,17.4,14.46"/><path class="cls-11" d="M404.87,195.8s-14.47,17.75-30.38,21.52"/><polygon class="cls-5" points="434.73 528.29 428.23 557.52 407.32 508.97 430.56 505.23 434.73 528.29"/><polygon class="cls-5" points="488.4 364.07 407.32 508.97 434.73 528.29 527.28 410.61 488.4 364.07"/><line class="cls-11" x1="407.32" y1="508.97" x2="434.73" y2="574.53"/><path class="cls-13" d="M412.31,305l48.33,99L421,480.28l39.62,37.44s87.55-94.57,89.71-132.59S455.21,197.84,404.87,195.8Z"/><line class="cls-11" x1="449.11" y1="380.36" x2="404.87" y2="289.73"/></g></g></svg>