<svg xmlns="http://www.w3.org/2000/svg" viewBox="0 0 43.86 44"><defs><style>.cls-1{fill:#fff;}.cls-2{fill:#8cbb00;}</style></defs><g id="Layer_2" data-name="Layer 2"><g id="Layer_1-2" data-name="Layer 1"><g id="SpotPoints_Deals" data-name="SpotPoints Deals"><path class="cls-1" d="M43.32,10.11a4.59,4.59,0,0,0-2-.45c-2.13-.25-4.28-.4-6.42-.58l-5.49-.45c-1.83-.17-3.66-.36-5.49-.52-3.74-.31-7.48-.65-11.23-1-1.14-.09-2.29-.24-3.44-.33-.23-1.47-.49-2.95-.73-4.41A1.35,1.35,0,0,0,8,1.51a1.88,1.88,0,0,0-.76-.31C5.84.83,4.4.51,3,.2A8.33,8.33,0,0,0,1.38,0,1.4,1.4,0,0,0,.06,1,1.32,1.32,0,0,0,.29,2.2a2,2,0,0,0,1.2.58c1.37.26,2.73.55,4.08.89A.42.42,0,0,1,6,4.06c1.21,7.8,2.48,15.59,3.73,23.38a3.06,3.06,0,0,0,.42,1.46,1.52,1.52,0,0,0,1.26.53H36.29c-.17.65-.42,1.28-.61,1.93,0,.12-.11.29-.28.27H9a3.7,3.7,0,0,0-1.1.09,1.31,1.31,0,0,0-.75.58,1.41,1.41,0,0,0,.36,1.88,1.78,1.78,0,0,0,1.06.25q13.71,0,27.41,0a3.35,3.35,0,0,0,1.3-.16,1.43,1.43,0,0,0,.73-.74,12.39,12.39,0,0,0,.38-1.32c.41-1.5.9-3,1.28-4.49,1.18-4.69,2.38-9.37,3.57-14.06.2-.72.35-1.46.58-2.17A1.35,1.35,0,0,0,43.32,10.11ZM37.11,26.24c0,.16-.12.4-.34.37-.79,0-1.59,0-2.38,0H31.06c-.74,0-1.48,0-2.2,0H15c-.78,0-1.56,0-2.33,0-.17,0-.22-.21-.24-.34-.23-1.66-.52-3.32-.77-5-.19-1.25-.35-2.5-.57-3.75-.3-1.82-.65-3.64-.89-5.47,0-.39-.11-.78-.17-1.17L9.82,9.74a21.51,21.51,0,0,1,2.4.17,1.06,1.06,0,0,1,.43.08l3,.26s0,0,0,0a5.61,5.61,0,0,1,.92.06c1,.09,1.95.19,2.93.26a.3.3,0,0,1,.16,0l3,.26h0c1.32.05,2.63.23,3.94.33h0l3,.26v0c1.34.09,2.68.26,4,.36h0l2.95.26a0,0,0,0,0,0,0c1.34.11,2.67.21,4,.37C39.47,17,38.29,21.64,37.11,26.24Z"/><path class="cls-2" d="M13.31,36.07a4.09,4.09,0,0,1,2.39.36A4,4,0,0,1,17.82,39a4,4,0,0,1-.16,2.56,4.07,4.07,0,0,1-5.22,2.19,4,4,0,0,1-2.32-2.33,3.94,3.94,0,0,1,.19-3.17A4,4,0,0,1,13.31,36.07Zm.14,2.59a1.43,1.43,0,0,0-.92,1.76,1.46,1.46,0,0,0,1.73,1,1.43,1.43,0,0,0,1.05-1.77A1.46,1.46,0,0,0,13.45,38.66Z"/><path class="cls-2" d="M33,36.07a4.06,4.06,0,0,1,2.9.64,4,4,0,0,1,1.21,5.36,4,4,0,0,1-2.45,1.8,4.1,4.1,0,0,1-2.9-.33,4,4,0,0,1-1.9-2.14,3.9,3.9,0,0,1,.34-3.47A4.06,4.06,0,0,1,33,36.07Zm.21,2.58A1.43,1.43,0,1,0,35,39.82,1.45,1.45,0,0,0,33.17,38.65Z"/><path class="cls-1" d="M24.17,25a1.39,1.39,0,0,1-1.4-1.38V13.94a1.4,1.4,0,0,1,2.8,0v9.68A1.39,1.39,0,0,1,24.17,25Z"/><path class="cls-1" d="M29.07,20.16h-9.8a1.38,1.38,0,1,1,0-2.76h9.8a1.38,1.38,0,1,1,0,2.76Z"/></g></g></g></svg>