<svg id="Layer_1" data-name="Layer 1" xmlns="http://www.w3.org/2000/svg" xmlns:xlink="http://www.w3.org/1999/xlink" viewBox="0 0 603.51 1130.45"><defs><clipPath id="clip-path"><path d="M329.5,92.52s.08-6.87,11.82-5.88c10.53.89,11.73,6.15,11.73,6.15s-1.46,9.14-13,9.33S329.5,92.52,329.5,92.52Z" style="fill:#fff"/></clipPath><clipPath id="clip-path-2"><path d="M307.88,92.58s.05-6.69-8-5.93c-7.26.67-8.16,5.77-8.16,5.77s.82,8.07,8.76,8.46S307.88,92.58,307.88,92.58Z" style="fill:#fff"/></clipPath></defs><path d="M158.86,245.92H0V404.79H158.86ZM134.41,380.35h-110v-110h110Z" style="fill:#444"/><rect x="52.02" y="297.96" width="54.79" height="54.79" style="fill:#444"/><path d="M603.51,245.92H444.64V404.79H603.51ZM579.06,380.35h-110v-110h110Z" style="fill:#444"/><rect x="496.67" y="297.96" width="54.79" height="54.79" style="fill:#444"/><path d="M0,849.44H158.86V690.58H0ZM24.43,715h110V825h-110Z" style="fill:#444"/><rect x="52.02" y="742.61" width="54.79" height="54.79" style="fill:#444"/><polygon points="347.33 398.19 380.22 398.19 380.22 423.25 400.4 423.25 400.4 398.19 400.4 351.42 380.22 351.42 347.33 351.42 325.88 351.42 295.3 351.42 295.3 398.18 262.3 398.18 262.3 398.19 262.3 428.46 295.3 428.46 295.3 398.19 325.88 398.19 325.88 449.55 347.33 449.55 347.33 398.19" style="fill:#444"/><polygon points="380.22 308.74 400.4 308.74 400.4 266.11 400.4 245.93 380.22 245.93 337.6 245.93 337.6 266.11 380.22 266.11 380.22 308.74" style="fill:#444"/><rect x="203.08" y="245.93" width="42.74" height="36.68" style="fill:#444"/><polygon points="576.6 449 548.93 449 548.93 480.73 576.6 480.73 576.6 490.36 521.42 490.36 521.42 523.53 576.6 523.53 576.6 555.92 603.52 555.92 603.52 523.53 603.52 490.52 603.52 449.55 603.52 449 576.6 449" style="fill:#444"/><path d="M442.45,676.75V656.83H390.86v50.68h51.59Zm-19.92,4.19v7H410.78V676.4h11.75Z" style="fill:#444"/><rect x="203.08" y="674.52" width="42.74" height="43.46" style="fill:#444"/><polygon points="179.54 646.37 213.23 646.37 243.77 646.37 243.77 612.82 179.54 612.82 179.54 646.37" style="fill:#444"/><polygon points="245.82 460.14 245.82 449.55 245.82 422.04 214.12 422.04 214.12 459.73 179.15 459.73 179.15 460.14 179.15 490.52 245.82 490.52 245.82 460.14" style="fill:#444"/><rect x="0.01" y="523.53" width="45.53" height="32.4" style="fill:#444"/><polygon points="57.3 490.47 40.34 490.47 40.34 449.55 0.01 449.55 0.01 490.52 40.25 490.52 40.25 507.79 57.3 507.79 57.3 490.47" style="fill:#444"/><polygon points="347.33 814.73 325.88 814.73 325.88 849.44 347.33 849.44 380.22 849.44 380.22 790.13 347.33 790.13 347.33 814.73" style="fill:#444"/><rect x="0.01" y="586.55" width="56.23" height="59.82" style="fill:#444"/><path d="M71.53,646.37h84.39V612.81h-33V586.55H71.53Zm10.78-37.81H98.24V624.5H82.31Z" style="fill:#444"/><polygon points="208.88 570.96 179.54 570.96 179.54 586.55 179.54 597.22 208.88 597.22 208.88 586.55 208.88 570.96" style="fill:#444"/><rect x="405.44" y="574.17" width="28.61" height="26.26" style="fill:#444"/><rect x="576.6" y="586.55" width="26.92" height="26.26" style="fill:#444"/><polygon points="250.09 387.41 276.29 387.41 276.29 350.28 250.09 350.28 237.01 350.28 203.08 350.28 203.08 387.41 237.01 387.41 250.09 387.41" style="fill:#444"/><rect x="203.08" y="736.01" width="42.74" height="33.03" style="fill:#444"/><rect x="347.33" y="731.12" width="32.9" height="32.13" style="fill:#444"/><polygon points="576.6 763.25 576.6 804.16 527.07 804.16 527.07 849.44 576.6 849.44 603.52 849.44 603.52 763.25 603.52 717.97 576.6 717.97 576.6 763.25" style="fill:#444"/><rect x="465.01" y="462.38" width="41.04" height="28.09" style="fill:#444"/><polygon points="453.09 674.52 499.25 674.52 499.25 612.82 453.09 612.82 380.22 612.82 380.22 586.55 380.22 555.92 347.33 555.92 347.33 586.55 325.88 586.55 325.88 612.82 325.88 646.37 325.88 674.52 295.3 674.52 295.3 646.37 262.3 646.37 262.3 674.52 262.3 717.97 295.3 717.97 295.3 763.25 325.88 763.25 325.88 717.97 347.33 717.97 347.33 676.7 380.22 676.7 380.22 646.37 380.22 643.44 453.09 643.44 453.09 646.37 453.09 674.52" style="fill:#444"/><polygon points="520.96 674.52 520.96 675.26 556.57 675.26 556.57 674.52 556.57 639.71 520.96 639.71 520.96 674.52" style="fill:#444"/><polygon points="556.68 698.72 576.6 698.72 580.24 698.72 580.24 675.2 576.6 675.2 556.68 675.2 556.68 698.72" style="fill:#444"/><polygon points="543.27 717.97 543.27 715.22 461.65 715.22 461.65 717.97 461.65 760.5 543.27 760.5 543.27 717.97" style="fill:#444"/><rect x="464.7" y="785.85" width="39.13" height="63.59" style="fill:#444"/><rect x="391.94" y="743.05" width="51.97" height="31.49" style="fill:#444"/><rect x="426.18" y="790.44" width="17.73" height="18.04" style="fill:#444"/><rect x="391.94" y="823.46" width="51.97" height="25.99" style="fill:#444"/><polygon points="122.92 490.52 155.92 490.52 155.92 449.55 155.92 449 122.92 449 122.92 449.55 122.92 490.52" style="fill:#444"/><path d="M347.33,523.53h32.89v32.39h133.4V523.53H453.09v-74H380.22v41H325.87v33ZM424.65,517V497.7h19.26V517Z" style="fill:#444"/><polygon points="295.3 490.52 325.88 490.52 325.88 449.55 295.3 449.55 262.3 449.55 262.3 490.52 262.3 523.53 295.3 523.53 295.3 490.52" style="fill:#444"/><polygon points="325.88 283.53 295.3 283.53 295.3 245.93 262.3 245.93 262.3 337.64 325.88 337.64 325.88 283.53" style="fill:#444"/><polygon points="325.88 523.53 295.3 523.53 295.3 555.92 262.3 555.92 262.3 523.53 245.82 523.53 155.92 523.53 122.92 523.53 56.24 523.53 56.24 555.92 122.92 555.92 122.92 586.55 155.92 586.55 155.92 555.92 245.82 555.92 245.82 586.55 262.3 586.55 262.3 612.82 295.3 612.82 295.3 586.55 325.88 586.55 325.88 555.92 325.88 523.53" style="fill:#444"/><polygon points="241.52 810.31 203.08 810.31 203.08 849.44 241.52 849.44 245.82 849.44 306.31 849.44 306.31 791.05 241.52 791.05 241.52 810.31" style="fill:#444"/><rect x="340.27" y="284.45" width="23.85" height="23.85" style="fill:#444"/><polygon points="551.62 555.92 551.62 571.31 520.96 571.31 520.96 602.03 551.67 602.03 551.67 571.35 570.86 571.35 570.86 555.92 570.86 552.11 551.62 552.11 551.62 555.92" style="fill:#444"/><rect x="83.76" y="491.12" width="20.48" height="20.48" style="fill:#444"/><rect x="416.7" y="413.16" width="20.48" height="20.48" style="fill:#444"/><path d="M281.42,172.69s30.42-22.22,72.17-6.65L335.66,200.7l-44.87,6.57L279.7,180.53Z" style="fill:#dc7f17"/><path d="M409.41,172.69s-27.08-22.22-96.7-6.65L319,200.7l74.83,6.57,18.5-26.74Z" style="fill:#dc7f17"/><path d="M287.32,43.48s-20.05,11.62,1.35,41L314.4,45.17Z"/><path d="M315.89,110.73c-.39,9.51-8.31,15.45-17.82,15.06s-16.79-10.48-16.41-20,8.17-13.37,17.69-13A17.25,17.25,0,0,1,315.89,110.73Z" style="fill:#632d09"/><polygon points="355.81 123.34 362.77 214.29 320 215.3 322.11 135.66 355.81 123.34" style="fill:#7a4108"/><path d="M321.11,173.28s26.25-6.16,41.13-37.88l-40.39,10Z" style="fill:#632d09"/><path d="M321.06,29.78s-37.85,1.28-34.91,51,8.8,62.92,28.71,73.34c17.9,9.37,40.78,1,53.74-20.2,5.08-8.31,8.9-20.8,9.62-30.51l2.94-13S396.67,25.81,321.06,29.78Z" style="fill:#7a4108"/><polyline points="313.88 99.62 309.48 110.68 315.9 114.22" style="fill:none;stroke:#000;stroke-linecap:round;stroke-linejoin:round;stroke-width:0.579753px"/><path d="M329.5,92.52s.08-6.87,11.82-5.88c10.53.89,11.73,6.15,11.73,6.15s-1.46,9.14-13,9.33S329.5,92.52,329.5,92.52Z" style="fill:#fff"/><g style="clip-path:url(#clip-path)"><path d="M346.88,93.62c0,4.88-3.36,8.79-7.4,8.75s-7.28-4-7.24-8.92,3.36-8.79,7.4-8.75S346.92,88.74,346.88,93.62Z"/></g><path d="M328.89,89.79c7-5.92,19.69-5.81,24.29,2.94a.15.15,0,0,1-.27.13c-4.57-8.28-16.82-8.17-23.34-2.39-.44.5-1.18-.23-.68-.68Z"/><path d="M307.88,92.58s.05-6.69-8-5.93c-7.26.67-8.16,5.77-8.16,5.77s.82,8.07,8.76,8.46S307.88,92.58,307.88,92.58Z" style="fill:#fff"/><g style="clip-path:url(#clip-path-2)"><path d="M294.38,93.37c-.05,4.75,2.32,8.62,5.3,8.65s5.43-3.79,5.48-8.54-2.33-8.62-5.31-8.65S294.42,88.63,294.38,93.37Z"/></g><path d="M307.77,90.48c-4.77-6.13-13-5.48-16,2-.05.15-.3.07-.23-.09,2.94-7.93,11.71-8.66,16.84-2.33a.39.39,0,1,1-.65.44Z"/><path d="M343.29,63.9s7.55.4,12.44,3c4,2.16,3.84,6.07.41,7.88-2.12,1.13-8.32,1.7-12.48,1.5-13.14-.62-15.46-4.79-15.15-7.91C329,64,337.88,63.37,343.29,63.9Z"/><path d="M296.78,64.1s-5.92.65-9.94,3.35c-3.32,2.25-3.46,6-.92,7.69,1.57,1,6.38,1.64,9.62,1C306.09,74.22,308,71,308,68,308,63.73,301,63.41,296.78,64.1Z"/><path d="M334.23,122.15s-10.68,7.42-19.79,4.45" style="fill:none;stroke:#000;stroke-linecap:round;stroke-linejoin:round;stroke-width:0.579753px"/><path d="M370.88,40c-.38-.34-13.2,18.65,2.62,36.29l-3.4,27.36,6.24,2.6,10.33-16.9-.06-33.26Z"/><path d="M318.37,19.88s30.75-18.37,61.87-.83c24.48,13.8-4.12,40.67-4.12,40.67l-6.2-14.39L337,31.44Z"/><path d="M380.36,35.3S405.51,30.67,408.91,56s-30.36,62.43-30.36,62.43Z"/><path d="M368,115.78c2.06,9.3,6.57,12.83,18.8,10.33,9.33-1.9,14.67-13.28,12.61-22.58s-9.68-11.48-19.35-8.4C373.36,97.27,366,106.48,368,115.78Z" style="fill:#7a4108"/><path d="M389.73,105.14s-8.81-2-11.88,10.58" style="fill:none;stroke:#000;stroke-linecap:round;stroke-linejoin:round;stroke-width:0.579753px"/><path d="M331.49,14.45s-3.81,2.55-28.76-1.36C266.81,7.46,248.38,49,293.14,53s85.41-9.48,85.41-9.48Z"/><polygon points="275.34 1074.57 274.76 926.26 329.17 919.45 324.15 1087.21 266.82 1077.31 275.34 1074.57" style="fill:#7a4108"/><path d="M331.3,1063.54s-38.59,16.61-56.1-8.76l-93.93,50.27,161.18-2.65Z"/><polygon points="181.11 1118.98 342.29 1116.34 342.45 1102.4 181.27 1105.05 181.11 1118.98" style="fill:#e0e0e0"/><path d="M275.76,1076.34a2.42,2.42,0,0,1-1.05-.83,52.5,52.5,0,0,0-11.89-12,2.47,2.47,0,0,1-.65-3.52,2.68,2.68,0,0,1,3.6-.74,55.56,55.56,0,0,1,13.2,13.26,2.55,2.55,0,0,1-.65,3.57A2.68,2.68,0,0,1,275.76,1076.34Z" style="fill:#fff"/><path d="M263,1083a2.4,2.4,0,0,1-1.05-.83,52.08,52.08,0,0,0-11.89-12,2.48,2.48,0,0,1-.65-3.52,2.68,2.68,0,0,1,3.6-.75,55.73,55.73,0,0,1,13.2,13.27,2.55,2.55,0,0,1-.64,3.56A2.68,2.68,0,0,1,263,1083Z" style="fill:#fff"/><path d="M250.23,1089.63a2.51,2.51,0,0,1-1.06-.83,52.08,52.08,0,0,0-11.89-12,2.49,2.49,0,0,1-.65-3.53,2.68,2.68,0,0,1,3.6-.74,55.8,55.8,0,0,1,13.2,13.26,2.54,2.54,0,0,1-.64,3.56A2.67,2.67,0,0,1,250.23,1089.63Z" style="fill:#fff"/><path d="M275.27,492.8c-11.4,16-13.49,536.17-13.49,536.17h78.51l30.46-543.89Z" style="fill:#1b7388"/><polygon points="426.88 1073.8 411.06 925.49 465.47 918.69 475.7 1086.45 418.37 1076.54 426.88 1073.8" style="fill:#7a4108"/><path d="M480.51,1060.94s-38.59,16.61-56.1-8.76l-93.94,50.27,161.18-2.65Z"/><polygon points="330.31 1116.38 491.49 1113.73 491.65 1099.8 330.47 1102.45 330.31 1116.38" style="fill:#e0e0e0"/><path d="M425,1073.74a2.51,2.51,0,0,1-1.06-.83,52,52,0,0,0-11.89-12,2.48,2.48,0,0,1-.65-3.52,2.69,2.69,0,0,1,3.6-.75,55.73,55.73,0,0,1,13.2,13.27,2.55,2.55,0,0,1-.64,3.56A2.67,2.67,0,0,1,425,1073.74Z" style="fill:#fff"/><path d="M412.2,1080.38a2.51,2.51,0,0,1-1.06-.83,52.08,52.08,0,0,0-11.89-12,2.48,2.48,0,0,1-.65-3.52,2.68,2.68,0,0,1,3.61-.75,56,56,0,0,1,13.19,13.27,2.55,2.55,0,0,1-.64,3.56A2.66,2.66,0,0,1,412.2,1080.38Z" style="fill:#fff"/><path d="M399.43,1087a2.43,2.43,0,0,1-1.06-.83,51.86,51.86,0,0,0-11.89-12,2.47,2.47,0,0,1-.65-3.52,2.69,2.69,0,0,1,3.61-.74,55.84,55.84,0,0,1,13.19,13.26,2.54,2.54,0,0,1-.64,3.56A2.66,2.66,0,0,1,399.43,1087Z" style="fill:#fff"/><polygon points="347.83 547.92 404.84 1028.5 486.32 1028.5 443.87 485.08 350.57 486.6 347.83 547.92" style="fill:#1b7388"/><polyline points="361.67 663.01 350.57 572.72 324.07 556.99" style="fill:none;stroke:#000;stroke-linecap:round;stroke-linejoin:round;stroke-width:0.591803px"/><polygon points="182.92 316.43 135.06 157.44 102.12 163.72 122.44 312.06 182.92 316.43" style="fill:#7a4108"/><path d="M118.33,170.94s17.38,10.43,31.2-11l21.89-32.65a5.81,5.81,0,0,0-2.37-8.37h0a5.81,5.81,0,0,0-6.43.93l-15.28,13.42,11.27-50.07a6.29,6.29,0,0,0-5.43-7.9h0a6.29,6.29,0,0,0-6.66,4.4l-9.78,33.23L135,113l5.19-35.78a6.06,6.06,0,0,0-6.89-6.35h0a6.08,6.08,0,0,0-5.22,5.65l-7,35.33-2.15.37,1-32.18c.6-8.11-3.43-9-6.22-8.66h0c-2.61.3-3.8,6.69-3.66,9.3l-3.23,34.16-2,.41-.22-30.41a4.37,4.37,0,0,0-6.15-2.92h0a4.4,4.4,0,0,0-2.39,4.79l-1,35.2s-8,34.91,7.51,43.24Z" style="fill:#7a4108"/><path d="M147.34,133.23s-19-2.61-28.62,13.44" style="fill:none;stroke:#1c0001;stroke-linecap:round;stroke-linejoin:round;stroke-width:0.302803px"/><path d="M286,212.62c-73.46,25.64-149.26,78.45-159.26,94.86A40.46,40.46,0,0,0,121,328.29h0c-.18,31.34,33.07,51.6,60.84,37.07l76.22-36.82S312.16,203.48,286,212.62Z" style="fill:#8ab900"/><path d="M124.17,344.59c-1.43-4.08-30.39-91.67-30.3-149.2L160,181.45S192.4,294.53,194.33,315.9Z" style="fill:#8ab900"/><line x1="192.4" y1="294.53" x2="183.74" y2="262.78" style="fill:none;stroke:#000;stroke-linecap:round;stroke-linejoin:round;stroke-width:0.591803px"/><path d="M317.72,223.35s4-16.78-13.56-12.77-39.4,11.18-56.69,23.81c0,0,8.17,73.46,4.22,275.45,0,0,101.29,31.86,208.94-6.23l-29.3-284.18s-33.14-25.2-68.86-11.71C353.93,210.94,327,223.44,317.72,223.35Z" style="fill:#8ab900"/><line x1="252.04" y1="331.45" x2="252.04" y2="280.26" style="fill:none;stroke:#000;stroke-linecap:round;stroke-linejoin:round;stroke-width:0.591803px"/><path d="M325.93,203.31s.44-14.61,50.3-15.72c0,0,33.33-2,33.18-14.9,0,0,13.88,20.78-4.55,34.58,0,0,10.88,43.65-15.62,49.09C325.93,269.37,325.93,203.31,325.93,203.31Z" style="fill:#8ab900"/><path d="M331.49,203.31s-.27-14.61-30.17-15.72c0,0-20-2-19.9-14.9,0,0-8.32,33,2.74,46.77,0,0-5.08,25.43,9.36,36.9C328.6,284.25,331.49,203.31,331.49,203.31Z" style="fill:#8ab900"/><line x1="329.4" y1="197.98" x2="329.4" y2="232.8" style="fill:none;stroke:#ee9c2d;stroke-miterlimit:10;stroke-width:0.6552319999999999px"/><path d="M281.2,214.33a38.84,38.84,0,0,0,17.4,14.46" style="fill:none;stroke:#000;stroke-linecap:round;stroke-linejoin:round;stroke-width:0.591803px"/><path d="M404.86,207.27S390.38,225,374.48,228.79" style="fill:none;stroke:#000;stroke-linecap:round;stroke-linejoin:round;stroke-width:0.591803px"/><polygon points="434.71 539.75 428.22 568.99 407.31 520.43 430.55 516.69 434.71 539.75" style="fill:#7a4108"/><polygon points="488.38 375.54 407.31 520.43 434.71 539.75 527.27 422.07 488.38 375.54" style="fill:#7a4108"/><line x1="407.31" y1="520.43" x2="434.71" y2="586" style="fill:none;stroke:#000;stroke-linecap:round;stroke-linejoin:round;stroke-width:0.591803px"/><path d="M412.3,316.43l48.33,99L421,491.75l39.62,37.43s87.54-94.56,89.7-132.59S455.19,209.31,404.86,207.27Z" style="fill:#8ab900"/><line x1="449.1" y1="391.83" x2="404.86" y2="301.19" style="fill:none;stroke:#000;stroke-linecap:round;stroke-linejoin:round;stroke-width:0.591803px"/></svg>