<svg xmlns="http://www.w3.org/2000/svg" xmlns:xlink="http://www.w3.org/1999/xlink" viewBox="0 0 1090.28 900.02"><defs><clipPath id="clip-path"><rect y="388.97" width="1090.28" height="511.05" style="fill:none"/></clipPath><clipPath id="clip-path-2"><path d="M970,345s0-3.23,5.55-2.76c4.95.42,5.51,2.89,5.51,2.89s-.68,4.29-6.11,4.37S970,345,970,345Z" style="fill:#fff"/></clipPath><clipPath id="clip-path-3"><path d="M959.89,345s0-3.14-3.77-2.79c-3.41.32-3.83,2.71-3.83,2.71s.38,3.79,4.11,4S959.89,345,959.89,345Z" style="fill:#fff"/></clipPath><clipPath id="clip-path-4"><path d="M422.51,333.56s-.05-3.56-6.13-3.05c-5.47.46-6.09,3.19-6.09,3.19s.76,4.74,6.75,4.84S422.51,333.56,422.51,333.56Z" style="fill:#fff"/></clipPath><clipPath id="clip-path-5"><path d="M433.72,333.59s0-3.47,4.16-3.08c3.76.35,4.23,3,4.23,3s-.42,4.18-4.54,4.39S433.72,333.59,433.72,333.59Z" style="fill:#fff"/></clipPath></defs><g style="isolation:isolate"><g id="Layer_1" data-name="Layer 1"><g style="clip-path:url(#clip-path)"><path d="M-104,745.54S138.18,785.73,141.08,784s34.27-137.08,34.27-137.08-200.29-36-203.53-36S-75,645.75-75.57,648.07-104,745.54-104,745.54Z" style="fill:#183658"/><path d="M634.8,779.92c5.8.58,299.13-5.7,299.13-5.7l-22.07-67.48s-40.66-61.49-62.15-60.37-149.31-19.6-171.36-4.3-41.81,3.1-52.27,39.69-18.61,40.69-10.46,62.75S634.8,779.92,634.8,779.92Z" style="fill:#183658"/><ellipse cx="18.27" cy="769.63" rx="99.87" ry="99.84" transform="translate(-751.4 786.24) rotate(-89.88)" style="fill:#1a1a1a"/><ellipse cx="18.27" cy="769.63" rx="69.46" ry="69.49" style="fill:#9c9ba0"/><ellipse cx="18.27" cy="769.63" rx="46.46" ry="46.47" style="fill:#d6d7db"/><ellipse cx="786.94" cy="769.63" rx="99.87" ry="99.84" transform="translate(15.61 1554.91) rotate(-89.88)" style="fill:#1a1a1a"/><ellipse cx="786.94" cy="769.63" rx="69.46" ry="69.49" style="fill:#9c9ba0"/><ellipse cx="786.94" cy="769.63" rx="46.46" ry="46.47" style="fill:#d6d7db"/><path d="M1016.15,674.58c-8.44-55.65-35.72-67.34-116.44-83.49-89.06-17.81-202.13-75.89-202.13-75.89S504.74,420.71,457.5,409.87s-163.41-7.74-261-7S41.62,430.78-7.95,469.5s-135.53,68.16-135.53,68.16l-15.61,2.78a33.68,33.68,0,0,0-27.76,33.15V711.71A34.45,34.45,0,0,0-161.19,745l56.44,14.91h0a8.05,8.05,0,0,0,9.37-7.11c6.18-56.5,55-99.44,113.28-99.37,61.93.07,112.72,51,112.68,112.9a112.83,112.83,0,0,1-1.89,20.6,11.21,11.21,0,0,0,11,13.25H659.14a16.7,16.7,0,0,0,16.59-18.87,115,115,0,0,1-1-14.71c-.18-61.17,49.29-111.89,110.45-113.15a112.83,112.83,0,0,1,115.21,112.8,114.82,114.82,0,0,1-.67,12.37,19.37,19.37,0,0,0,19.2,21.56h74.69a24.58,24.58,0,0,0,24.59-24.58V703.26A191.19,191.19,0,0,0,1016.15,674.58Z" style="fill:#f7cc7f"/><path d="M918.3,615.49c33.88,5.19,72.89,37.27,72.89,37.27,9.33,10,1.62,26.29-12,25.43l-66-4.18a32.6,32.6,0,0,1-29.25-23.45h0C877.43,628.37,882.89,610.07,918.3,615.49Z" style="fill:#f1faff"/><path d="M900.92,742.88a7.8,7.8,0,0,0-7.9,8.86,126.06,126.06,0,0,1,.29,29.89,21.5,21.5,0,0,0,21.31,23.94H997.5a27.29,27.29,0,0,0,27.29-27.29V756.83a11.21,11.21,0,0,0-10.94-11.2Z" style="fill:#e8ae54"/><path d="M697.72,547.18c-1.1-.61-110.89-60.85-183.7-94.57-72.09-33.39-152.56-29.85-156-29.67-9.25-.21-201.77-4.39-261,14.06C37.41,455.58-40.25,540.24-43.52,543.83l-.91,1,20.88,98,2.24-.12c60.73-3.43,107.22,12.73,134.43,46.73,20.57,25.71,23.11,52.86,23.13,53.13l.2,2.33,219,5.63h0l2.53.05,2.7.07v0l305.09,6,0-2.62C667.3,654.8,698.64,551.26,699,550.23l.62-2ZM141.18,739.77c-1.05-7.35-5.67-30.62-23.8-53.39-19.54-24.54-59.1-52.83-136.74-49l-19.39-91c9-9.66,82.44-87.27,137.34-104.38s233.3-14.32,256.82-13.88V745.28Zm519.41,11.48-300-5.86V428.07c14.11-.41,86.16-.83,151.18,29.28,67.45,31.25,166.79,85.33,181.54,93.39C689,565.69,662.47,659.88,660.59,751.25Z" style="fill:#fcb346;mix-blend-mode:multiply;opacity:0.5"/><path d="M893.91,773.79c-.12,2.63-.31,5.25-.6,7.84a21.5,21.5,0,0,0,21.31,23.94H997.5a27.29,27.29,0,0,0,27.29-27.29v-4.49Z" style="fill:#fcb346;mix-blend-mode:multiply;opacity:0.5"/><path d="M679.63,773.79a113.19,113.19,0,0,1,1.18-16.67,11,11,0,0,0-10.54-12.64L130,731.29a8.7,8.7,0,0,0-8.53,11.15,114,114,0,0,1,4.3,31.07,115.69,115.69,0,0,1-1.91,20.86A11.44,11.44,0,0,0,135.09,808H663.75a17.08,17.08,0,0,0,16.86-19.46A115.28,115.28,0,0,1,679.63,773.79Z" style="fill:#e8ae54"/><path d="M679.63,773.79v-.28H125.79a115.69,115.69,0,0,1-1.91,20.86A11.44,11.44,0,0,0,135.09,808H663.75a17.08,17.08,0,0,0,16.86-19.46A115.28,115.28,0,0,1,679.63,773.79Z" style="fill:#fcb346;mix-blend-mode:multiply;opacity:0.5"/><rect x="7.49" y="574.66" width="73.19" height="11.81" rx="3.67" style="fill:#e8ae54"/><rect x="379.09" y="580.57" width="73.19" height="11.81" rx="3.67" style="fill:#e8ae54"/><path d="M20.38,556.44l298.56,2.82s18.28-.49,20.76-17.69S342,450.73,342,450.73s-2.17-14.79-16.33-15c-8.61-.12-80.74-5.27-150.9,3.28A256.77,256.77,0,0,0,24.44,512.29l-21.2,21.2S-11,556.14,20.38,556.44Z" style="fill:#183658"/><path d="M375.22,460.07v77.22A18.43,18.43,0,0,0,392.65,556l234.6,9.44A15.8,15.8,0,0,0,641,558.62c4.21-6.21,4.7-16.42-16.32-30.11-36.56-23.8-129.57-75.29-164-80.27-21.9-3.17-50.56-4.55-68.49-5.13A16.71,16.71,0,0,0,375.22,460.07Z" style="fill:#183658"/></g><path d="M963.87,435.44c-3.65-3-31.9,9.46-31.54,13.79s-19.71,46.29-19.71,46.29L878,467.78h0c-.31-1-3.59-11.8-3.75-13.73s-6-5.56-8.75-5,2.33,4,2.66,4.57c.9,1.72-2.59,2.36-2.59,2.36s-10-5.52-10.23-8.76-2.28-10.05-4.45-8.63c-1.11.74-1.1,5.56-.76,7.85-.64-2.6-1.55-5.53-2.44-5.82-1.62-.54-2.42,1.53-2.13,2.55s2.91,12.05,3.71,13.29,16.95,14.3,19.29,17.14c0,0,44.85,51.45,48,52.79,2.8,1.18,12.8-16.55,22.24-28.32S975.28,444.75,963.87,435.44Z" style="fill:#633205"/><path d="M1054.37,813.76s6.17,6,6.31,8.25.54,25.94-2,28.15-9.91,3.79-7.54,6.28c1.8,1.88,15.62,1.48,24.77,1,2.68-.14,6-21.54,7.09-24.69,1.53-4.57,5.27-14.86,3.88-18-.68-1.55-3.94-4.74-8.53-7.71-4.84-3.13-9.46-10.1-9.46-10.1Z" style="fill:#633205"/><path d="M990.52,827.81s5.52,15.64,5.53,15.68c.41,2.47,2,8.59,2,10.84,0,8.46-38-7.18-29.5-10.93a9.07,9.07,0,0,0,3.45-5.92c.39-4.44-3.21-10-3.21-10Z" style="fill:#633205"/><path d="M930.88,536.67s-2.77,28-2.77,28.45c0,45.34-9,133.9-7.26,142.42,4.16,20.8,48.88,126.86,48.88,126.86l24.18-2.9-31.5-127L974,653.4l16.4-101Z" style="fill:#355389"/><path d="M1012,561.46l4.58,26.57L1029,697.36l47.26,106.85s-6.64,15.55-16.45,17.73l-75.22-109.7L937.86,571.86l1.64-31.19Z" style="fill:#466eb6"/><path d="M921.24,469.93l33.52,3.44s1.53-27.58,1.53-40.73c0-16-1.35-36.51-3.27-36.07-5.39,1.24-12.65,4.23-17,10.19C921.09,427.38,921.24,469.93,921.24,469.93Z" style="fill:#3a3a3a"/><path d="M937.7,429.83C937,434.69,924.12,567,924.12,567c61,29.58,94.71,5.27,94.71,5.27s-2-92.88.39-105.52c1.59-8.37,3.56-63.95-1.84-65.5a134.41,134.41,0,0,0-23.54-5c-7.4-.77-36.12-1.22-41.26.51A65.82,65.82,0,0,0,937.7,429.83Z" style="fill:#161616"/><path d="M1078.08,806.82s-14.21,40.13-19.77,42.07c-1.48.51-8.56,1.82-9.9,5-.4.95,0,4.11,0,4.11H1078s3.75-17.68,5.23-25.45c0,0,7.83-19,7-20.71S1078.08,806.82,1078.08,806.82Z" style="fill:#50bfa5"/><path d="M1000.23,857.13l-4.35-13.81s-9.14,3.89-13.72,3.24a138.41,138.41,0,0,1-13.49-3.24c-18.25,6-33.2,9-30.49,13.81h62.05Z" style="fill:#50bfa5"/><path d="M916.53,526.36a8,8,0,0,1-.92-.69c1.09-12.95.89-25.51-3.16-29.76.1-.2,1-2.09,1.91-4.05,4.69,3.65,6.93,13.33,6,29a26.5,26.5,0,0,1-.62,3.26C918.43,525.67,917.19,526.64,916.53,526.36Z" style="fill:#633205"/><path d="M1079.28,568.36a4,4,0,0,0,0-.85c-.9-9.16-8.48-86.08-9.75-89.35-1.16-3-35.15-51.73-35.15-51.73l-16.71,22.84L1050.37,493c.74,2.78,12.53,54.71,12.53,54.71s2.42,9.46,3.5,15.13c-.49,1.37-1,2.66-1.41,3.71a34.15,34.15,0,0,1-3.52,5.69,38.31,38.31,0,0,0-4.17,7.4c-.35,1.34-1,4.12-1.33,5.79s-.83,3.63-.92,4.54a8.42,8.42,0,0,1-1,2.43,1.47,1.47,0,0,0,1.72,2.12c1.19-.4,2.11-1.94,2.68-2.9,1.61-2.72,2.47-7.67,2.87-7.41s1.81,8.67,2,9.62,1.92,10.71,2.87,12.49,2.22,1.49,2.55.37c.29-1-1-14.62-1-14.62s-.17-1.74.59-1.2,2,13,2.53,14.76,1.74,2.78,2.76,1.32c1.24-1.78-.9-14.93-.9-14.93s-.23-1.65.47-1.49,1.58,10.72,2.13,11.63a1.39,1.39,0,0,0,2.59-.28c.78-1.8-1.23-13.52-1.23-13.52s.1-.93.53-.62,1.84,9.26,2.74,10.09a1,1,0,0,0,1.4,0c1.67-1.14-.89-9.66-.86-13.89s-1.93-9-1.35-14C1079.11,569.63,1079.21,568.85,1079.28,568.36Z" style="fill:#633205"/><path d="M1061,457.32l-29,19.57s-16.37-24.44-25.15-33.14c-11-10.9,4-44.29,11.1-42.4C1033.72,405.58,1061,457.32,1061,457.32Z" style="fill:#3a3a3a"/><path d="M967.22,394.79a1.22,1.22,0,0,0,.6-.75l-.09.38a179,179,0,0,0-3.91,24.34c-.69,8.42-.86,17,1.15,25.3l-.7-.31c10-5.84,17-15.59,23-25.23a102.35,102.35,0,0,0,7.82-15.28,20.17,20.17,0,0,0,1.62-5.82s0,0,0,0,0,0,0,0l0,.12c0,.07.14.14.09.12h0c-2.22-1.11-5.2-1.29-7.79-1.61-3.77-.36-7.62-.55-11.46-.67-3-.05-7.88-.19-10.84-.19h-.63a1.82,1.82,0,0,0,1.14-.45Zm-2.53-3.1a3.09,3.09,0,0,1,2-.48l2.2-.06a166.91,166.91,0,0,1,20.6.75c3.22.53,11.07.88,11.21,5.35-.33,4.56-2.83,8.77-4.79,12.77-7.22,13.06-17.5,27.88-31.16,34.62l-.52.3-.19-.6c-2.54-8.32-2.89-17.1-2.69-25.72a183.49,183.49,0,0,1,2.4-24.19,4.82,4.82,0,0,1,1-2.74Z" style="fill:#8ab900"/><path d="M991.7,367.59l4.35,28.73s-15.87,34.2-25.33,31.23c-8-2.49-3.06-32.75-3.06-32.75s4.33-16.25,3-24.38S991.7,367.59,991.7,367.59Z" style="fill:#633205"/><path d="M970.69,370.42c-1.3-8.14,21-2.83,21-2.83l.36,2.38a13.17,13.17,0,0,1-2.42,4,29.29,29.29,0,0,1-19.5,8.85C970.81,378.45,971.22,373.75,970.69,370.42Z" style="fill:#422106"/><path d="M994.91,325.73c.73-.26,4.53,34-5.32,43.78s-28.51,13.49-34.9,6.25c-7.06-8-5.39-45,9.75-55.26S994.91,325.73,994.91,325.73Z" style="fill:#633205"/><path d="M973.26,303.37a36.26,36.26,0,0,1,19,10.89c4.58.54,10.8,3.08,17.23,13.76,7.91,13.14,2.07,27.69-7.13,34.83s-9.08,15.39-9.08,15.39L991.86,374a23.81,23.81,0,0,1-1.15-10.05,19.82,19.82,0,0,1,1.48-6c2.22-4.77-4.75-7.93-6.7-11.9-1.51-3.06-1.58-10-4-15.09L978.71,327s-6.53-5.1-12.92-3.66S960.32,300.72,973.26,303.37Z" style="fill:#184655"/><path d="M985.91,351.84c-.06,4,1.76,7.31,4.07,7.35s4.24-3.18,4.31-7.2-1.75-7.31-4.07-7.35S986,347.82,985.91,351.84Z" style="fill:#633205"/><path d="M972.28,361.13l-12.65-.66s0,4.84,5.6,5.29C972,366.31,972.28,361.13,972.28,361.13Z" style="fill:#fff"/><polyline points="962.71 348.28 960.64 353.47 963.65 355.14" style="fill:none;stroke:#000;stroke-linecap:round;stroke-linejoin:round;stroke-width:0.579753px"/><path d="M970,345s0-3.23,5.55-2.76c4.95.42,5.51,2.89,5.51,2.89s-.68,4.29-6.11,4.37S970,345,970,345Z" style="fill:#fff"/><g style="clip-path:url(#clip-path-2)"><path d="M978.2,345.46c0,2.29-1.58,4.13-3.48,4.11s-3.42-1.89-3.4-4.18,1.58-4.13,3.48-4.11S978.22,343.17,978.2,345.46Z"/></g><path d="M969.57,343.49c3.4-2.83,9.48-2.7,11.66,1.52.09.18-.19.31-.28.13-2.13-3.76-7.76-3.65-10.7-1-.45.5-1.19-.23-.68-.68Z"/><path d="M959.89,345s0-3.14-3.77-2.79c-3.41.32-3.83,2.71-3.83,2.71s.38,3.79,4.11,4S959.89,345,959.89,345Z" style="fill:#fff"/><g style="clip-path:url(#clip-path-3)"><path d="M953.55,345.35c0,2.23,1.09,4,2.49,4.06s2.55-1.78,2.57-4-1.09-4-2.49-4.06S953.57,343.12,953.55,345.35Z"/></g><path d="M959.66,344.11c-2.06-2.82-5.93-2.51-7.26.83,0,.15-.29.07-.23-.08,1.26-3.79,5.76-4.21,8.15-1.19a.4.4,0,1,1-.66.44Z"/><path d="M976.51,331.51a16.79,16.79,0,0,1,5.84,1.42c1.9,1,1.8,2.85.19,3.7-1,.53-3.9.8-5.86.71-6.16-.3-7.25-2.25-7.11-3.72C969.78,331.56,974,331.26,976.51,331.51Z"/><path d="M954.68,331.61a12.09,12.09,0,0,0-4.67,1.57c-1.56,1.05-1.62,2.84-.43,3.61a8.25,8.25,0,0,0,4.52.49c4.95-.92,5.83-2.43,5.83-3.85C959.93,331.43,956.68,331.28,954.68,331.61Z"/><path d="M974.63,478,950,474a1.4,1.4,0,0,1-1.17-1.53l2.73-26.11a1.39,1.39,0,0,1,1.39-1.25h23.79a1.4,1.4,0,0,1,1.4,1.49l-1.86,30A1.4,1.4,0,0,1,974.63,478Z" style="fill:#fff"/><path d="M974.14,477.87l-23.74-3.76a1.87,1.87,0,0,1-1.56-2l2.64-25.27a1.85,1.85,0,0,1,1.85-1.66h22.9a1.85,1.85,0,0,1,1.85,2l-1.8,29A1.85,1.85,0,0,1,974.14,477.87Z" style="fill:none;stroke:#8ab900;stroke-miterlimit:10;stroke-width:2px"/><path d="M955.41,447.22l-.57,1,0,.46-.41,0,0-.46-.45-1,.46,0,.22.58.3-.55Z"/><path d="M955.77,448.62a.68.68,0,0,1-.25-.28.74.74,0,0,1-.08-.39.72.72,0,0,1,.41-.63.85.85,0,0,1,.39-.07.81.81,0,0,1,.37.12.76.76,0,0,1,.25.28.74.74,0,0,1,.07.39.78.78,0,0,1-.12.38.74.74,0,0,1-.67.32A.77.77,0,0,1,955.77,448.62Zm.65-.34a.41.41,0,0,0,.1-.26.41.41,0,0,0-.07-.28.33.33,0,0,0-.24-.12.31.31,0,0,0-.25.09.42.42,0,0,0-.11.26.47.47,0,0,0,.07.28.35.35,0,0,0,.24.12A.37.37,0,0,0,956.42,448.28Z"/><path d="M957.56,447.36l-.06.84a.29.29,0,0,0,0,.19.19.19,0,0,0,.16.07.2.2,0,0,0,.17,0,.3.3,0,0,0,.07-.18l0-.85.41,0-.06.85a.59.59,0,0,1-.1.33.6.6,0,0,1-.25.2.7.7,0,0,1-.32,0,.8.8,0,0,1-.32-.09.5.5,0,0,1-.2-.23.61.61,0,0,1-.06-.34l0-.85Z"/><path d="M959,447.79a.66.66,0,0,1,.28-.24.68.68,0,0,1,.38-.07.75.75,0,0,1,.45.17.65.65,0,0,1,.21.41l-.43,0a.3.3,0,0,0-.1-.14.3.3,0,0,0-.16,0,.25.25,0,0,0-.23.09.41.41,0,0,0-.1.26.35.35,0,0,0,.07.27.28.28,0,0,0,.21.12.33.33,0,0,0,.17,0,.26.26,0,0,0,.11-.12l.44,0a.66.66,0,0,1-.26.38.75.75,0,0,1-.47.12.78.78,0,0,1-.38-.12.73.73,0,0,1-.24-.28.8.8,0,0,1-.06-.39A.94.94,0,0,1,959,447.79Z"/><path d="M961.43,448.83l-.51,0-.1.24-.42,0,.62-1.42.47,0,.43,1.48-.42,0Zm-.08-.32-.12-.48-.19.46Z"/><path d="M963.4,449.19l-.4,0-.49-.84,0,.81-.4,0,.09-1.45.4,0,.49.86.05-.82.41,0Z"/><path d="M965.22,447.84l0,.32-.39,0-.07,1.13-.41,0,.07-1.14-.38,0,0-.32Z"/><path d="M965.77,447.88l-.09,1.45-.4,0,.09-1.46Z"/><path d="M967.05,448.69a.46.46,0,0,1-.2.16.67.67,0,0,1-.3,0l-.2,0,0,.49-.41,0,.09-1.46.61,0a.77.77,0,0,1,.29.08.47.47,0,0,1,.18.19.66.66,0,0,1,0,.25A.62.62,0,0,1,967.05,448.69Zm-.34-.27c0-.1-.05-.16-.16-.16l-.16,0,0,.32h.16A.15.15,0,0,0,966.71,448.42Z"/><path d="M969.41,448.11l-.09,1.45-.4,0,.05-.8-.33.78-.34,0-.22-.83-.05.81-.41,0,.09-1.46.49,0,.31,1,.41-.92Z"/><path d="M970,448.47l0,.24.47,0,0,.31-.47,0v.26l.52,0,0,.33-.93-.06.09-1.46.93.06,0,.33Z"/><path d="M972.58,448.31l-.59,1.42-.52,0-.41-1.49.43,0,.27,1.07.39-1Z"/><path d="M973.11,448.34,973,449.8l-.4,0,.09-1.45Z"/><path d="M974.19,449.63l-.52,0-.09.23-.42,0,.62-1.42.46,0,.44,1.49-.43,0Zm-.08-.31-.13-.48-.18.46Z"/><path d="M953.82,451.84a1,1,0,0,1-.34-.79l.95.06a.33.33,0,0,0,.09.25.36.36,0,0,0,.42,0,.17.17,0,0,0,.09-.16.23.23,0,0,0-.12-.23,2.23,2.23,0,0,0-.41-.2,2.94,2.94,0,0,1-.5-.24.94.94,0,0,1-.32-.31.73.73,0,0,1-.11-.5.83.83,0,0,1,.19-.52.91.91,0,0,1,.45-.31,1.56,1.56,0,0,1,.62-.07,1.43,1.43,0,0,1,.89.32,1,1,0,0,1,.31.75l-1-.06a.27.27,0,0,0-.07-.22.34.34,0,0,0-.21-.09.22.22,0,0,0-.25.22.21.21,0,0,0,.07.16.67.67,0,0,0,.16.12,1.92,1.92,0,0,0,.31.14l.49.24a1,1,0,0,1,.32.31.75.75,0,0,1,.12.48,1,1,0,0,1-.18.51,1.07,1.07,0,0,1-.44.33,1.35,1.35,0,0,1-.65.09A1.5,1.5,0,0,1,953.82,451.84Z"/><path d="M958.85,450.77a1,1,0,0,1-.43.36,1.44,1.44,0,0,1-.68.1l-.44,0-.07,1.09-.89-.06.2-3.22,1.34.09a1.51,1.51,0,0,1,.65.18,1,1,0,0,1,.39.4,1.19,1.19,0,0,1,.1.57A1.14,1.14,0,0,1,958.85,450.77Zm-.75-.58c0-.23-.1-.36-.35-.38l-.36,0,0,.7.35,0C958,450.53,958.09,450.42,958.1,450.19Z"/><path d="M960,452.28a1.57,1.57,0,0,1-.57-.63,1.64,1.64,0,0,1-.17-.86,1.68,1.68,0,0,1,.28-.84,1.63,1.63,0,0,1,.64-.55,1.7,1.7,0,0,1,.84-.15,1.56,1.56,0,0,1,.82.26,1.59,1.59,0,0,1,.56.62,1.68,1.68,0,0,1,.16.87,1.74,1.74,0,0,1-.27.84,1.6,1.6,0,0,1-.63.55,1.75,1.75,0,0,1-.85.16A1.63,1.63,0,0,1,960,452.28Zm1.42-.75a.93.93,0,0,0,.24-.59,1,1,0,0,0-.16-.62.8.8,0,0,0-1.09-.07.86.86,0,0,0-.23.6.82.82,0,0,0,.16.61.76.76,0,0,0,1.08.07Z"/><path d="M965.46,449.58l0,.71-.86-.05-.16,2.5-.9-.05.16-2.51-.85-.05.05-.71Z"/><path d="M968.1,451.36a1,1,0,0,1-.43.36,1.55,1.55,0,0,1-.67.1l-.45,0-.07,1.09-.89-.06.2-3.22,1.34.09a1.38,1.38,0,0,1,.65.17,1,1,0,0,1,.39.41,1.17,1.17,0,0,1,.1.56A1.07,1.07,0,0,1,968.1,451.36Zm-.74-.58c0-.24-.11-.36-.36-.38l-.36,0,0,.7.36,0C967.21,451.12,967.34,451,967.36,450.78Z"/><path d="M970.56,452.61l-1.14-.08-.21.52-.94-.06,1.38-3.14,1,.06,1,3.29-.95-.06Zm-.18-.7-.28-1.06-.41,1Z"/><path d="M975.07,450.19l-1.28,2.12-.06,1-.9-.05.07-1-1-2.27,1,.06.48,1.28.65-1.2Z"/><path d="M959.1,473.37a.4.4,0,0,1-.15,0,.35.35,0,0,1-.12-.07.44.44,0,0,1-.08-.11.59.59,0,0,1,0-.14h.14a.2.2,0,0,0,.06.15.32.32,0,0,0,.36,0,.14.14,0,0,0,.06-.12.08.08,0,0,0,0-.07s0,0-.06,0a.2.2,0,0,0-.08,0l-.1,0-.12,0-.1-.05a.32.32,0,0,1-.08-.09.3.3,0,0,1,0-.14.2.2,0,0,1,0-.11.24.24,0,0,1,.08-.09l.11-.05h.15a.41.41,0,0,1,.26.1.32.32,0,0,1,.09.23h-.14s0,0,0-.07l0-.06a.18.18,0,0,0-.07,0l-.1,0a.31.31,0,0,0-.15,0,.16.16,0,0,0-.07.11.11.11,0,0,0,0,.08l0,.05.07,0,.09,0,.13,0,.11.05a.18.18,0,0,1,.08.09.21.21,0,0,1,0,.14.35.35,0,0,1,0,.12.39.39,0,0,1-.08.1l-.13.05Z" style="fill:#8ab900"/><path d="M960,473.42a.33.33,0,0,1-.15,0l-.11-.08,0,.35h-.13l.07-1h.13v.1a.26.26,0,0,1,.11-.07.41.41,0,0,1,.16,0l.15,0a.48.48,0,0,1,.11.09.33.33,0,0,1,.07.13.4.4,0,0,1,0,.15.83.83,0,0,1,0,.15l-.09.12-.13.07A.36.36,0,0,1,960,473.42Zm0-.65-.11,0-.09,0-.06.08a.3.3,0,0,0,0,.1.16.16,0,0,0,0,.1.19.19,0,0,0,0,.09.16.16,0,0,0,.08.06.19.19,0,0,0,.1,0h.11l.08-.05a.21.21,0,0,0,.06-.08.23.23,0,0,0,0-.11.34.34,0,0,0,0-.1l0-.09-.08-.06Z" style="fill:#8ab900"/><path d="M960.87,472.7l.15,0,.12.09a.54.54,0,0,1,.07.13.39.39,0,0,1,0,.15.33.33,0,0,1,0,.15.35.35,0,0,1-.22.19.33.33,0,0,1-.15,0l-.15,0-.12-.09a.35.35,0,0,1-.08-.13.78.78,0,0,1,0-.16.83.83,0,0,1,0-.15.31.31,0,0,1,.09-.11.33.33,0,0,1,.13-.07A.41.41,0,0,1,960.87,472.7Zm0,.12-.11,0-.08.05a.16.16,0,0,0-.06.08.19.19,0,0,0,0,.1.37.37,0,0,0,0,.11l0,.09.08.06a.38.38,0,0,0,.1,0l.11,0,.08,0a.27.27,0,0,0,.07-.08.3.3,0,0,0,0-.1.2.2,0,0,0,0-.11.41.41,0,0,0-.05-.09l-.08-.06A.17.17,0,0,0,960.86,472.82Z" style="fill:#8ab900"/><path d="M961.71,472.77v.12l-.2,0,0,.39s0,.05,0,.06a.05.05,0,0,0,0,0l0,0h.12v.11h-.07l-.1,0-.08-.05a.22.22,0,0,1,0-.08.34.34,0,0,1,0-.11l0-.39h-.11v-.12h.11l0-.2h.13l0,.21Z" style="fill:#8ab900"/><path d="M961.94,473.2l0,.33h-.14l.06-1,.39,0,.16,0,.11.08a.75.75,0,0,1,.07.12.59.59,0,0,1,0,.14.57.57,0,0,1,0,.14.44.44,0,0,1-.08.11l-.13.07a.38.38,0,0,1-.15,0Zm0-.58,0,.44.24,0h.1l.07,0a.2.2,0,0,0,.06-.07.29.29,0,0,0,0-.09.28.28,0,0,0,0-.09l0-.07a.13.13,0,0,0-.07,0l-.09,0Z" style="fill:#444"/><path d="M963.28,473.51a.36.36,0,0,1-.12.08.41.41,0,0,1-.16,0,.33.33,0,0,1-.15,0,.27.27,0,0,1-.12-.09.35.35,0,0,1-.08-.13.41.41,0,0,1,0-.16.33.33,0,0,1,0-.15.27.27,0,0,1,.09-.12.35.35,0,0,1,.13-.08.29.29,0,0,1,.16,0,.42.42,0,0,1,.16,0,.48.48,0,0,1,.11.09v-.1h.14l-.05.77h-.14Zm-.23-.57-.11,0-.09.05a.16.16,0,0,0-.06.08.23.23,0,0,0,0,.11.41.41,0,0,0,0,.11.47.47,0,0,0,.06.09l.08.06a.17.17,0,0,0,.1,0,.2.2,0,0,0,.11,0l.09-.05a.16.16,0,0,0,.06-.08.2.2,0,0,0,0-.11.34.34,0,0,0,0-.1.33.33,0,0,0-.06-.1l-.08-.06Z" style="fill:#444"/><path d="M963.93,473.64a.63.63,0,0,1-.07.12.36.36,0,0,1-.08.09l-.1,0h-.15v-.12h0a.21.21,0,0,0,.12,0,.27.27,0,0,0,.1-.11l-.26-.78h.15l.19.6.24-.57h.14Z" style="fill:#444"/><path d="M962.64,472a.37.37,0,0,1,0-.23.4.4,0,0,1,.79.05.43.43,0,0,1-.09.22h0l-.36.53-.29-.57Zm.32.09a.3.3,0,1,1,.31-.28.3.3,0,0,1-.31.28Z" style="fill:#8ab900;fill-rule:evenodd"/><rect x="955.05" y="454.61" width="16.54" height="16.54" transform="translate(31.22 -60.03) rotate(3.63)" style="fill:#fff"/><rect x="956.26" y="455.2" width="4.92" height="4.92" transform="matrix(0.06, -1, 1, 0.06, 441.32, 1385.5)"/><polygon points="961.34 455.36 962.04 455.4 961.99 456.1 962.69 456.15 962.65 456.85 961.95 456.81 961.9 457.51 962.6 457.55 962.65 456.85 963.35 456.89 963.31 457.6 964.01 457.64 963.92 459.04 963.22 459 963.13 460.4 962.43 460.36 962.47 459.66 961.77 459.61 961.68 461.01 963.08 461.1 963.04 461.81 962.34 461.76 962.29 462.46 961.59 462.42 961.55 463.12 960.85 463.07 960.89 462.37 960.19 462.33 960.23 461.63 960.93 461.67 960.98 460.97 959.58 460.88 959.49 462.28 960.19 462.33 960.14 463.03 960.85 463.07 960.8 463.78 959.4 463.69 959.44 462.99 958.04 462.9 958 463.6 958.7 463.64 958.65 464.34 961.46 464.52 961.41 465.22 962.12 465.27 962.07 465.97 961.37 465.93 961.32 466.63 962.03 466.67 961.98 467.37 962.68 467.42 962.55 469.52 961.85 469.48 961.8 470.18 960.4 470.09 960.71 465.18 955.8 464.87 955.89 463.46 956.59 463.51 956.55 464.21 957.25 464.25 957.43 461.45 956.73 461.4 956.68 462.11 955.98 462.06 956.11 459.96 961.02 460.27 961.34 455.36" style="fill:#fff"/><rect x="962.01" y="455.42" width="0.7" height="0.7" transform="translate(446.61 1387.37) rotate(-86.37)"/><rect x="963.07" y="455.14" width="0.7" height="1.41" transform="translate(447.53 1388.48) rotate(-86.37)" style="fill:#fff"/><polygon points="964.14 455.54 965.54 455.63 965.32 459.13 964.62 459.09 964.58 459.79 963.87 459.75 963.74 461.85 964.44 461.89 964.4 462.6 962.99 462.51 962.95 463.21 961.55 463.12 961.59 462.42 962.29 462.46 962.34 461.76 963.04 461.81 963.08 461.1 961.68 461.01 961.77 459.61 962.47 459.66 962.43 460.36 963.13 460.4 963.22 459 963.92 459.04 964.01 457.64 964.71 457.69 964.8 456.28 964.1 456.24 964.14 455.54"/><polygon points="965.54 455.63 966.25 455.67 965.93 460.58 970.84 460.89 970.8 461.59 970.1 461.55 970.01 462.95 967.9 462.82 967.99 461.42 967.29 461.37 967.11 464.18 967.82 464.22 967.73 465.62 968.43 465.67 968.47 464.97 969.88 465.06 969.92 464.35 969.22 464.31 969.26 463.61 969.96 463.65 970.01 462.95 970.71 463 970.35 468.61 968.95 468.52 969.04 467.12 968.34 467.07 968.38 466.37 966.98 466.28 967.07 464.88 965.67 464.79 965.62 465.49 966.32 465.53 966.28 466.24 964.17 466.1 964.13 466.8 964.83 466.85 964.79 467.55 964.09 467.5 964.04 468.21 963.34 468.16 963.38 467.46 962.68 467.42 962.73 466.71 962.03 466.67 962.07 465.97 963.47 466.06 963.52 465.36 964.92 465.44 965.05 463.34 965.76 463.39 965.71 464.09 966.41 464.13 966.59 461.33 965.89 461.28 965.8 462.68 964.4 462.6 964.44 461.89 963.74 461.85 963.87 459.75 964.58 459.79 964.49 461.19 965.19 461.24 965.28 459.83 964.58 459.79 964.62 459.09 965.32 459.13 965.54 455.63" style="fill:#fff"/><rect x="966.08" y="455.82" width="4.92" height="4.92" transform="translate(449.9 1395.88) rotate(-86.37)"/><rect x="956.97" y="455.9" width="3.51" height="3.51" transform="translate(441.32 1385.5) rotate(-86.37)" style="fill:#fff"/><polygon points="962.69 456.15 964.1 456.24 964.01 457.64 963.31 457.6 963.35 456.89 962.65 456.85 962.69 456.15"/><rect x="963.7" y="456.61" width="1.41" height="0.7" transform="translate(447.33 1390.52) rotate(-86.37)" style="fill:#fff"/><rect x="966.79" y="456.52" width="3.51" height="3.51" transform="matrix(0.06, -1, 1, 0.06, 449.9, 1395.88)" style="fill:#fff"/><rect x="957.67" y="456.6" width="2.11" height="2.11" transform="translate(441.32 1385.5) rotate(-86.37)"/><rect x="961.92" y="456.83" width="0.7" height="0.7" transform="translate(445.12 1388.6) rotate(-86.37)"/><rect x="967.49" y="457.23" width="2.11" height="2.11" transform="translate(449.9 1395.88) rotate(-86.37)"/><rect x="961.84" y="458.23" width="0.7" height="0.7" transform="translate(443.64 1389.82) rotate(-86.37)"/><rect x="964.18" y="460.16" width="1.41" height="0.7" transform="matrix(0.06, -1, 1, 0.06, 444.24, 1394.32)"/><polygon points="959.58 460.88 960.98 460.97 960.93 461.67 960.23 461.63 960.19 462.33 959.49 462.28 959.58 460.88"/><polygon points="965.89 461.28 966.59 461.33 966.41 464.13 965.71 464.09 965.76 463.39 965.05 463.34 964.92 465.44 963.52 465.36 963.56 464.65 964.26 464.7 964.31 464 963.61 463.95 963.65 463.25 964.35 463.3 964.4 462.6 965.8 462.68 965.89 461.28"/><polygon points="967.29 461.37 967.99 461.42 967.9 462.82 970.01 462.95 969.96 463.65 969.26 463.61 969.22 464.31 969.92 464.35 969.88 465.06 968.47 464.97 968.43 465.67 967.73 465.62 967.82 464.22 968.52 464.26 968.56 463.56 967.86 463.52 967.82 464.22 967.11 464.18 967.29 461.37"/><rect x="968.67" y="461.48" width="0.7" height="0.7" transform="translate(446.8 1399.69) rotate(-86.37)"/><rect x="969.7" y="461.92" width="1.41" height="0.7" transform="translate(447.65 1401.48) rotate(-86.37)"/><polygon points="956.73 461.4 957.43 461.45 957.25 464.25 956.55 464.21 956.59 463.51 955.89 463.46 955.98 462.06 956.68 462.11 956.73 461.4"/><rect x="958.11" y="461.51" width="0.7" height="0.7" transform="translate(436.87 1389.18) rotate(-86.37)"/><rect x="960.17" y="462.35" width="0.7" height="0.7" transform="translate(437.96 1392.01) rotate(-86.37)"/><polygon points="962.99 462.51 964.4 462.6 964.35 463.3 963.65 463.25 963.61 463.95 964.31 464 964.26 464.7 963.56 464.65 963.52 465.36 962.12 465.27 962.16 464.57 962.86 464.61 962.9 463.91 962.2 463.87 962.16 464.57 961.46 464.52 961.55 463.12 962.95 463.21 962.99 462.51" style="fill:#fff"/><polygon points="958.04 462.9 959.44 462.99 959.4 463.69 960.8 463.78 960.85 463.07 961.55 463.12 961.46 464.52 958.65 464.34 958.7 463.64 958 463.6 958.04 462.9"/><rect x="967.84" y="463.54" width="0.7" height="0.7" transform="translate(443.96 1400.79) rotate(-86.37)" style="fill:#fff"/><rect x="962.18" y="463.89" width="0.7" height="0.7" transform="translate(438.32 1395.47) rotate(-86.37)"/><rect x="961.43" y="464.54" width="0.7" height="0.7" transform="translate(436.96 1395.34) rotate(-86.37)"/><polygon points="965.67 464.79 967.07 464.88 966.98 466.28 968.38 466.37 968.34 467.07 966.94 466.98 966.89 467.68 965.49 467.59 965.4 469 963.29 468.86 963.25 469.56 962.55 469.52 962.68 467.42 963.38 467.46 963.34 468.16 964.04 468.21 964.09 467.5 964.79 467.55 964.83 466.85 964.13 466.8 964.17 466.1 966.28 466.24 966.32 465.53 965.62 465.49 965.67 464.79"/><rect x="955.64" y="465.02" width="4.92" height="4.92" transform="translate(430.93 1394.08) rotate(-86.37)"/><rect x="962.44" y="464.96" width="0.7" height="1.41" transform="translate(437.14 1397.06) rotate(-86.37)"/><rect x="969.11" y="465.73" width="0.7" height="0.7" transform="translate(442.96 1404.11) rotate(-86.37)"/><rect x="956.34" y="465.72" width="3.51" height="3.51" transform="translate(430.93 1394.08) rotate(-86.37)" style="fill:#fff"/><rect x="961.35" y="465.95" width="0.7" height="0.7" transform="translate(435.48 1396.56) rotate(-86.37)"/><rect x="957.05" y="466.42" width="2.11" height="2.11" transform="translate(430.93 1394.08) rotate(-86.37)"/><rect x="962" y="466.69" width="0.7" height="0.7" transform="translate(435.35 1397.92) rotate(-86.37)"/><polygon points="966.94 466.98 968.34 467.07 968.16 469.88 967.46 469.83 967.5 469.13 966.8 469.09 966.71 470.49 964.61 470.36 964.65 469.65 963.25 469.56 963.29 468.86 965.4 469 965.36 469.7 966.06 469.74 966.1 469.04 965.4 469 965.49 467.59 966.89 467.68 966.94 466.98" style="fill:#fff"/><polygon points="968.34 467.07 969.04 467.12 968.95 468.52 970.35 468.61 970.31 469.31 968.91 469.22 968.86 469.92 969.56 469.97 969.52 470.67 966.71 470.49 966.8 469.09 967.5 469.13 967.46 469.83 968.16 469.88 968.34 467.07"/><rect x="965.38" y="469.02" width="0.7" height="0.7" transform="translate(436.19 1403.46) rotate(-86.37)"/><polygon points="968.91 469.22 970.31 469.31 970.22 470.71 969.52 470.67 969.56 469.97 968.86 469.92 968.91 469.22" style="fill:#fff"/><rect x="961.83" y="469.5" width="0.7" height="0.7" transform="translate(432.38 1400.37) rotate(-86.37)"/><rect x="962.53" y="469.54" width="0.7" height="0.7" transform="translate(433 1401.11) rotate(-86.37)" style="fill:#fff"/><rect x="963.58" y="469.26" width="0.7" height="1.41" transform="translate(433.92 1402.22) rotate(-86.37)"/><path d="M447.44,375.14s-15.78-11.52-37.43-3.45l9.3,18,23.27,3.41,5.75-13.86Z" style="fill:#dc7f17"/><path d="M381.06,375.14s14-11.52,50.15-3.45l-3.25,18-38.8,3.41-9.6-13.86Z" style="fill:#dc7f17"/><path d="M444.38,308.13s10.4,6-.7,21.26L430.33,309Z"/><path d="M429.56,343c.2,4.94,4.31,8,9.25,7.82s8.7-5.44,8.5-10.37-4.23-6.94-9.17-6.74A9,9,0,0,0,429.56,343Z" style="fill:#632d09"/><polygon points="408.86 349.55 405.25 396.72 427.43 397.24 426.34 355.94 408.86 349.55" style="fill:#7a4108"/><path d="M426.86,375.45s-13.62-3.2-21.34-19.65l21,5.17Z" style="fill:#632d09"/><path d="M426.88,301s19.63.67,18.11,26.45-4.57,32.63-14.9,38c-9.28,4.86-21.14.5-27.86-10.48a39.08,39.08,0,0,1-5-15.82l-1.52-6.74S387.67,299,426.88,301Z" style="fill:#7a4108"/><polyline points="430.6 337.24 432.89 342.98 429.56 344.82" style="fill:none;stroke:#000;stroke-linecap:round;stroke-linejoin:round;stroke-width:0.579753px"/><path d="M422.51,333.56s-.05-3.56-6.13-3.05c-5.47.46-6.09,3.19-6.09,3.19s.76,4.74,6.75,4.84S422.51,333.56,422.51,333.56Z" style="fill:#fff"/><g style="clip-path:url(#clip-path-4)"><path d="M413.49,334.13c0,2.53,1.74,4.56,3.84,4.54s3.77-2.1,3.75-4.63-1.74-4.56-3.83-4.53S413.47,331.6,413.49,334.13Z"/></g><path d="M422.3,332.66c-3.27-3-9.51-3.07-11.87,1.11-.08.18-.37,0-.27-.13,2.4-4.64,9.09-4.77,12.82-1.66a.48.48,0,1,1-.68.68Z"/><path d="M433.72,333.59s0-3.47,4.16-3.08c3.76.35,4.23,3,4.23,3s-.42,4.18-4.54,4.39S433.72,333.59,433.72,333.59Z" style="fill:#fff"/><g style="clip-path:url(#clip-path-5)"><path d="M440.72,334c0,2.46-1.21,4.47-2.75,4.49s-2.82-2-2.84-4.43,1.2-4.47,2.75-4.49S440.69,331.54,440.72,334Z"/></g><path d="M433.28,332.17c2.66-3.33,7.52-2.89,9,1.29,0,.16-.18.24-.23.09-1.47-3.72-5.78-4.06-8.07-.94a.39.39,0,1,1-.65-.44Z"/><path d="M415.35,318.72a18.66,18.66,0,0,0-6.45,1.56c-2.1,1.12-2,3.15-.21,4.09,1.1.58,4.31.88,6.47.78,6.81-.32,8-2.48,7.85-4.1C422.79,318.77,418.15,318.44,415.35,318.72Z"/><path d="M439.47,318.82a13.48,13.48,0,0,1,5.16,1.74c1.72,1.16,1.79,3.13.48,4a9.14,9.14,0,0,1-5,.54c-5.47-1-6.44-2.69-6.44-4.26C433.67,318.63,437.26,318.46,439.47,318.82Z"/><path d="M420.05,348.93s5.54,3.85,10.26,2.31c0,0-.57,2.32-4.38,1.76A9.12,9.12,0,0,1,420.05,348.93Z"/><path d="M401,306.32c.2-.18,6.85,9.67-1.36,18.82l1.77,14.19-3.24,1.35-5.36-8.77,0-17.25Z"/><path d="M428.28,295.89s-15.95-9.53-32.09-.43c-12.7,7.15,2.13,21.09,2.13,21.09l3.22-7.47,17-7.2Z"/><path d="M396.13,303.88s-13.05-2.4-14.81,10.76S397.07,347,397.07,347Z"/><path d="M402.52,345.62c-1.07,4.83-3.41,6.66-9.75,5.36-4.84-1-7.61-6.89-6.55-11.71s5-5.95,10-4.36C399.76,336,403.58,340.8,402.52,345.62Z" style="fill:#7a4108"/><path d="M391.27,340.11s4.57-1,6.16,5.48" style="fill:none;stroke:#000;stroke-linecap:round;stroke-linejoin:round;stroke-width:0.579753px"/><path d="M421.47,293.07s2,1.32,14.92-.71c18.62-2.91,28.19,18.61,5,20.68s-44.29-4.91-44.29-4.91Z"/><polygon points="486.08 491.18 496.81 576.62 479.87 580.56 458.32 505.97 486.08 491.18" style="fill:#7a4108"/><path d="M507.72,585.52l3.39,1.05a1.68,1.68,0,0,1,.93-.7c1-.3,2.3-.25,3.27-.65,0,0,0,0,0,0a7.27,7.27,0,0,0-.18-3.18,7.77,7.77,0,0,0-1.66-3.07l-10.34-6.52c-11.06-7.27-17.11,1.33-17.11,1.33l-6.27,6.06c-1.73,1.67-1.74,4.92-1.42,7.08a26.47,26.47,0,0,0,2.62,7.78,49.36,49.36,0,0,0,3.72,6.36,6.1,6.1,0,0,0,2.28,2.39c1.78.83,3.54-.73,5.37-.41a11.11,11.11,0,0,0,4.26-.1,4.13,4.13,0,0,0,2-.76c.29-.28.26-.53.66-.64s1.05.17,1.52.09a5.05,5.05,0,0,0,2.12-1.17l2.47-1.92c.66-.52,1.05-1.31,2-1a2.27,2.27,0,0,0,1.82.15,3.86,3.86,0,0,0,1.06-.83l1.37-1.35a6.91,6.91,0,0,0,1.08-1.27,1.52,1.52,0,0,0,.09-1.8l-.46-.62-1.52-2-3-4Z" style="fill:#7a4108"/><path d="M507.72,585.52s-8.43,5.22-16.39-.36" style="fill:none;stroke:#1c0001;stroke-linecap:round;stroke-linejoin:round;stroke-width:0.302803px"/><path d="M483,641.46h0a1.71,1.71,0,0,1-1.66-1.8,180.31,180.31,0,0,1,3.2-26c4-19.15,10.66-28.86,19.82-28.86s15.68,9.72,19.32,28.89a180.15,180.15,0,0,1,2.72,26.05,1.71,1.71,0,0,1-1.69,1.77h0a1.72,1.72,0,0,1-1.73-1.67c-.39-15.85-4.27-51.6-18.62-51.6S485.48,624,484.8,639.82A1.73,1.73,0,0,1,483,641.46Z" style="fill:#031800"/><polygon points="574.48 773.32 438.97 773.32 456.09 635.02 552.29 635.02 574.48 773.32" style="fill:#831900"/><polygon points="556.96 773.32 432.68 773.32 456.09 635.02 552.29 635.02 556.96 773.32" style="fill:#bb3f00"/><path d="M500.68,674.6a26.77,26.77,0,1,0,26.77,26.77A26.8,26.8,0,0,0,500.68,674.6Zm1.08,36.66v-9.38h12.1a35,35,0,0,1-1.43,9.38Zm7.58,10.68a29.55,29.55,0,0,0,4.65-8.53h8.16a24.51,24.51,0,0,1-16,12A26.4,26.4,0,0,0,509.34,721.94Zm2.36-8.53a27.4,27.4,0,0,1-4,7.13,22.13,22.13,0,0,1-5.94,5.42V713.41Zm-9.94-25.22V676.78q.48,0,1,.06a33.46,33.46,0,0,1,8.39,11.35Zm11.7,0a35.65,35.65,0,0,0-3.6-6.58,36.46,36.46,0,0,0-3.39-4.17,24.72,24.72,0,0,1,15,10.75Zm-11.7,11.53v-9.38H512a30.84,30.84,0,0,1,1.86,9.38Zm14.24,0a33.19,33.19,0,0,0-1.73-9.38h8.42a24.2,24.2,0,0,1,2.55,9.38Zm9.29,2.16a24.38,24.38,0,0,1-2.06,9.38h-8.56a37.92,37.92,0,0,0,1.34-9.38Zm-38.35,9.38h-8.8a24.39,24.39,0,0,1-2.07-9.38h9.53A37.92,37.92,0,0,0,486.94,711.26Zm3.56-23.07a32.91,32.91,0,0,1,3-5.3,32.07,32.07,0,0,1,5.43-6.07l.69,0v11.41Zm9.11,2.15v9.38H487.77a31,31,0,0,1,1.85-9.38Zm-19.71-2.15a24.7,24.7,0,0,1,15.32-10.82,35.89,35.89,0,0,0-3.46,4.24,35.11,35.11,0,0,0-3.61,6.58Zm19.71,13.69v9.38H489.18a35.68,35.68,0,0,1-1.43-9.38Zm-23.49-2.16a24.44,24.44,0,0,1,2.56-9.38h8.66a33.19,33.19,0,0,0-1.73,9.38Zm11.5,13.69a29.79,29.79,0,0,0,4.65,8.53,27.63,27.63,0,0,0,3.3,3.51,24.83,24.83,0,0,1-16.35-12Zm12,0v12.4a25.35,25.35,0,0,1-9.69-12.4Z" style="fill:#831900"/><circle cx="475.04" cy="641.95" r="4.24" style="fill:#831900"/><circle cx="518.47" cy="641.95" r="4.24" style="fill:#831900"/><path d="M475.15,641.46h0a1.77,1.77,0,0,1-1.72-1.86,186.31,186.31,0,0,1,3.31-26.93c4.13-19.8,11-29.84,20.5-29.84s16.21,10,20,29.87A187.23,187.23,0,0,1,520,639.63a1.78,1.78,0,0,1-1.76,1.83h0a1.77,1.77,0,0,1-1.78-1.73c-.4-16.39-4.42-53.35-19.25-53.35s-19.57,37-20.28,53.38A1.77,1.77,0,0,1,475.15,641.46Z" style="fill:#031800"/><path d="M466.71,409.24c17,31.82,26.61,72.37,25.08,80.48a15.26,15.26,0,0,1-4.26,8h0c-9.25,9.23-26.38,4.15-31.35-9.3l-14.56-36S460.67,397.9,466.71,409.24Z" style="fill:#8ab900"/><path d="M452.3,490.18c.18,2.23,4.86,49.85,17,77.11L503.58,560s-8.41-60.43-12-71Z" style="fill:#8ab900"/><polygon points="519.48 845.77 504.96 770.24 476.58 772.21 495.9 857.09 524.09 846.31 519.48 845.77" style="fill:#7a4108"/><path d="M489.9,845.75s21.3,4.6,27.67-10.06l52.83,16.2-82.29,14.75Z"/><polygon points="571.88 858.96 489.58 873.72 488.11 866.64 570.4 851.88 571.88 858.96" style="fill:#fff"/><path d="M519.44,846.71a1.3,1.3,0,0,0,.46-.52,27.32,27.32,0,0,1,4.84-7.32,1.27,1.27,0,0,0,0-1.85,1.39,1.39,0,0,0-1.91,0,29,29,0,0,0-5.39,8.07,1.33,1.33,0,0,0,.69,1.75A1.39,1.39,0,0,0,519.44,846.71Z" style="fill:#fff"/><path d="M526.6,848.82a1.32,1.32,0,0,0,.46-.53,27,27,0,0,1,4.85-7.31,1.3,1.3,0,0,0,0-1.86,1.4,1.4,0,0,0-1.91,0,28.7,28.7,0,0,0-5.39,8.07,1.32,1.32,0,0,0,.68,1.75A1.36,1.36,0,0,0,526.6,848.82Z" style="fill:#fff"/><path d="M533.76,850.93a1.25,1.25,0,0,0,.46-.53,26.76,26.76,0,0,1,4.85-7.31,1.3,1.3,0,0,0,0-1.86,1.38,1.38,0,0,0-1.91,0,29,29,0,0,0-5.39,8.07,1.32,1.32,0,0,0,.68,1.75A1.39,1.39,0,0,0,533.76,850.93Z" style="fill:#fff"/><path d="M461.39,549.69c7.4,7,60.44,271.52,60.44,271.52l-40,7.84-83-272.58Z" style="fill:#1b7388"/><polygon points="372 842.49 380.2 765.57 351.98 762.04 346.68 849.05 376.41 843.91 372 842.49" style="fill:#7a4108"/><path d="M344.19,835.82s20,8.61,29.09-4.55L422,857.34,338.41,856Z"/><polygon points="422.08 864.57 338.49 863.2 338.41 855.97 422 857.34 422.08 864.57" style="fill:#fff"/><path d="M373,842.45a1.21,1.21,0,0,0,.55-.43,27,27,0,0,1,6.17-6.24A1.27,1.27,0,0,0,380,834a1.39,1.39,0,0,0-1.87-.39,29.05,29.05,0,0,0-6.84,6.88,1.32,1.32,0,0,0,.33,1.85A1.39,1.39,0,0,0,373,842.45Z" style="fill:#fff"/><path d="M379.61,845.9a1.22,1.22,0,0,0,.55-.43,26.78,26.78,0,0,1,6.17-6.24,1.3,1.3,0,0,0,.34-1.83,1.39,1.39,0,0,0-1.87-.38A28.54,28.54,0,0,0,378,843.9a1.32,1.32,0,0,0,.34,1.84A1.37,1.37,0,0,0,379.61,845.9Z" style="fill:#fff"/><path d="M386.24,849.35a1.33,1.33,0,0,0,.54-.43,27.46,27.46,0,0,1,6.17-6.25,1.28,1.28,0,0,0,.34-1.82,1.39,1.39,0,0,0-1.87-.39,29.19,29.19,0,0,0-6.85,6.88,1.33,1.33,0,0,0,.34,1.85A1.39,1.39,0,0,0,386.24,849.35Z" style="fill:#fff"/><polygon points="412.99 569.75 383.43 818.99 341.17 818.99 363.19 537.16 411.58 537.94 412.99 569.75" style="fill:#1b7388"/><polyline points="405.82 629.44 411.58 582.61 425.32 574.45" style="fill:none;stroke:#000;stroke-linecap:round;stroke-linejoin:round;stroke-width:0.591803px"/><path d="M428.61,401.41s-2.06-8.7,7-6.62,20.44,5.8,29.41,12.35c0,0-4.24,38.1-2.19,142.86,0,0-52.53,16.52-108.36-3.23l15.19-147.39s17.19-13.07,35.72-6.07C409.83,395,423.81,401.46,428.61,401.41Z" style="fill:#8ab900"/><line x1="462.68" y1="527.6" x2="462.68" y2="430.93" style="fill:none;stroke:#000;stroke-linecap:round;stroke-linejoin:round;stroke-width:0.591803px"/><path d="M424.36,391s-.23-7.58-26.09-8.15c0,0-17.29-1-17.21-7.73,0,0-7.2,10.78,2.36,17.93,0,0-5.64,22.64,8.1,25.47C424.36,425.28,424.36,391,424.36,391Z" style="fill:#8ab900"/><path d="M421.47,391s.14-7.58,15.65-8.15c0,0,10.36-1,10.32-7.73,0,0,4.31,17.1-1.42,24.26,0,0,2.63,13.18-4.86,19.14C423,433,421.47,391,421.47,391Z" style="fill:#8ab900"/><line x1="422.55" y1="388.26" x2="422.55" y2="406.32" style="fill:none;stroke:#ee9c2d;stroke-miterlimit:10;stroke-width:0.6552319999999999px"/><path d="M447.55,396.73a20.07,20.07,0,0,1-9,7.5" style="fill:none;stroke:#000;stroke-linecap:round;stroke-linejoin:round;stroke-width:0.591803px"/><path d="M383.42,393.07s7.51,9.21,15.76,11.16" style="fill:none;stroke:#000;stroke-linecap:round;stroke-linejoin:round;stroke-width:0.591803px"/><rect x="484.58" y="593.79" width="6.82" height="11.31" rx="0.79" transform="translate(-242.54 346.87) rotate(-31.78)" style="fill:#7a4108;stroke:#1c0001;stroke-linecap:round;stroke-linejoin:round;stroke-width:0.302803px"/><rect x="491.19" y="590.18" width="6.82" height="14.11" rx="0.79" transform="translate(-240.38 350.01) rotate(-31.78)" style="fill:#7a4108;stroke:#1c0001;stroke-linecap:round;stroke-linejoin:round;stroke-width:0.302803px"/><rect x="497.11" y="586.67" width="7.22" height="14.11" rx="0.84" transform="translate(-237.62 352.71) rotate(-31.78)" style="fill:#7a4108;stroke:#1c0001;stroke-linecap:round;stroke-linejoin:round;stroke-width:0.302803px"/><rect x="504.56" y="584.6" width="6.82" height="14.11" rx="0.79" transform="translate(-235.44 356.22) rotate(-31.78)" style="fill:#7a4108;stroke:#1c0001;stroke-linecap:round;stroke-linejoin:round;stroke-width:0.302803px"/><rect x="504.94" y="578.1" width="6.82" height="14.11" rx="0.79" transform="translate(74 1227.17) rotate(-104.94)" style="fill:#7a4108;stroke:#1c0001;stroke-linecap:round;stroke-linejoin:round;stroke-width:0.302803px"/><rect x="452.49" y="437.94" width="28.59" height="51.82" rx="3.61" transform="translate(125.28 -98.66) rotate(13.92)" style="fill:#5b5b5b"/><path d="M484.64,444.87,473.71,489a1.66,1.66,0,0,1-2,1.21l-21.54-5.33a1.67,1.67,0,0,1-1.21-2l10.92-44.1a1.67,1.67,0,0,1,2-1.21L468,439a.64.64,0,0,1,.46.78l-.13.55a.88.88,0,0,0,.63,1.06l6.27,1.55a.88.88,0,0,0,1.06-.64l.13-.55a.66.66,0,0,1,.78-.47l6.18,1.54A1.66,1.66,0,0,1,484.64,444.87Z"/><polygon points="365.61 487.42 443.42 473.22 447.9 488.55 380.59 512.12 365.61 487.42" style="fill:#7a4108"/><path d="M441.33,483.24s-8.2-5.11-2.09-15.62l9.1-16.37a2.76,2.76,0,0,1,4.06-.81h0a2.77,2.77,0,0,1,1,2.93L451,462.76l18.79-15.65a3,3,0,0,1,4.53.59h0a3,3,0,0,1-.42,3.78l-12,11.36.33.77,14.05-10a2.89,2.89,0,0,1,4.19,1.54h0a2.9,2.9,0,0,1-1.26,3.44l-13.47,10.64.31,1,13.43-7.4c3.31-2,4.56-.49,5,.76h0c.44,1.17-2,3.06-3.15,3.57L467.62,476l.25.92,12.95-6.5a2.08,2.08,0,0,1,2.57,2h0a2.09,2.09,0,0,1-1.51,2.06l-14.71,8.07s-13.07,11-20,6.19Z" style="fill:#7a4108"/><path d="M370.81,412.8c15.56,29.23,24.44,66.47,23,73.92a14.09,14.09,0,0,1-3.92,7.34h0c-8.49,8.48-24.23,3.81-28.79-8.54l-9.64-18.4S344.74,426.41,370.81,412.8Z" style="fill:#8ab900"/><path d="M366.42,518.45c2-.28,45.46-7,69.85-19.53l-8.44-31.06s-55,10.79-64.47,14.6Z" style="fill:#8ab900"/><path d="M362.05,487.62s13.8,17.18,28.14,17.71,46.08-6.41,46.08-6.41" style="fill:none;stroke:#000;stroke-linecap:round;stroke-linejoin:round;stroke-width:0.591803px"/><path d="M379.56,452.32s11.8,20,19.6,22.42S429,472,429,472" style="fill:none;stroke:#000;stroke-linecap:round;stroke-linejoin:round;stroke-width:0.591803px"/><path d="M963.32,462.88,766.51,388.26H523.81a28,28,0,0,1-28-28V28a28,28,0,0,1,28-28h263.8a28,28,0,0,1,28,28V323.5Z" style="fill:#8ab900;opacity:0.59"/><rect x="529.99" y="27.78" width="257.54" height="328.54" rx="13.08" style="fill:#fff"/><rect x="529.99" y="27.78" width="257.54" height="328.54" rx="13.08" style="fill:none;stroke:#8ab900;stroke-miterlimit:10;stroke-width:6px"/><rect x="581.45" y="130.64" width="154.62" height="154.62" style="fill:#fff"/><rect x="589.76" y="138.95" width="46" height="46"/><polygon points="635.76 138.95 642.34 138.95 642.34 145.53 648.91 145.53 648.91 152.1 642.34 152.1 642.34 158.67 648.91 158.67 648.91 152.1 655.48 152.1 655.48 158.67 662.05 158.67 662.05 171.81 655.48 171.81 655.48 184.95 648.91 184.95 648.91 178.38 642.34 178.38 642.34 191.52 655.48 191.52 655.48 198.1 648.91 198.1 648.91 204.67 642.34 204.67 642.34 211.24 635.76 211.24 635.76 204.67 629.19 204.67 629.19 198.1 635.76 198.1 635.76 191.52 622.62 191.52 622.62 204.67 629.19 204.67 629.19 211.24 635.76 211.24 635.76 217.81 622.62 217.81 622.62 211.24 609.48 211.24 609.48 217.81 616.05 217.81 616.05 224.38 642.34 224.38 642.34 230.95 648.91 230.95 648.91 237.52 642.34 237.52 642.34 244.09 648.91 244.09 648.91 250.67 655.48 250.67 655.48 270.38 648.91 270.38 648.91 276.95 635.76 276.95 635.76 230.95 589.76 230.95 589.76 217.81 596.34 217.81 596.34 224.38 602.91 224.38 602.91 198.1 596.34 198.1 596.34 204.67 589.76 204.67 589.76 184.95 635.76 184.95 635.76 138.95" style="fill:#fff"/><rect x="642.33" y="138.95" width="6.57" height="6.57"/><rect x="648.91" y="138.95" width="13.14" height="6.57" style="fill:#fff"/><polygon points="662.05 138.95 675.19 138.95 675.19 171.81 668.62 171.81 668.62 178.38 662.05 178.38 662.05 198.1 668.62 198.1 668.62 204.67 655.48 204.67 655.48 211.24 642.34 211.24 642.34 204.67 648.91 204.67 648.91 198.1 655.48 198.1 655.48 191.52 642.34 191.52 642.34 178.38 648.91 178.38 648.91 184.95 655.48 184.95 655.48 171.81 662.05 171.81 662.05 158.67 668.62 158.67 668.62 145.53 662.05 145.53 662.05 138.95"/><polygon points="675.19 138.95 681.76 138.95 681.76 184.95 727.76 184.95 727.76 191.52 721.19 191.52 721.19 204.67 701.48 204.67 701.48 191.52 694.91 191.52 694.91 217.81 701.48 217.81 701.48 230.95 708.05 230.95 708.05 224.38 721.19 224.38 721.19 217.81 714.62 217.81 714.62 211.24 721.19 211.24 721.19 204.67 727.76 204.67 727.76 257.24 714.62 257.24 714.62 244.09 708.05 244.09 708.05 237.52 694.91 237.52 694.91 224.38 681.76 224.38 681.76 230.95 688.34 230.95 688.34 237.52 668.62 237.52 668.62 244.09 675.19 244.09 675.19 250.67 668.62 250.67 668.62 257.24 662.05 257.24 662.05 250.67 655.48 250.67 655.48 244.09 648.91 244.09 648.91 237.52 662.05 237.52 662.05 230.95 675.19 230.95 675.19 211.24 681.76 211.24 681.76 217.81 688.34 217.81 688.34 191.52 681.76 191.52 681.76 204.67 668.62 204.67 668.62 198.1 662.05 198.1 662.05 178.38 668.62 178.38 668.62 191.52 675.19 191.52 675.19 178.38 668.62 178.38 668.62 171.81 675.19 171.81 675.19 138.95" style="fill:#fff"/><rect x="681.76" y="138.95" width="46" height="46"/><rect x="596.34" y="145.52" width="32.86" height="32.86" style="fill:#fff"/><polygon points="648.91 145.53 662.05 145.53 662.05 158.67 655.48 158.67 655.48 152.1 648.91 152.1 648.91 145.53"/><rect x="662.05" y="145.52" width="6.57" height="13.14" style="fill:#fff"/><rect x="688.33" y="145.52" width="32.86" height="32.86" style="fill:#fff"/><rect x="602.91" y="152.1" width="19.71" height="19.71"/><rect x="642.33" y="152.1" width="6.57" height="6.57"/><rect x="694.91" y="152.1" width="19.71" height="19.71"/><rect x="642.33" y="165.24" width="6.57" height="6.57"/><rect x="668.62" y="178.38" width="6.57" height="13.14"/><polygon points="622.62 191.52 635.76 191.52 635.76 198.1 629.19 198.1 629.19 204.67 622.62 204.67 622.62 191.52"/><polygon points="681.76 191.52 688.34 191.52 688.34 217.81 681.76 217.81 681.76 211.24 675.19 211.24 675.19 230.95 662.05 230.95 662.05 224.38 668.62 224.38 668.62 217.81 662.05 217.81 662.05 211.24 668.62 211.24 668.62 204.67 681.76 204.67 681.76 191.52"/><polygon points="694.91 191.52 701.48 191.52 701.48 204.67 721.19 204.67 721.19 211.24 714.62 211.24 714.62 217.81 721.19 217.81 721.19 224.38 708.05 224.38 708.05 230.95 701.48 230.95 701.48 217.81 708.05 217.81 708.05 211.24 701.48 211.24 701.48 217.81 694.91 217.81 694.91 191.52"/><rect x="708.05" y="191.52" width="6.57" height="6.57"/><rect x="721.19" y="191.52" width="6.57" height="13.14"/><polygon points="596.34 198.1 602.91 198.1 602.91 224.38 596.34 224.38 596.34 217.81 589.76 217.81 589.76 204.67 596.34 204.67 596.34 198.1"/><rect x="609.48" y="198.1" width="6.57" height="6.57"/><rect x="629.19" y="204.67" width="6.57" height="6.57"/><polygon points="655.48 204.67 668.62 204.67 668.62 211.24 662.05 211.24 662.05 217.81 668.62 217.81 668.62 224.38 662.05 224.38 662.05 230.95 648.91 230.95 648.91 224.38 655.48 224.38 655.48 217.81 648.91 217.81 648.91 224.38 642.34 224.38 642.34 211.24 655.48 211.24 655.48 204.67" style="fill:#fff"/><polygon points="609.48 211.24 622.62 211.24 622.62 217.81 635.76 217.81 635.76 211.24 642.34 211.24 642.34 224.38 616.05 224.38 616.05 217.81 609.48 217.81 609.48 211.24"/><rect x="701.48" y="211.24" width="6.57" height="6.57" style="fill:#fff"/><rect x="648.91" y="217.81" width="6.57" height="6.57"/><rect x="642.33" y="224.38" width="6.57" height="6.57"/><polygon points="681.76 224.38 694.91 224.38 694.91 237.52 708.05 237.52 708.05 244.09 694.91 244.09 694.91 250.67 681.76 250.67 681.76 263.81 662.05 263.81 662.05 270.38 655.48 270.38 655.48 250.67 662.05 250.67 662.05 257.24 668.62 257.24 668.62 250.67 675.19 250.67 675.19 244.09 668.62 244.09 668.62 237.52 688.34 237.52 688.34 230.95 681.76 230.95 681.76 224.38"/><rect x="589.76" y="230.95" width="46" height="46"/><rect x="648.91" y="230.95" width="13.14" height="6.57"/><rect x="714.62" y="230.95" width="6.57" height="6.57"/><rect x="596.34" y="237.52" width="32.86" height="32.86" style="fill:#fff"/><rect x="642.33" y="237.52" width="6.57" height="6.57"/><rect x="602.91" y="244.1" width="19.71" height="19.71"/><rect x="648.91" y="244.1" width="6.57" height="6.57"/><polygon points="694.91 244.09 708.05 244.09 708.05 270.38 701.48 270.38 701.48 263.81 694.91 263.81 694.91 276.95 675.19 276.95 675.19 270.38 662.05 270.38 662.05 263.81 681.76 263.81 681.76 270.38 688.34 270.38 688.34 263.81 681.76 263.81 681.76 250.67 694.91 250.67 694.91 244.09" style="fill:#fff"/><polygon points="708.05 244.09 714.62 244.09 714.62 257.24 727.76 257.24 727.76 263.81 714.62 263.81 714.62 270.38 721.19 270.38 721.19 276.95 694.91 276.95 694.91 263.81 701.48 263.81 701.48 270.38 708.05 270.38 708.05 244.09"/><rect x="681.76" y="263.81" width="6.57" height="6.57"/><polygon points="714.62 263.81 727.76 263.81 727.76 276.95 721.19 276.95 721.19 270.38 714.62 270.38 714.62 263.81" style="fill:#fff"/><rect x="648.91" y="270.38" width="6.57" height="6.57"/><rect x="655.48" y="270.38" width="6.57" height="6.57" style="fill:#fff"/><rect x="662.05" y="270.38" width="13.14" height="6.57"/><path d="M586.6,98.75a19.29,19.29,0,0,1-4.48-.5,9.55,9.55,0,0,1-3.6-1.66,7,7,0,0,1-2.27-3,10.09,10.09,0,0,1-.5-4.65h8a3.16,3.16,0,0,0,.78,2.51,4,4,0,0,0,2.87.84,3.38,3.38,0,0,0,2.07-.55,1.57,1.57,0,0,0,.73-1.3,1.67,1.67,0,0,0-.86-1.4,12.63,12.63,0,0,0-2.24-1.11c-1.23-.5-2.35-1-3.37-1.55a10.9,10.9,0,0,1-2.59-1.82,7.22,7.22,0,0,1-1.66-2.36,8,8,0,0,1-.58-3.19,9.36,9.36,0,0,1,3.26-7.24,11.71,11.71,0,0,1,3.69-2.12,13.34,13.34,0,0,1,4.64-.77,15.43,15.43,0,0,1,4.53.62,9.65,9.65,0,0,1,3.49,1.86,7.35,7.35,0,0,1,2.14,3.1,9.47,9.47,0,0,1,.44,4.3H593.3a2.58,2.58,0,0,0-.55-2.29,3.18,3.18,0,0,0-2.51-.9,3.52,3.52,0,0,0-2.28.59,1.8,1.8,0,0,0-.69,1.42,1.94,1.94,0,0,0,1.21,1.71,22,22,0,0,0,2.89,1.3c.92.34,1.85.71,2.77,1.11a10.43,10.43,0,0,1,2.47,1.51,7.17,7.17,0,0,1,1.76,2.18,6.71,6.71,0,0,1,.67,3.11,9.46,9.46,0,0,1-3.4,7.33A11.66,11.66,0,0,1,591.71,98,15.85,15.85,0,0,1,586.6,98.75Z" style="fill:#444"/><path d="M612.14,98.29a9.19,9.19,0,0,1-3.07-.5,8.05,8.05,0,0,1-2.79-1.72l-2.72,9.76h-7.5l8.42-29.36h7.16l-.33,1.21a7.19,7.19,0,0,1,2.34-1,9.84,9.84,0,0,1,2.35-.31,9,9,0,0,1,3.35.62,8.36,8.36,0,0,1,2.8,1.82,8.82,8.82,0,0,1,1.92,2.87,9.6,9.6,0,0,1,.72,3.81,12,12,0,0,1-1,4.84A13.33,13.33,0,0,1,617,97.22,11.66,11.66,0,0,1,612.14,98.29Zm-3.47-10.42a3.68,3.68,0,0,0,1,2.7,3.57,3.57,0,0,0,2.62,1,4.55,4.55,0,0,0,2-.44A5.33,5.33,0,0,0,616,90a5.54,5.54,0,0,0,1.13-1.67,4.74,4.74,0,0,0,.42-2,3.73,3.73,0,0,0-1-2.73,3.63,3.63,0,0,0-2.65-1,4.31,4.31,0,0,0-1.9.44,5.61,5.61,0,0,0-1.66,1.15,5.75,5.75,0,0,0-1.15,1.69,4.91,4.91,0,0,0-.44,2Z" style="fill:#444"/><path d="M639,76a10.77,10.77,0,0,1,4.08.75,9.9,9.9,0,0,1,3.2,2,9.53,9.53,0,0,1,2.1,3.08,9.9,9.9,0,0,1,.75,3.83,12.65,12.65,0,0,1-1,5,13.22,13.22,0,0,1-6.89,7,12.28,12.28,0,0,1-5,1,11.1,11.1,0,0,1-4.15-.76,9.46,9.46,0,0,1-3.22-2.07,8.93,8.93,0,0,1-2.07-3.11,10,10,0,0,1-.74-3.85,12,12,0,0,1,1.05-5,13.62,13.62,0,0,1,2.83-4.13,13.23,13.23,0,0,1,4.14-2.8A12.34,12.34,0,0,1,639,76Zm2.89,10.76a3.82,3.82,0,0,0-1-2.72,3.47,3.47,0,0,0-2.66-1.09,4.63,4.63,0,0,0-1.9.4,4.58,4.58,0,0,0-1.57,1.11,5.43,5.43,0,0,0-1.47,3.77,4,4,0,0,0,1,2.64A3.41,3.41,0,0,0,637,92a4.57,4.57,0,0,0,2-.44,4.78,4.78,0,0,0,1.57-1.17,5.59,5.59,0,0,0,1-1.68A5.21,5.21,0,0,0,641.92,86.73Z" style="fill:#444"/><path d="M659,89.12a3,3,0,0,0,0,2.09c.26.5.83.75,1.72.75H663l-1.72,6.2h-4.14a7.55,7.55,0,0,1-3.35-.65,4.29,4.29,0,0,1-2-1.8,6,6,0,0,1-.69-2.78,12.07,12.07,0,0,1,.54-3.64l1.8-6.24h-3l1.88-6.58h3l1.51-5.32h7.37l-1.51,5.32h4.78l-1.89,6.58h-4.82Z" style="fill:#444"/><path d="M676.93,98.29a9.21,9.21,0,0,1-3.08-.5,8.15,8.15,0,0,1-2.79-1.72l-2.72,9.76h-7.5l8.42-29.36h7.16l-.34,1.22a7.26,7.26,0,0,1,2.35-1,10.29,10.29,0,0,1,2.34-.31,9.09,9.09,0,0,1,3.35.62,8.44,8.44,0,0,1,2.8,1.83,8.81,8.81,0,0,1,1.93,2.86,9.78,9.78,0,0,1,.71,3.82,12.15,12.15,0,0,1-1,4.83,13.31,13.31,0,0,1-6.75,6.91A11.45,11.45,0,0,1,676.93,98.29Zm-3.48-10.42a3.65,3.65,0,0,0,1,2.7,3.53,3.53,0,0,0,2.61,1,4.7,4.7,0,0,0,2-.44A5.5,5.5,0,0,0,680.74,90a5.93,5.93,0,0,0,1.13-1.67,4.9,4.9,0,0,0,.42-2,3.69,3.69,0,0,0-1-2.73,3.63,3.63,0,0,0-2.65-1,4.31,4.31,0,0,0-1.9.44,5.66,5.66,0,0,0-2.81,2.84,5.07,5.07,0,0,0-.43,2Z" style="fill:#444"/><path d="M704.31,97A6.89,6.89,0,0,1,702,98a9.84,9.84,0,0,1-2.35.31,9,9,0,0,1-3.35-.62,8.36,8.36,0,0,1-2.8-1.82A8.72,8.72,0,0,1,691.55,93a9.56,9.56,0,0,1-.72-3.81,12.23,12.23,0,0,1,1-4.84,13.39,13.39,0,0,1,6.75-6.91,11.53,11.53,0,0,1,4.9-1.06,9.45,9.45,0,0,1,3.08.48,7.55,7.55,0,0,1,2.74,1.69l.59-2h7.5l-6.25,21.7H704ZM707,86.77a3.65,3.65,0,0,0-1-2.7,3.5,3.5,0,0,0-2.62-1,4.53,4.53,0,0,0-2,.43,5.71,5.71,0,0,0-1.66,1.18,5.79,5.79,0,0,0-1.13,1.67,4.9,4.9,0,0,0-.42,2,3.65,3.65,0,0,0,1,2.72,3.57,3.57,0,0,0,2.64,1,4.26,4.26,0,0,0,1.89-.44,6.12,6.12,0,0,0,1.65-1.15,5.46,5.46,0,0,0,1.17-1.68,4.81,4.81,0,0,0,.43-2Z" style="fill:#444"/><path d="M723.1,103a10.4,10.4,0,0,1-3.08,2.18,10.07,10.07,0,0,1-3.58.84,24.66,24.66,0,0,1-4.46-.23l1.8-6.54a10.38,10.38,0,0,0,2.16.17,4.35,4.35,0,0,0,1.55-.33,2.84,2.84,0,0,0,1.09-.88,5.93,5.93,0,0,0,.78-1.47l-1.47-20.31h7.63l.08,11.39,6.53-11.39h8.46L726.05,99.21A22.51,22.51,0,0,1,723.1,103Z" style="fill:#444"/><circle cx="673.14" cy="61.81" r="7.43" style="fill:#8ab900"/></g></g></svg>