<svg xmlns="http://www.w3.org/2000/svg" viewBox="0 0 44 21.2">

    <g id="Layer_2" data-name="Layer 2">
        <g id="Layer_1-2" data-name="Layer 1">
            <g id="Transfer">
                <path d="M34 13.88A3.13 3.13 0 0 1 32.87 15a4.26 4.26 0 0 1-1.81.51v1.21h-.95V15.5a4.12 4.12 0 0 1-2.4-.91 2.64 2.64 0 0 1-.94-2.07H29a1.31 1.31 0 0 0 1.11 1.29V11a13 13 0 0 1-1.73-.54 2.78 2.78 0 0 1-1.13-.86 2.53 2.53 0 0 1-.48-1.63 2.68 2.68 0 0 1 .93-2.11 4 4 0 0 1 2.41-.94V3.68h.95v1.21a3.94 3.94 0 0 1 2.29.86 2.92 2.92 0 0 1 1 2.06h-2.29a1.33 1.33 0 0 0-.31-.75 1.34 1.34 0 0 0-.69-.46v2.82a16.46 16.46 0 0 1 1.77.54 2.77 2.77 0 0 1 1.12.85 2.48 2.48 0 0 1 .48 1.62 2.88 2.88 0 0 1-.43 1.45Zm-4.76-5.24a2.12 2.12 0 0 0 .87.49V6.56a1.39 1.39 0 0 0-.85.4 1.22 1.22 0 0 0-.32.88 1.1 1.1 0 0 0 .3.8ZM32 13.38a1.27 1.27 0 0 0 .32-.86 1 1 0 0 0-.32-.79 2.26 2.26 0 0 0-.89-.5v2.61a1.53 1.53 0 0 0 .89-.46Z" style="fill:#8cbb00"/>
                <path class="cls-2" d="M3.61 0a1.37 1.37 0 1 0 0 2.73h14.06v1.75H8.85a1.37 1.37 0 1 0 0 2.73h8.82v2h-2a1.37 1.37 0 1 0 0 2.74h2v1.68h-7.54a1.37 1.37 0 1 0 0 2.73h7.54v2.09H5.27a1.37 1.37 0 1 0 0 2.73H44V0Zm16.18 16.31h-.29V4.59h.29a2.49 2.49 0 0 0 2.49-2.5v-.27h16.89v.27a2.49 2.49 0 0 0 2.49 2.5h.52v11.72h-.52a2.49 2.49 0 0 0-2.49 2.5v.57H22.28v-.57a2.49 2.49 0 0 0-2.49-2.5ZM2 18.47h-.63a1.37 1.37 0 1 0 0 2.73H2a1.37 1.37 0 1 0 0-2.73Z"/>
                <circle class="cls-2" cx="12.06" cy="10.6" r="1.37"/>
            </g>
        </g>
    </g>
</svg>
