<svg xmlns="http://www.w3.org/2000/svg" viewBox="0 0 44 24.14"><defs><style>.cls-1{fill:#8cbb00;}</style></defs><g id="Layer_2" data-name="Layer 2"><g id="Layer_1-2" data-name="Layer 1"><g id="Travel"><path class="cls-1" d="M14.07,23.56l-7.27.57a2.56,2.56,0,0,1,1.34-.85c1.9-.41,3.79-.87,5.69-1.32l.37-.11-3.07-4.27L8.1,18l-6.73.85-.67.08a.68.68,0,0,1-.7-.25,1,1,0,0,1,.76-.53c1-.26,2-.52,2.93-.76q10.49-2.6,21-5.16a5.06,5.06,0,0,0,2-1c2-1.65,3.83-3.46,5.68-5.26,1.14-1.11,2.26-2.24,3.43-3.32A14.76,14.76,0,0,1,38.73.52,3.19,3.19,0,0,1,40.6.05c.53,0,1.08,0,1.62,0a2.23,2.23,0,0,1,1.24.29A.91.91,0,0,1,44,1.37,9.36,9.36,0,0,1,43.39,3a13.08,13.08,0,0,1-2.53,3.61,70.06,70.06,0,0,1-6.21,5.6c-2.81,2.27-5.67,4.48-8.51,6.7a19.25,19.25,0,0,1-3.74,2.14q-3.27,1.56-6.66,2.84l-.31.11C14.71,24.24,14.56,24.2,14.07,23.56Zm.8-6.46,0,.14c1,.33,2,.67,3,1a1.24,1.24,0,0,0,.76-.07,6.89,6.89,0,0,0,2.16-1.8Z"/><path class="cls-1" d="M30.69,16.3,36.15,12l5.24,3a8,8,0,0,1-.71.85,1.12,1.12,0,0,1-.59.25A8.44,8.44,0,0,1,39,16.2l-7.92.12Z"/></g></g></g></svg>