<svg xmlns="http://www.w3.org/2000/svg" viewBox="0 0 15.96 15.96"><defs><style>.cls-1{fill:#fff;}</style></defs><g id="Layer_2" data-name="Layer 2"><g id="Layer_1-2" data-name="Layer 1"><g id="user"><path class="cls-1" d="M8,1.38a3.77,3.77,0,1,0,3.76,3.76A3.77,3.77,0,0,0,8,1.38ZM8,7.89a2.75,2.75,0,1,1,2.75-2.75A2.75,2.75,0,0,1,8,7.89Z"/><path class="cls-1" d="M8,0A8,8,0,0,0,1.11,12a9.8,9.8,0,0,0,.58.85,8,8,0,0,0,12.57,0,6.07,6.07,0,0,0,.58-.85A7.9,7.9,0,0,0,16,8,8,8,0,0,0,8,0ZM8,14.94a7,7,0,0,1-5.52-2.72,9,9,0,0,1,11,0A7,7,0,0,1,8,14.94Zm6.08-3.57A10,10,0,0,0,8,9.3,9.89,9.89,0,0,0,1.9,11.37,6.86,6.86,0,0,1,1,8a7,7,0,1,1,13.05,3.39Z"/></g></g></g></svg>