<svg xmlns="http://www.w3.org/2000/svg" viewBox="0 0 44 30.35"><defs><style>.cls-1{fill:#fff;}.cls-2{fill:#8cbb00;}</style></defs><g id="Layer_2" data-name="Layer 2"><g id="Layer_1-2" data-name="Layer 1"><g id="Vouchers"><path class="cls-1" d="M44,30.35H0V26.58H.75a1.52,1.52,0,1,0,0-3H0v-3.8c.27,0,.52,0,.77,0a1.52,1.52,0,0,0,0-3c-.24,0-.47,0-.74,0v-3.8H.74a1.52,1.52,0,1,0,0-3c-.23,0-.47,0-.72,0V6.1H7.48l-.35-.41a3.44,3.44,0,0,1,.55-5,3.34,3.34,0,0,1,4.88.89,18,18,0,0,1,1,2.39l.22.56c.28-.78.51-1.47.76-2.14a3.44,3.44,0,1,1,6,3.09c-.14.18-.29.35-.47.57H44Zm-42.45-16c-.07.83-.07.83.6,1.18a3,3,0,0,1,1.56,3.35,3.07,3.07,0,0,1-2.18,2.3v.91a3,3,0,0,1,2.25,3,3,3,0,0,1-2.24,3v.82H12.92v-3h1.51v3H42.49V7.63H16.75a7.18,7.18,0,0,1,2.31,6h-1.5a6,6,0,0,0-.65-3.33,5.34,5.34,0,0,0-2.5-2.37V10.6H12.9V8.11L12.79,8a14.75,14.75,0,0,0-1.34,1.15A5.81,5.81,0,0,0,10,13.64H8.48a7.28,7.28,0,0,1,2.33-6H1.56A.8.8,0,0,0,2.1,8.72a2.91,2.91,0,0,1,1.61,3.35A3,3,0,0,1,1.55,14.36ZM14.87,5.87l.6-.08c1-.2,2.09-.35,3.1-.64a1.69,1.69,0,0,0,1.16-1.86,1.93,1.93,0,0,0-1.48-1.71,1.68,1.68,0,0,0-2,.87C15.74,3.53,15.35,4.67,14.87,5.87Zm-2.24,0c-.38-1.07-.69-2.08-1.1-3a2.46,2.46,0,0,0-.86-1,1.71,1.71,0,0,0-2,.08,1.82,1.82,0,0,0-.79,1.9A1.8,1.8,0,0,0,9.33,5.32C10.39,5.53,11.46,5.69,12.63,5.89Z"/><path class="cls-2" d="M38,11.17l.92.95L25.79,25.25l-.9-1Z"/><path class="cls-2" d="M31.13,14.09a2.66,2.66,0,1,1-2.62-2.69A2.68,2.68,0,0,1,31.13,14.09Zm-2.7,1.1a1.16,1.16,0,0,0,1.18-1.11,1.15,1.15,0,0,0-1.08-1.16A1.13,1.13,0,0,0,27.34,14,1.15,1.15,0,0,0,28.43,15.19Z"/><path class="cls-2" d="M32.65,22.4a2.66,2.66,0,1,1,2.65,2.66A2.66,2.66,0,0,1,32.65,22.4Zm3.79,0a1.14,1.14,0,1,0-1.13,1.16A1.15,1.15,0,0,0,36.44,22.38Z"/><path class="cls-1" d="M12.94,12.67h1.45v4.51H12.94Z"/><path class="cls-1" d="M12.94,19.27h1.45v4.49H12.94Z"/></g></g></g></svg>