<svg xmlns="http://www.w3.org/2000/svg" viewBox="0 0 44 30.59"><defs><style>.cls-1{fill:#444;}</style></defs><g id="Layer_2" data-name="Layer 2"><g id="Layer_1-2" data-name="Layer 1"><g id="Wallet"><path class="cls-1" d="M38,30.59H6a6,6,0,0,1-6-6V6A6,6,0,0,1,6,0H38a6,6,0,0,1,6,6V24.55A6,6,0,0,1,38,30.59ZM6,2.49A3.55,3.55,0,0,0,2.49,6V24.55A3.55,3.55,0,0,0,6,28.1H38a3.55,3.55,0,0,0,3.55-3.55V6A3.55,3.55,0,0,0,38,2.49Z"/><rect class="cls-1" x="1.24" y="9.74" width="41.51" height="2.49"/><rect class="cls-1" x="22.85" y="18.07" width="12.43" height="2.49"/></g></g></g></svg>